<svg width="115" height="240" viewBox="0 0 115 240" fill="none" xmlns="http://www.w3.org/2000/svg">
<path d="M6.21986 1.68123C5.64986 2.29123 3.47986 1.68123 2.21986 0.0412332C0.309863 -0.378767 0.0798656 2.50123 0.659866 4.52123C0.889866 4.26123 1.05986 3.95123 2.86986 4.52123C2.57986 3.77123 -0.130136 1.52123 1.57986 1.70123C3.93986 2.61123 3.16986 3.02123 3.96986 4.00123C3.61986 2.61123 7.41986 4.49123 7.76986 3.00123L5.61986 2.24123C5.78987 2.06123 6.62986 2.19123 6.21986 1.68123Z" fill="#A9D8FF"/>
<path d="M4.16034 7.25122L3.61035 7.84122L4.73035 7.98122L4.16034 7.25122Z" fill="#A9D8FF"/>
<path d="M51.96 82.3213C51.1 83.4013 49.6799 84.4013 50.5799 84.4413L51.51 84.2613C51.5158 83.5894 51.6695 82.9271 51.96 82.3213Z" fill="#A9D8FF"/>
<path d="M10.3799 124.121C10.4999 124.211 10.6199 124.321 10.7399 124.421C11.0999 124.161 11.4199 123.931 11.7399 123.701L10.3799 124.121Z" fill="#A9D8FF"/>
<path d="M8.92984 127.561C8.29842 127.3 7.6839 126.999 7.08984 126.661C7.64951 127.06 8.27119 127.364 8.92984 127.561Z" fill="#A9D8FF"/>
<path d="M23.7898 57.8911L25.0398 57.0511C23.1098 56.9911 23.9498 57.4611 23.7898 57.8911Z" fill="#A9D8FF"/>
<path d="M33.79 33.4412C34.125 34.3115 34.5649 35.1376 35.1 35.9012C34.65 34.5712 34.56 33.2612 33.79 33.4412Z" fill="#A9D8FF"/>
<path d="M36.9598 38.4311C36.9598 38.2311 36.8398 38.0511 36.7898 37.8511C36.1402 37.2596 35.5689 36.5875 35.0898 35.8511C35.1804 36.3966 35.3965 36.9136 35.721 37.3613C36.0455 37.809 36.4696 38.1752 36.9598 38.4311Z" fill="#A9D8FF"/>
<path d="M66.1299 163.101C66.051 163.173 65.9675 163.24 65.8799 163.301C65.9599 163.381 66.0399 163.271 66.1299 163.101Z" fill="#A9D8FF"/>
<path d="M74 240C74.3044 239.303 74.6384 238.635 75 238C74.5905 238.576 74.2521 239.253 74 240Z" fill="#A9D8FF"/>
<path d="M16.4196 16.8212C15.7496 16.3512 16.2596 16.8212 16.4196 16.8212V16.8212Z" fill="#A9D8FF"/>
<path d="M15.4697 11.6012C15.5595 11.626 15.6541 11.6281 15.7449 11.6071C15.8358 11.5862 15.9199 11.5429 15.9897 11.4812C15.9154 11.5347 15.8311 11.5729 15.7418 11.5935C15.6525 11.6141 15.56 11.6167 15.4697 11.6012Z" fill="#A9D8FF"/>
<path d="M46.0703 42.3213V42.3812C46.1203 42.0812 46.1203 42.1313 46.0703 42.3213Z" fill="#A9D8FF"/>
<path d="M15.7197 15.7412C15.9084 16.0454 16.1225 16.3331 16.3597 16.6012C16.1717 16.2965 15.9576 16.0088 15.7197 15.7412Z" fill="#A9D8FF"/>
<path d="M15.5797 16.1611C15.3897 15.9511 15.2297 15.7911 15.0797 15.6411C14.9097 15.6811 14.9297 15.8211 15.5797 16.1611Z" fill="#A9D8FF"/>
<path d="M17.3301 17.5111C16.9682 17.2407 16.6333 16.936 16.3301 16.6011C16.4201 16.7511 16.4401 16.8311 16.3901 16.8211L17.3301 17.5111Z" fill="#A9D8FF"/>
<path d="M74.9502 93.1714C74.9557 93.2413 74.9557 93.3115 74.9502 93.3814C75.6602 94.0514 75.4702 93.7014 74.9502 93.1714Z" fill="#A9D8FF"/>
<path d="M52.0404 105.821C52.0449 105.785 52.0449 105.748 52.0404 105.711L51.9404 105.801L52.0404 105.821Z" fill="#A9D8FF"/>
<path d="M50.5996 108.821C50.5502 108.234 50.6499 107.644 50.8893 107.106C51.1288 106.567 51.5004 106.098 51.9696 105.741C51.0696 105.571 50.1796 105.381 49.3096 105.171C49.7896 106.391 50.2296 107.621 50.5996 108.821Z" fill="#A9D8FF"/>
<path d="M49.6515 108.897C48.9602 109.004 48.2607 109.127 47.5695 109.291C49.2153 107.147 51.0834 106.72 48.9026 106.769C49.0836 107.303 48.7298 107.813 48.1291 108.306C47.5283 108.798 46.6725 109.324 45.866 109.949C44.2202 111.058 42.6813 112.413 43.2903 113.341C42.8541 113.497 42.4015 113.653 41.9736 113.842C42.2781 113.604 42.2287 113.456 42.5414 113.235C41.2 113.695 41.1013 114.335 41.0354 115.091C41.0368 115.613 40.9224 116.129 40.7005 116.602C40.4785 117.075 40.1545 117.493 39.7517 117.827C38.9287 118.566 38.1552 119.043 38.4268 118.246C38.0235 119.067 37.6779 119.839 37.357 120.653C36.9043 121.244 36.6739 120.891 37.1348 120.291C36.4481 121.421 35.8377 122.596 35.3079 123.807L35.2585 123.75C35.3243 124.423 35.3079 125.787 35.3243 126.428C34.6824 127.249 35.2667 125.886 34.9211 126.017C34.8553 126.765 34.7401 127.479 34.7401 128.219C34.345 128.547 34.1229 128.26 34.0817 127.685C34.0753 126.964 34.23 126.251 34.5343 125.598C33.1353 126.157 33.0777 126.682 33.0942 127.496C33.1324 128.007 33.1019 128.521 33.0037 129.024C32.8419 129.892 32.5651 130.734 32.1808 131.529C32.1808 130.806 32.2548 130.083 32.3124 129.36C31.5934 129.898 31.0936 130.677 30.9052 131.554C30.6172 132.458 30.4526 133.509 30 134.791C30.422 133.984 30.8862 133.199 31.3907 132.441C32.0162 131.62 32.6087 131.316 32.7157 132.54C32.5667 132.92 32.4859 133.323 32.477 133.731C32.455 134.291 32.5445 134.849 32.7403 135.374C31.9174 135.374 32.1067 136.672 32.3042 138.249H31.2509C31.7446 139.991 32.2795 139.752 32.8967 140.714C33.0369 141.419 33.0087 142.148 32.8144 142.841C32.6319 143.264 32.3909 143.66 32.0985 144.016C32.584 145.659 32.691 144.953 32.9214 144.369C33.1518 143.786 33.3575 143.293 34.1064 144.994C34.7565 147.548 36.0485 148.994 38.2786 150.966C39.0275 152.543 37.5709 151.114 37.7108 151.787C38.2539 152.026 38.7806 152.256 39.3567 152.461C39.5789 152.757 39.3073 152.831 39.1674 152.872C40.2537 153.628 39.9903 152.288 41.5621 153.537C42.1711 153.332 42.5249 154.318 43.2656 155.484C43.6468 156.089 44.1061 156.642 44.6316 157.127C44.8799 157.358 45.1564 157.557 45.4545 157.719C45.7814 157.856 46.1293 157.936 46.4832 157.957C46.87 158.524 45.8907 158.359 45.8413 158.778C46.886 159.14 47.9637 159.399 49.059 159.55C49.4245 159.603 49.7926 159.636 50.1617 159.649C50.5978 159.649 51.141 159.6 51.8816 159.542C52.219 159.764 52.5564 160.019 52.9185 160.216L54.0047 160.807C53.1818 160.232 53.4698 159.846 54.1035 159.542C54.489 159.377 54.8883 159.245 55.2967 159.148L56.7122 158.721C56.1937 158.269 55.774 157.899 55.5025 157.686C55.9633 157.686 56.4324 157.612 56.885 157.571C57.3406 157.545 57.7942 157.49 58.2428 157.406C58.5638 157.587 58.284 157.94 57.7984 158.376L58.3169 158.129C59.2962 158.54 58.7942 159.132 58.0042 159.707C57.6531 159.487 57.3202 159.24 57.0084 158.967C56.2513 159.526 55.4366 160.142 55.5025 160.766C55.8397 160.656 56.1926 160.6 56.5476 160.602C56.3336 160.75 56.1855 160.89 56.2596 161.005C56.3336 161.12 56.7122 160.939 57.2306 160.725C57.4281 161.144 57.6421 161.547 57.8643 161.941L58.0618 161.481L60.1273 161.884L62.234 162.105C62.9362 161.743 63.6102 161.328 64.2502 160.865C64.9085 160.438 65.5257 159.937 66.184 159.444C66.5132 159.197 66.8424 158.959 67.1962 158.729C67.5501 158.499 67.8875 158.203 68.2661 157.957C68.6446 157.71 69.0314 157.472 69.4428 157.209C69.8543 156.946 70.2658 156.683 70.7513 156.388C70.1012 157.579 71.064 157.776 71.4096 158.737C70.6278 158.466 69.8954 158.91 68.9985 159.411C68.5458 159.666 68.0768 159.969 67.5583 160.232C67.0338 160.472 66.4807 160.643 65.9125 160.742C67.1469 160.561 67.007 161.095 66.7354 161.333C67.4016 161.021 68.0499 160.673 68.6775 160.29C69.2947 159.904 69.9284 159.575 70.5126 159.148C70.7184 159.969 71.566 159.403 72.7345 159.296C71.3356 158.146 75.1128 157.012 76.2649 155.673C76.627 156.084 76.5858 156.807 74.6849 157.669C76.0015 157.669 76.413 156.848 76.7833 156.084C77.1536 155.32 77.4252 154.441 78.6431 154.276C78.2317 154.564 77.9683 154.638 77.9601 154.983C78.6843 153.981 81.1284 152.576 80.898 153.34L80.5112 153.652C80.8568 153.422 81.2436 153.151 81.6468 152.831C82.0501 152.51 82.4698 152.165 82.873 151.796C83.7228 151.062 84.51 150.26 85.2266 149.397C86.6091 147.754 87.4731 146.111 87.0699 145.454C87.5273 145.977 87.902 146.567 88.1809 147.203C88.1809 145.914 88.222 144.69 88.1809 143.457C88.1397 142.225 88.008 141.034 87.8188 139.851C88.1973 140.377 89.226 140.673 90.0818 141.075C90.3189 141.151 90.5366 141.278 90.7197 141.447C90.9029 141.615 91.0472 141.821 91.1427 142.051C91.2382 142.281 91.2825 142.528 91.2727 142.777C91.2629 143.025 91.1991 143.269 91.0858 143.49C91.9776 142.709 92.614 141.679 92.9127 140.533C92.4683 140.927 90.7155 140.779 91.0035 140.114C91.6333 139.875 92.2177 139.53 92.7316 139.095C93.0526 138.808 93.4064 138.479 94.4762 137.6C93.9084 138.224 92.6 136.573 93.1513 135.489C93.3241 135.785 94.8959 136.146 94.8795 136.664L94.682 134.84L94.3692 133.041C94.3692 133.862 95.7847 133.731 96.5335 133.222C96.2867 133.312 96.5911 132.679 96.838 131.866C97.1129 131.154 97.3276 130.42 97.4799 129.673L96.657 130.872C96.9056 130.273 97.0083 129.623 96.9568 128.976C96.9053 128.329 96.7011 127.704 96.3607 127.151C95.6823 126.091 95.4078 124.822 95.5872 123.577C95.8917 124.004 97.8173 124.908 98.2205 123.101C97.7762 122.641 96.7064 121.63 95.653 120.464C94.5188 119.374 93.6003 118.081 92.9456 116.652L93.4311 116.069C93.2994 115.715 93.176 115.37 93.0196 115.034L92.5341 114.031C93.0714 114.389 93.5804 114.787 94.0565 115.223C94.6079 115.748 95.2086 116.373 95.8094 117.063C96.4123 117.743 96.9625 118.468 97.4552 119.231C97.8959 119.878 98.2787 120.563 98.5991 121.277C99.1011 119.922 99.2574 120.916 99.1998 118.812C99.7018 118.057 100.023 119.946 100.023 120.579C100.157 118.939 100.198 117.294 100.146 115.65C99.5948 115.814 99.2657 114.894 98.8707 114.007C98.4756 113.12 98.0477 112.257 97.6445 112.429C97.9572 113.251 98.344 114.072 98.6073 114.894L99.4302 117.465C98.8871 117.597 98.0395 116.882 97.3071 115.822C96.4673 114.573 95.906 113.158 95.6612 111.674C95.7847 111.238 96.2949 111.279 96.8298 111.419C97.3647 111.559 97.8749 111.822 98.056 111.748C97.6363 111.362 96.6076 108.872 96.8051 108.462L97.7186 109.677C97.6198 108.827 97.2573 108.028 96.6817 107.394C96.3598 107.048 96.119 106.634 95.9767 106.184C95.8344 105.734 95.7941 105.257 95.8587 104.79C95.8419 104.259 95.8944 103.729 96.0151 103.212C96.0892 102.67 96.0974 102.218 95.7682 102.276C95.0523 103.919 91.4396 105.373 90.2711 105.003C90.1851 103.389 90.1851 101.771 90.2711 100.156C90.6661 98.653 93.1842 100.822 93.5628 99.5566C93.2665 99.6387 92.6411 99.1787 92.4189 98.9733C92.3202 98.1518 93.4064 98.8748 92.5588 97.3878C91.4561 97.6014 91.1105 94.2579 91.3656 97.0757C90.3451 95.7531 90.7648 95.4327 89.8102 93.7322C89.6374 94.1758 88.8968 94.0936 88.0656 93.7322C87.1879 93.4028 86.3889 92.8935 85.7203 92.2371C86.0166 92.1713 86.1482 91.6702 86.1976 91.4156C85.424 89.9615 84.7822 88.8607 84.2226 87.7353C83.6257 86.5372 82.9205 85.3961 82.1159 84.3261C82.1653 83.9317 81.5316 82.527 82.2969 82.7488C81.6856 82.5271 81.1357 82.1639 80.6922 81.689C80.2808 79.6435 82.157 83.2663 82.1817 81.4426C81.5892 81.7466 79.9104 80.0543 78.7337 79.2656C78.2317 80.235 80.5606 81.8205 81.7456 82.642C81.2024 83.0692 80.2643 83.0445 79.1616 82.642C77.8532 82.1248 76.6277 81.419 75.5243 80.5472C73.6151 78.9042 75.4831 79.1424 75.047 78.9042C74.6636 78.5453 74.2537 78.2158 73.8208 77.9184C73.5237 77.6679 73.2041 77.4452 72.8662 77.253C72.3466 76.9714 71.7937 76.7562 71.2204 76.6122C70.6045 76.4673 70.0281 76.1891 69.5318 75.7973C69.0356 75.4055 68.6315 74.9097 68.3483 74.3449C67.8464 72.6362 69.5169 73.0305 69.7062 72.3322C70.4118 72.8237 71.0015 73.4629 71.4343 74.2052C71.733 74.8289 72.115 75.4092 72.57 75.9304L71.6812 74.3942C72.5538 74.7839 73.2902 75.4246 73.7961 76.2343C73.6151 75.5032 72.2984 73.9506 70.6196 72.3486C68.9532 70.7907 67.3709 69.1454 65.8796 67.4197C65.1883 67.2061 64.102 66.7378 64.2913 67.3457L65.2706 67.9947C65.6245 69.2187 62.9582 67.3457 63.8634 68.5369C62.3245 67.9536 60.5717 67.4197 59.0657 65.8259L59.3702 64.7744C59.2303 65.0373 60.1355 66.1053 60.8103 66.2367C59.8228 66.0478 58.967 63.1232 57.387 63.5833L58.2099 65.062C56.6875 64.5033 54.4985 64.3473 53.1325 63C53.2806 64.3144 53.5604 63.1561 53.9965 64.873C53.9389 63.9529 54.9182 64.6512 55.8316 65.292C56.7451 65.9327 57.5516 66.5899 57.2635 65.407C57.5433 67.3375 58.8518 67.2882 59.5183 69.3255C59.6829 69.0298 59.4278 68.4219 60.5388 69.5555C60.6917 69.5349 60.8467 69.5349 60.9996 69.5555L61.0655 69.6459L61.0243 69.5555C61.1066 69.5555 61.1148 69.5555 61.0243 69.5555C60.8454 69.2861 60.7404 68.9745 60.7198 68.6519C61.8143 68.5697 63.7893 70.1799 64.6699 70.4838C65.2706 71.2396 64.1185 70.4838 64.2749 71.1164L65.6245 71.5354C65.2295 72.1679 66.6696 74.1066 64.7275 72.9565C65.213 73.4084 65.715 73.8355 66.1758 74.312C66.7214 75.4527 67.5768 76.4175 68.6446 77.0969C69.1713 77.9184 70.8665 78.2388 69.8872 78.0498C70.7101 78.6988 71.5331 79.3231 72.356 80.005L72.2408 80.1529C72.7501 80.7384 73.3001 81.2874 73.8866 81.7958C74.4874 82.3298 75.0963 82.8638 75.6641 83.4388C76.2672 84.0311 76.8178 84.6743 77.31 85.3611C77.7937 86.1039 78.1549 86.9193 78.3798 87.7763C79.3656 88.6027 80.1697 89.6235 80.7416 90.7748L80.396 91.4074C81.3588 92.3603 81.9513 95.0548 82.8072 95.1862C82.4615 96.2131 83.1034 97.6507 83.9592 99.0637C84.4118 99.7702 84.8398 100.51 85.2266 101.2C85.5777 101.798 85.8724 102.428 86.1071 103.081L86.93 102.826C87.2033 103.564 87.5307 104.28 87.9093 104.97C88.1068 105.324 88.3125 105.693 88.5429 106.079C88.7734 106.465 88.9544 106.901 89.1848 107.312L89.8432 106.958C90.9788 108.379 90.6661 111.288 91.1845 113.777C90.8636 113.653 90.8554 113.013 90.913 112.52C90.6757 113.292 90.6361 114.111 90.7978 114.902C90.9583 115.675 91.1644 116.437 91.4149 117.186C91.6825 117.929 91.862 118.701 91.9499 119.486C91.991 119.857 91.991 120.232 91.9499 120.603C91.8844 120.969 91.7651 121.324 91.596 121.655C91.6958 121.922 91.7357 122.207 91.7129 122.491C91.6902 122.775 91.6053 123.05 91.4643 123.298C91.4733 123.241 91.4733 123.182 91.4643 123.125C91.4403 123.217 91.4238 123.31 91.4149 123.405C91.2421 123.692 91.0529 123.98 90.8883 124.292C91.0914 124.072 91.2606 123.822 91.3903 123.553C91.3346 124.269 91.3346 124.988 91.3903 125.705L90.5673 125.886C90.5673 125.951 90.5673 126.001 90.5673 126.066C90.1147 126.748 90.7978 126.756 91.4726 126.469C91.5033 126.861 91.5834 127.247 91.7112 127.619C91.0364 127.783 90.9953 128.309 90.8883 128.868C90.7813 129.426 90.7319 130.026 89.9666 130.231C90.1888 130.585 89.9666 131.57 89.8102 132.597C89.6539 133.624 89.4728 134.635 90.016 135.144C89.8432 135.086 89.6621 135.275 89.8349 134.856C89.3329 135.678 88.6993 136.351 88.6746 137.321L87.613 137.173C87.6706 137.994 87.6953 138.767 87.72 139.637C87.3422 139.95 86.8761 140.136 86.3869 140.171C86.0988 140.13 85.9754 139.826 85.9836 139.12C85.8141 140.007 85.5377 140.87 85.1607 141.691C84.7865 142.416 84.5098 143.186 84.3378 143.983L83.9181 143.466C83.3832 144.164 83.0211 145.799 82.2722 145.84C81.4677 146.124 80.7309 146.572 80.108 147.154C79.211 147.787 78.2234 148.674 77.0631 149.479C74.7918 151.122 71.9445 152.765 69.4511 153.159C70.274 153.866 69.6486 153.882 68.875 153.907C68.1015 153.931 67.2292 153.907 67.3361 154.622C66.9165 154.276 66.2087 154.235 66.8259 153.628C65.937 154.063 64.9678 154.312 63.9786 154.359C63.1346 154.355 62.3236 154.686 61.7238 155.279C61.4111 154.86 62.1599 154.572 61.8884 154.326C61.7156 154.457 61.1807 154.769 60.9173 154.523C60.654 154.276 61.23 154.12 61.5674 153.907C59.2797 154.178 59.0164 155.443 58.7859 156.782C58.5238 156.64 58.2482 156.524 57.963 156.437C57.7399 156.35 57.5031 156.302 57.2635 156.297C56.7465 156.334 56.2542 156.532 55.8563 156.864C55.6588 156.618 55.4037 156.322 55.3955 156.133C55.3873 155.944 55.4449 155.969 55.6012 155.928C55.8751 155.907 56.1503 155.907 56.4242 155.928L55.9469 155.829L55.2556 155.607C54.7371 155.435 54.1117 155.312 53.5439 155.082C53.0249 154.905 52.4942 154.765 51.9557 154.663C51.5195 154.564 51.1821 154.589 51.0587 154.819C50.9105 154.465 49.956 154.268 49.7008 154.219C47.9892 153.184 47.9233 152.954 46.3022 151.861C46.3978 152.025 46.505 152.181 46.6231 152.33C45.1912 152.831 45.1501 151.508 43.9321 150.399L44.0638 150.342C43.1421 148.633 42.8623 148.37 42.5249 148.115C42.1875 147.861 41.8666 147.573 41.3481 145.749L40.7803 146.333C39.9574 146.637 39.7105 145.758 39.5789 144.64C39.4472 143.523 39.4554 142.176 38.8547 141.354C38.7739 141.624 38.7079 141.899 38.6572 142.176C38.1799 141.716 38.4926 140.73 39.0193 139.867C39.2579 139.448 39.5789 138.988 39.8422 138.602C40.0513 138.3 40.1995 137.959 40.2783 137.6C40.41 137.362 40.5417 137.945 40.7063 138.241C41.0437 136.836 40.8297 136.787 40.4018 136.803C39.9739 136.82 39.3896 136.959 39.2661 135.875C39.8257 135.497 40.6898 136.343 40.7886 134.996C41.0519 134.676 40.624 133.698 40.4429 132.531C40.2619 131.365 40.3195 129.927 41.1753 129.245C40.624 129.484 40.0644 129.788 40.1055 128.72C40.2326 128.285 40.4546 127.884 40.7556 127.545L41.2412 126.937L41.7843 126.354C42.118 125.989 42.4157 125.593 42.6731 125.171C42.8904 124.769 42.9767 124.31 42.9199 123.856C42.9874 123.822 43.0622 123.804 43.138 123.804C43.2139 123.804 43.2886 123.822 43.3561 123.856C43.4791 123.496 43.6333 123.147 43.8169 122.813C44.0144 122.419 44.2448 121.992 44.4835 121.597C44.9247 120.948 45.2375 120.22 45.4052 119.453C46.7795 120.028 47.8739 118.533 49.1413 117.235C50.4086 115.937 51.6841 114.771 52.2601 115.896C53.3414 115.263 54.4598 114.695 55.6095 114.196V114.467C57.0419 114.155 58.3215 113.356 59.2303 112.208C59.8311 112.208 59.4772 112.569 59.469 112.701L61.6168 112.52C62.1118 112.467 62.6035 112.387 63.0898 112.282C64.1733 111.912 65.2316 111.473 66.2581 110.967L66.5791 111.789C66.9703 111.667 67.3893 111.667 67.7805 111.789C68.4768 111.915 69.1662 112.077 69.8461 112.273C70.6196 112.454 71.4919 112.742 72.4301 112.881C73.3392 113.069 74.267 113.152 75.1951 113.128C75.1449 113.206 75.0771 113.271 74.9971 113.318C74.917 113.365 74.827 113.393 74.7342 113.399C76.7998 113.325 78.9888 114.549 80.7992 115.526C81.5896 115.996 82.4355 116.366 83.3174 116.627C83.6752 116.74 84.0553 116.763 84.4241 116.694C84.793 116.625 85.1392 116.467 85.4323 116.233C86.3375 116.397 87.2509 116.57 88.1562 116.783C86.6667 115.872 86.9053 115.658 87.4238 115.51C87.9422 115.362 88.7158 115.329 88.1644 114.779C89.5304 115.288 90.9294 117.326 89.3494 116.611L89.1848 116.348C88.5347 116.882 89.4317 117.506 90.3616 118.18C91.2915 118.854 92.2873 119.552 91.9499 119.946C94.6977 121.815 97.138 124.098 99.1834 126.715C101.1 129.205 102.773 131.874 104.179 134.684C104.434 134.281 104.664 133.862 104.894 133.484C105.257 134.125 105.52 134.807 105.841 135.472C105.841 136.113 105.322 136.54 104.689 135.16C104.458 136.146 106.269 137.247 106.549 137.206C106.878 138.717 106.425 138.553 105.964 138.151C105.503 137.748 104.944 137.107 105.141 137.526C105.339 137.945 105.503 138.257 105.676 138.627V138.323C106.499 139.079 107.042 138.988 107.528 140.788C107.627 141.987 106.976 141.568 107.051 142.02C106.968 142.02 106.968 142.201 107.19 142.702C107.371 143.572 107.503 144.46 107.618 145.339C107.89 144.936 108.112 144.517 108.359 144.115C109.075 145.215 108.696 146.686 109.602 145.248C108.943 146.316 109.091 148.863 109.058 151.344C109.058 151.968 109.058 152.576 109.058 153.167C109.058 153.759 108.976 154.318 108.935 154.81C108.926 155.499 108.815 156.183 108.606 156.84C108.844 157.725 108.911 158.648 108.803 159.559C108.72 160.55 108.547 161.532 108.285 162.491C108.606 162.007 109.733 161.9 109.157 163.715C107.158 162.549 107.511 166.854 105.405 167.774C106.112 167.305 105.775 168.595 105.52 169.762C105.265 170.928 104.952 172.062 106.055 171.339C105.314 172.736 105.232 171.142 104.327 172.045C104.193 173.007 103.916 173.943 103.504 174.822C103.068 175.734 102.549 176.646 102.006 177.566C101.463 178.486 100.796 179.39 100.22 180.343C99.6442 181.296 99.0764 182.273 98.5333 183.284C98.7472 183.497 99.5208 183.045 99.3562 184.105L96.8874 185.444C96.55 186.266 97.8502 187.046 96.0645 187.909C96.3937 187.843 96.8874 187.744 96.6405 188.311C93.6039 191.753 91.0858 195.705 88.3454 199.508C85.6051 203.312 82.585 207.033 78.6267 209.867C79.8611 209.235 79.3755 209.925 78.783 210.689C79.285 210.278 79.3262 211.149 79.7129 211.297L76.4212 213.679C76.8162 214.919 73.829 217.031 74.3804 218L75.014 216.907C74.94 218.969 78.602 216.801 79.68 217.975C79.7541 215.651 84.3707 215.462 84.7246 211.822C85.3994 211.502 84.7246 212.586 85.2677 212.537C85.2265 211.51 85.7038 210.697 87.0205 209.53V209.785C89.9172 205.85 91.7523 204.634 95.4144 200.453L94.5914 200.321C95.05 199.788 95.6092 199.35 96.2373 199.032C96.0892 197.241 94.2047 201.685 93.892 199.911C94.9782 199.738 96.262 198.087 97.447 196.427C98.632 194.768 99.8335 193.199 100.862 193.224C101.883 191.679 99.8088 193.224 100.862 191.638L101.537 191.49L101.265 190.759C102.006 189.806 102.862 189.617 103.232 189.798C103.029 190.13 102.861 190.483 102.73 190.85C104.104 189.839 104.878 186.906 105.331 186.545L104.154 187.941C105.289 185.658 106.664 183.177 107.923 180.647C108.515 179.357 109.091 178.067 109.569 176.794C109.989 175.539 110.321 174.257 110.564 172.957L110.087 173.179C110.178 172.711 110.268 172.358 110.367 171.988C110.428 171.691 110.505 171.398 110.597 171.109C110.733 170.69 110.909 170.286 111.124 169.901C111.313 169.54 111.519 169.17 111.741 168.644C112.044 167.919 112.249 167.157 112.35 166.377L112.4 166.55C112.248 165.51 112.327 164.45 112.63 163.444C112.712 163.995 113.033 163.568 113.354 163.165C113.675 162.763 113.938 162.393 114.054 163.165C114.054 158.934 113.831 161.013 112.91 158.162C113.157 157.99 113.371 157.809 113.593 157.628C112.984 156.708 112.722 155.602 112.852 154.507C113.231 156.223 113.889 153.258 114.416 155.205C115.083 153.55 115.178 151.72 114.687 150.005C114.399 148.641 114.128 147.639 115 146.505C114.062 145.569 113.922 146.571 113.947 147.631C113.971 148.69 114.078 149.873 113.897 149.315C113.634 149.799 113.305 149.389 113.074 148.707C112.777 147.973 112.618 147.19 112.605 146.398C112.531 145.716 112.976 145.068 113.379 144.123C113.897 142.867 113.964 141.471 113.568 140.171C113.65 140.525 113.782 140.516 113.864 140.87C113.955 139.416 112.614 138.463 112.712 136.672C112.469 136.558 112.254 136.392 112.082 136.186C111.91 135.98 111.786 135.74 111.717 135.481C111.519 135.07 111.313 134.741 110.663 134.881C111.206 135.826 111.651 136.828 112.12 137.822C111.556 136.99 110.917 136.212 110.211 135.497C109.829 135.077 109.497 134.614 109.223 134.117C108.885 133.53 108.638 132.896 108.491 132.236C109.061 132.538 109.569 132.945 109.988 133.435C109.931 132.466 109.017 132.014 108.894 131.036C109.536 130.823 110.095 131.669 110.655 132.77C110.959 133.304 111.223 133.92 111.535 134.478C111.825 135.019 112.185 135.519 112.605 135.965C112.795 134.799 110.227 132.794 111.939 133.148C110.803 132.852 110.466 132.039 110.087 131.077C109.759 129.949 109.015 128.986 108.005 128.383L108.746 128.095C108.203 127.715 107.711 127.268 107.281 126.765C107.799 126.929 108.343 127.085 108.861 127.274C108.053 126.664 107.453 125.821 107.141 124.859C106.835 123.899 106.264 123.046 105.495 122.394C105.952 122.843 106.325 123.368 106.598 123.947C106.713 124.243 106.598 124.358 106.483 124.432C106.203 124.563 105.66 124.53 105.981 125.368C105.29 124.837 104.702 124.186 104.244 123.446C104.028 122.981 103.905 122.479 103.882 121.967C103.784 121.006 103.701 119.848 101.488 118.065C102.146 118.492 103.224 120.382 102.129 119.806C101.437 118.971 100.856 118.048 100.401 117.063C97.4141 114.836 100.335 118.032 98.8048 117.408C98.4345 115.872 97.159 116.586 95.7189 115.921L96.1715 115.264C94.5997 113.884 94.1306 114.081 93.7027 114.302C93.2748 114.524 92.9621 114.763 91.5466 113.563C92.1803 113.497 92.8057 113.465 93.4476 113.423C92.8468 113.169 92.2543 112.898 91.6371 112.676L92.4601 112.093C90.2711 111.633 89.7938 111.181 88.008 110.064C88.2055 110.778 87.1851 111.238 85.5393 110.565C84.5764 109.677 86.4692 110.121 84.0415 109.283C84.7493 109.02 85.5969 108.692 86.3622 109.784C86.5679 109.595 87.0864 109.571 87.3003 109.382C86.2717 108.322 84.1732 107.969 83.268 107.673C83.5979 107.796 83.9062 107.971 84.1814 108.191L82.2146 108.084H80.2561C79.7788 107.624 80.2561 107.533 80.8074 107.443C80.0503 107.287 79.4414 107.525 78.3387 107.303C78.7748 106.753 78.8736 106.088 80.5194 106.211C79.2768 106.129 78.0506 106.03 76.808 106.022C76.6434 105.677 75.1622 104.88 75.6395 104.748C74.4584 104.433 73.2225 104.38 72.0186 104.592C70.6101 104.79 69.1808 104.79 67.7723 104.592C67.4591 104.779 67.1072 104.891 66.7436 104.921C65.4434 104.855 64.2008 104.699 62.8923 104.724C61.4578 104.729 60.0458 105.081 58.7777 105.751C58.1276 105.512 57.4528 105.25 56.778 105.052C55.6177 105.512 56.3089 105.693 56.778 105.964C57.2471 106.235 57.5269 106.564 55.7 107.328C53.1736 108.568 54.3751 106.72 53.3217 106.769C52.7539 107.295 52.0133 108.059 51.1163 108.757C50.16 109.536 49.0317 110.077 47.8246 110.335C48.373 109.783 48.9864 109.301 49.6515 108.897ZM32.7074 132.449C32.6169 131.858 32.2713 130.568 32.8473 130.24C33.588 131.069 33.1189 131.48 32.7074 132.449ZM60.6375 160.314C60.2425 160.618 59.5924 160.487 58.8929 160.167C59.4787 160.119 60.0683 160.169 60.6375 160.314ZM67.5501 75.0021H67.6159C68.192 76.0043 68.0027 75.6428 67.5501 75.0021ZM66.1264 73.1619C65.8796 73.0962 65.822 73.1619 65.8137 73.3344C66.0771 73.2851 66.4556 73.6384 66.8424 74.082C66.8588 73.8109 66.7519 73.4987 66.1264 73.1619ZM107.273 141.995L107.371 141.527C107.849 142.406 107.585 142.192 107.289 141.995H107.273Z" fill="#A0D4FF"/>
<path d="M9.12984 127.171C8.99372 127.016 8.91594 126.818 8.90984 126.611C8.61984 126.741 8.57984 126.931 9.12984 127.171Z" fill="#A9D8FF"/>
<path d="M23.5596 58.0514H23.6696C23.7274 58.0096 23.7696 57.9498 23.7896 57.8813L23.5596 58.0514Z" fill="#A9D8FF"/>
<path d="M54.9697 50.9014C55.0772 51.3246 55.0772 51.7681 54.9697 52.1914C55.2497 52.1314 55.3197 51.8214 54.9697 50.9014Z" fill="#A9D8FF"/>
<path d="M9.5 11.9313L11.06 12.8013C10.5989 12.4967 10.2264 12.0759 9.98 11.5813C9.87 11.8213 9.95 12.2513 9.5 11.9313Z" fill="#A9D8FF"/>
<path d="M10.0305 8.36131C10.3905 7.62131 9.29049 7.19131 8.16049 6.59131C8.22445 6.62889 8.28472 6.67242 8.3405 6.72131C7.4005 7.44131 8.7105 7.90131 10.0305 8.36131Z" fill="#A9D8FF"/>
<path d="M7.9002 6.44126C7.54739 6.25614 7.21261 6.03853 6.9002 5.79126C6.5502 6.08126 7.2602 6.14126 7.9002 6.44126Z" fill="#A9D8FF"/>
<path d="M18.9002 18.0812C18.5902 17.5312 17.9002 18.6112 17.9002 18.1412C16.7302 18.4812 21.6802 19.8212 18.9002 18.0812Z" fill="#A9D8FF"/>
<path d="M10.7303 5.59131L10.5303 6.67131L11.5903 6.43131L10.7303 5.59131Z" fill="#A9D8FF"/>
<path d="M18.3998 12.3612L16.9798 10.8212C16.8998 10.9712 16.6398 10.8812 16.3398 10.7412C17.2998 11.5812 18.2498 12.6212 18.3998 12.3612Z" fill="#A9D8FF"/>
<path d="M16.3399 10.7511C15.9267 10.3704 15.4448 10.0717 14.9199 9.87109C15.3691 10.2017 15.8439 10.496 16.3399 10.7511Z" fill="#A9D8FF"/>
<path d="M13.21 6.99121L13.58 7.53121L14.7 8.47121L13.21 6.99121Z" fill="#A9D8FF"/>
<path d="M34.1104 27.8912C34.6704 28.4012 35.2603 28.8912 35.7903 29.4112C36.2003 29.4112 35.9903 28.7412 35.3203 28.2012C34.7903 27.9512 34.1304 27.4212 34.1104 27.8912Z" fill="#A9D8FF"/>
<path d="M31.5 20.9812C31.6756 21.3765 31.7279 21.8157 31.65 22.2412L32.59 21.4312L31.5 20.9812Z" fill="#A9D8FF"/>
<path d="M36.2402 25.7213C36.6402 25.6613 39.2402 27.5913 37.2402 25.4413C36.7902 25.4813 35.0502 23.9413 36.2402 25.7213Z" fill="#A9D8FF"/>
<path d="M53.2597 55.5412L53.0397 55.0112L51.1797 55.8712L53.2597 55.5412Z" fill="#A9D8FF"/>
<path d="M61.8696 86.0912C62.8696 83.2212 60.7496 85.1912 61.7496 82.6312C61.3696 81.8912 60.9496 84.7212 60.6396 83.9512C60.9296 85.8212 60.3496 86.6312 61.8696 86.0912Z" fill="#A9D8FF"/>
<path d="M60.64 83.9512C60.6004 83.6376 60.5403 83.327 60.46 83.0212C60.4829 83.3373 60.5433 83.6495 60.64 83.9512Z" fill="#A9D8FF"/>
<path d="M31.4305 192.741L30.0205 193.831L31.2505 193.381L31.4305 192.741Z" fill="#A9D8FF"/>
<path d="M30.5405 196.281L29.2705 195.781L29.5405 197.331C29.7905 196.981 30.1205 196.321 30.5405 196.281Z" fill="#A9D8FF"/>
<path d="M7.28052 58.5413C6.36052 58.7813 5.42051 59.4313 4.52051 59.7313C6.37051 58.7513 7.99052 59.8213 7.28052 58.5413Z" fill="#A9D8FF"/>
<path d="M99.8938 194.979C100.35 194.979 99.1959 194.157 99.0616 194C98.6858 194.27 100.162 195.147 99.8938 194.979Z" fill="#A9D8FF"/>
<path d="M110 205.749C110.585 206.478 110.442 205.371 110.857 205.535L111 205.692L110.755 205C110.503 205.252 110.347 205.868 110 205.749Z" fill="#A0D4FF"/>
<path d="M108 205.147C108.429 205.332 108.843 205.394 108.76 206C109.396 205.517 108.636 204.654 108 205.147Z" fill="#A0D4FF"/>
<path d="M105 205C105.306 205.346 105.639 205.68 106 206V205.58C105.588 205.463 105.239 205.26 105 205Z" fill="#A0D4FF"/>
<path d="M104.8 205.645L104 205L105 206L104.8 205.645Z" fill="#A0D4FF"/>
<path d="M104.576 212C104.292 211.43 104.356 210.766 104.998 211.219C105.062 210.672 103.816 208.93 103 208C103.183 208.281 103.236 208.61 103.147 208.922C103.412 209.187 104.2 209.367 104.228 209.977C103.999 210.422 103.797 209.906 103.44 209.688C103.99 210.328 103.44 210.906 104.118 211.906L104.292 211.406C104.384 211.586 104.393 211.891 104.576 212Z" fill="#A0D4FF"/>
<path d="M103.903 207.91L104 207.76C103.773 207.7 103.514 207.47 103.016 207C102.97 207.34 103.022 207.685 103.168 208L103.903 207.8V207.91Z" fill="#A0D4FF"/>
<path d="M104.402 207.628C104.593 208.601 104.494 209.182 104.903 210C105.14 209.704 104.863 209.075 104.903 208.542C104.56 209.146 104.87 207.937 104.435 207.688C104.458 207.519 104.509 207.367 104.58 207.249C104.468 207.196 104.36 207.12 104.257 207.024C104.303 207.13 104.329 207.19 104.29 207.142C104.29 207.273 104.343 207.391 104.369 207.51C104.198 207.427 104.283 207.285 104.29 207.142L104.257 207L104 207.866C104.145 208.032 104.244 207.901 104.402 207.628Z" fill="#A0D4FF"/>
<path d="M107.535 209.75C107.535 209.533 107.384 209 107.605 208.983C107.907 209.25 107.837 209.6 108 210C108 209.583 108 208.8 107.465 208.45V208.667C106.892 208.285 106.39 207.714 106 207C106.463 207.971 106.976 208.89 107.535 209.75Z" fill="#A0D4FF"/>
<path d="M105.516 208L105 209.111L106 210L105.629 209.333C106.306 209.368 105.774 208.547 105.516 208Z" fill="#A0D4FF"/>
<path d="M24.9697 199.011L24.6797 198.861C24.7612 198.936 24.8613 198.988 24.9697 199.011Z" fill="#A9D8FF"/>
<path d="M25.7105 200.911L26.0405 200.691C25.7905 200.751 25.6905 200.821 25.7105 200.911Z" fill="#A9D8FF"/>
<path d="M65.1299 219.89L65.2499 220.12C65.2499 219.8 65.2499 219.5 65.2499 219.22C65.2299 219.43 65.1799 219.65 65.1299 219.89Z" fill="#A9D8FF"/>
<path d="M65.4704 223.63L64.9404 223.24C65.0784 223.416 65.2616 223.551 65.4704 223.63Z" fill="#A9D8FF"/>
<path d="M21.5899 190.971H20.6699C20.7899 191.281 21.1599 191.041 21.5899 190.971Z" fill="#A9D8FF"/>
<path d="M33.0396 194.421C32.8672 194.469 32.7047 194.547 32.5596 194.651C32.7344 194.611 32.8983 194.532 33.0396 194.421Z" fill="#A9D8FF"/>
<path d="M18.42 165.201C18.4481 165.176 18.4782 165.152 18.51 165.131C18.39 165.141 18.39 165.171 18.42 165.201Z" fill="#A9D8FF"/>
<path d="M25.3096 155.981C25.3897 156.066 25.448 156.169 25.4796 156.281C25.5196 156.211 25.4796 156.111 25.3096 155.981Z" fill="#A9D8FF"/>
<path d="M22.5803 178.331H22.6503C22.2703 178.161 22.3403 178.231 22.5803 178.331Z" fill="#A9D8FF"/>
<path d="M79 229C78.3223 228 78.6033 228.07 78.9008 228.25C78.2893 227.49 77.6612 226.75 77 226C77.5794 227.02 78.247 228.022 79 229Z" fill="#A0D4FF"/>
<path d="M67.2433 217.548L66.7168 218.104C65.5364 217.955 65.7997 217.507 65.0184 218.104C66.1309 217.814 66.3007 218.162 66.4621 218.519C66.5023 218.607 66.5477 218.693 66.5979 218.776C66.6767 218.893 66.7776 218.995 66.8952 219.075C67.0667 219.163 67.2576 219.209 67.4514 219.209C67.6452 219.209 67.836 219.163 68.0076 219.075L67.6934 219.598C67.6934 219.49 67.549 219.523 67.5236 219.415C66.7932 220.552 69.222 219.266 69.222 220.17C69.171 220.527 68.9672 220.909 68.653 220.851C68.8993 220.975 69.1455 221.083 69.3833 221.191C69.3833 221.398 69.0691 221.581 69.0351 221.365C69.2036 221.659 69.3998 221.937 69.6211 222.195H69.5617C69.9183 222.104 70.5043 222.012 70.7505 221.971C70.6062 222.419 70.5043 222.037 70.3174 222.286L70.9713 222.361C70.6401 223.008 70.0032 223.025 69.8759 222.601C69.1286 223.63 69.3154 223.672 69.6041 223.655C69.8928 223.639 70.292 223.589 70.1136 224.668L69.6381 224.377C69.4407 224.698 69.3138 225.056 69.2655 225.427C69.2173 225.798 69.2487 226.176 69.3578 226.534C69.3578 226.717 69.3578 226.958 69.3578 227.182C69.3924 227.061 69.4207 226.94 69.4428 226.817C69.4852 226.634 69.5362 226.427 69.5956 226.203C69.8419 225.323 70.258 224.377 70.7081 224.435C70.6822 224.539 70.6822 224.647 70.7081 224.751C70.7208 224.784 70.7412 224.814 70.7677 224.838C70.7942 224.863 70.8261 224.881 70.8609 224.892C70.9837 224.901 71.1068 224.878 71.2176 224.825C70.7081 225.539 71.0562 225.572 71.345 225.788L70.7166 226.717C71.2176 226.717 71.4808 226.219 71.9054 225.954C72.1602 226.352 71.829 227.165 71.5997 227.87C71.863 228.211 71.897 227.821 71.9904 227.397C72.0838 226.974 72.2197 226.568 72.5593 226.734C72.6027 226.896 72.6841 227.047 72.7971 227.173C72.7971 227.173 72.7971 227.248 72.7971 227.099L72.899 227.14C72.9667 227.149 73.0352 227.149 73.1028 227.14C73.5046 227.003 73.8742 226.789 74.1898 226.51C74.4615 226.883 73.9181 227.173 73.9605 227.48C74.1643 227.198 74.3681 226.908 74.5719 226.609C74.6484 226.609 74.5719 226.9 74.4955 227.032C74.8861 226.667 74.8267 225.937 75.3447 225.564C75.5485 224.933 75.6504 225.34 75.8542 225.721C76.058 226.103 76.4062 226.435 76.7799 225.622C76.8988 225.904 76.6355 226.36 76.6355 226.792C76.9427 226.439 77.2264 226.068 77.4847 225.68C77.7305 225.26 77.9352 224.818 78.0961 224.361C78.2871 224.545 78.4884 224.72 78.6991 224.883C78.215 224.211 78.6991 223.016 78.8604 222.104L78.4868 221.274C78.6141 221.017 78.733 220.759 78.8349 220.519C78.9422 220.843 78.9883 221.183 78.9708 221.523C78.9708 221.423 78.9708 221.324 79.0133 221.232C79.2787 221.726 79.3796 222.289 79.302 222.842C79.177 222.658 79.0636 222.467 78.9623 222.27C78.8936 222.976 78.8936 223.687 78.9623 224.394C78.9931 224.254 79.0571 224.123 79.1491 224.012C79.1206 224.166 79.1206 224.323 79.1491 224.477C79.1916 224.576 79.2341 224.311 79.2935 223.987C79.4237 224.358 79.5596 224.731 79.7011 225.107L79.6417 224.618C80.0323 224.734 80.4484 224.833 80.8815 224.925C80.9837 224.555 81.0519 224.178 81.0853 223.796C81.0853 223.431 81.0853 223.066 81.0853 222.718C81.04 222.132 81.1953 221.548 81.5269 221.058C81.6587 221.864 81.8691 222.656 82.1553 223.423C81.7307 222.411 81.8666 224.004 81.442 223.929C81.6798 223.929 81.8071 224.444 81.8241 224.618C81.9175 224.228 82.0025 223.846 82.0704 223.481C82.1248 223.699 82.2105 223.909 82.3252 224.103C82.3548 224.136 82.3753 224.176 82.3846 224.219C82.3846 224.219 82.3846 224.269 82.3846 224.219L82.2572 223.73C82.1723 223.357 82.0959 223.149 82.0364 222.9C82.1383 223.298 82.0789 223.124 81.9685 222.585C81.909 222.261 81.8581 221.971 81.8071 221.672C81.8071 221.539 81.8071 221.315 81.8071 221.216C81.7945 221.164 81.7945 221.11 81.8071 221.058V220.983C81.4335 221.929 82.6563 218.851 80.9579 223.108H81.2467H81.3401C81.7424 223.198 82.1606 223.198 82.5629 223.108L82.9196 223C82.9982 222.974 83.0726 222.938 83.1404 222.892C83.2442 222.851 83.338 222.79 83.4156 222.711C83.4932 222.632 83.5528 222.538 83.5905 222.436C83.7499 222.647 83.8362 222.903 83.8367 223.166C83.8346 223.232 83.8156 223.298 83.7816 223.356C83.7475 223.413 83.6994 223.462 83.6414 223.498C83.5536 223.555 83.4596 223.602 83.3612 223.639C83.2967 223.67 83.2281 223.692 83.1574 223.705C83.0346 223.736 82.9097 223.758 82.7837 223.771C82.9312 223.822 83.086 223.85 83.2423 223.854C83.3268 223.866 83.4125 223.866 83.497 223.854C83.6347 223.838 83.7616 223.773 83.8537 223.672C83.9607 223.441 83.9989 223.185 83.9641 222.933C83.9132 222.369 83.7688 221.83 84.2783 222.104C84.1849 222.178 84.083 222.145 84.2019 222.411C84.2019 221.838 84.8982 221.813 85.0511 222.286L84.9662 222.361C85.3838 222.212 85.7293 221.916 85.9343 221.531C86.0107 221.043 85.9116 220.545 85.654 220.121L86.6306 221.888C86.0819 220.722 85.7018 219.488 85.5012 218.22C85.4415 217.894 85.399 217.564 85.3738 217.233C85.5436 217.814 85.9937 218.727 86.3504 219.614C86.649 220.29 86.8766 220.993 87.0297 221.714C87.1996 221.838 87.2251 222.012 87.4204 221.498C87.0645 220.979 86.8111 220.399 86.6731 219.789C87.0594 220.343 87.5127 220.85 88.0233 221.299C87.7855 221.108 87.2845 219.266 87.5393 219.241C87.5987 219.523 88.2101 221 88.1931 221.216L88.1167 219.258C88.2718 219.954 88.5599 220.615 88.9659 221.207C88.7791 220.884 89.4754 221.066 89.5604 220.834L89.1697 220.51C89.9085 220.51 88.898 217.822 89.5688 217.689C89.6283 218.079 90.2058 219.988 90.6049 220.096C90.4265 219.141 89.6708 215.532 89.9765 214.644L90.2737 215.117L90.486 214.379C90.7744 216.303 90.9501 218.243 91.0125 220.187C91.4116 220.511 91.3097 220.768 91.6494 220.593C91.7569 220.714 91.8161 220.869 91.8161 221.029C91.8161 221.189 91.7569 221.344 91.6494 221.465H92.609C92.1759 220.428 92.8638 220.187 92.4986 219.324L91.9891 220.735C91.5645 219.697 91.4116 217.573 92.0825 217.54C92.3937 218.269 92.6353 219.024 92.8043 219.797C92.7449 219.407 93.11 218.901 93.2629 219.141V219.789C93.7384 220.071 93.2629 218.212 94.0611 219.067C94.2225 219.067 94.9783 220.27 94.766 219.639C93.8256 217.861 93.0525 216.003 92.4561 214.088C93.0112 214.509 93.5206 214.985 93.9762 215.507C94.5622 216.337 94.4772 217.864 94.9783 218.602C94.8978 218.333 94.8633 218.052 94.8764 217.772C95.1141 217.963 95.1481 218.677 95.4199 218.436C95.0717 217.357 96.0907 218.295 95.2245 217.49C95.4199 217.075 95.6406 217.59 95.9803 217.416C95.594 216.512 95.4677 215.522 95.6152 214.553C95.7099 214.817 95.8383 215.067 95.9973 215.3C96.6597 215.167 97.1777 215.524 97.7636 215.3C97.9165 215.54 98.3241 215.748 98.3751 216.246C98.3751 216.03 98.3241 215.64 98.5025 215.549C99.2073 216.378 98.1458 215.839 98.8421 216.843C98.6298 216.221 98.9865 215.822 99.0884 215.341C98.6383 214.42 98.426 215.341 98.3156 215.856C97.8182 214.69 97.7403 213.394 98.0948 212.18C98.443 211.674 98.6298 212.943 98.6383 212.727C99.6319 212.62 98.5025 210.163 99.6149 210.819C100.243 211.533 100.294 212.479 100.608 213.043C100.345 213.507 99.7593 212.744 99.5385 212.877L100.023 213.142C100.023 213.474 99.8272 213.781 99.5894 213.59C100.141 214.246 101.177 213.151 102.137 213.59C102.137 213.267 102.239 212.893 102.001 212.603L101.823 212.802C101.347 212.221 101.823 211.723 101.449 211.524C101.543 210.935 101.543 210.072 102.103 210.28L102.587 211.184C102.46 210.919 102.078 210.736 102.095 211.068C102.095 210.587 103.266 212.08 102.944 210.778L102.375 210.246C102.46 209.666 102.375 208.521 102.816 208.67C102.247 207.84 102.816 208.811 102.061 207.84C102.91 209.093 101.169 208.155 102.137 209.417C101.288 208.272 101.458 209.068 100.668 208.131C100.812 208.438 101.042 208.678 100.668 208.645C100.691 208.744 100.708 208.843 100.719 208.944C100.719 208.994 100.719 209.002 100.719 208.944C100.856 209.06 100.974 209.197 101.067 209.35C101.228 210.13 100.736 210.296 100.727 210.728C100.49 210.653 100.651 210.338 100.422 210.047V210.695C100.116 210.014 99.479 209.732 99.7253 209.159L99.3432 209.276C98.961 208.977 98.5959 208.944 98.494 209.276C98.2562 209.193 98.3496 210.213 98.2902 209.608L97.8571 210.263L97.7806 210.097C97.1607 210.23 97.0079 211.707 95.8275 210.703C95.7001 210.952 95.5727 211.242 95.1566 211.167L94.8594 210.587C94.681 210.894 93.8488 210.271 94.0102 210.943C93.11 209.417 92.609 211.043 92.04 210.943L92.3203 211.773C91.9806 211.84 91.7683 212.18 91.4711 212.603L91.7598 213.292C91.6324 213.98 90.6898 213.101 90.1803 213.366C90.1208 213.084 90.2822 213.109 90.435 213.234C89.2037 211.881 89.5094 214.893 88.4904 213.922C88.4394 214.229 88.3035 214.179 88.1337 214.038C88.1382 214.031 88.1405 214.022 88.1405 214.014C88.1405 214.005 88.1382 213.996 88.1337 213.989H88.0742C87.9639 213.889 87.845 213.773 87.7346 213.682C87.8189 213.802 87.9221 213.908 88.0403 213.997C87.8798 214.104 87.758 214.258 87.6921 214.437L87.3439 213.707C87.0807 213.491 87.3439 214.113 87.6412 214.644C87.6011 214.818 87.584 214.997 87.5902 215.175C87.0043 214.014 87.3015 215.739 86.6391 214.511C86.758 215.183 85.9767 215.283 86.3758 216.644C86.2994 216.47 86.223 216.403 86.3079 216.362C86.0701 216.279 85.8239 216.196 85.7984 216.627L85.3653 215.698C85.3653 216.179 85.4332 216.644 85.3653 217.133C84.8388 216.66 84.5161 216.403 84.5671 215.54C84.5185 215.674 84.4872 215.814 84.4736 215.955C84.3842 216.199 84.2675 216.433 84.1255 216.652C83.9837 216.956 83.9364 217.293 83.9896 217.623L83.6754 217.042C83.4461 217.216 83.6754 218.171 83.1998 217.814C82.9613 217.697 82.6919 217.654 82.4278 217.691C82.1636 217.728 81.9174 217.844 81.7222 218.021C81.6238 218.083 81.5217 218.138 81.4165 218.187C81.3771 218.194 81.337 218.194 81.2976 218.187L81.391 218.361L81.5779 218.776L81.7392 219.083C81.8323 219.285 81.9118 219.493 81.977 219.706C82 219.79 82.0284 219.873 82.0619 219.955C82.0896 220.024 82.1095 220.097 82.1213 220.17C82.1297 220.245 82.1297 220.32 82.1213 220.394C82.1184 220.436 82.1184 220.477 82.1213 220.519C82.1301 220.557 82.1301 220.597 82.1213 220.635V220.726C84.2104 215.325 82.6903 219.224 83.1489 218.021H83.0894C82.9268 217.961 82.7592 217.913 82.5884 217.88C82.4205 217.846 82.2502 217.824 82.0789 217.814H81.8411H81.5184H81.2467H81.0853C80.9932 217.813 80.9016 217.799 80.8136 217.772C81.2552 218.66 80.9494 218.511 80.6437 218.32C80.338 218.129 79.9898 217.905 80.2191 218.619C79.9898 218.212 79.7266 218.038 79.7945 217.59C79.336 218.229 78.5122 217.291 78.8774 218.503C78.7076 218.079 78.7075 217.855 78.5887 217.606C78.5887 217.706 78.6566 218.005 78.5887 217.756C78.5216 217.568 78.476 217.373 78.4528 217.175C78.5213 218.136 78.6834 219.089 78.9368 220.021C78.6056 219.473 78.5887 219.573 78.5632 220.527C78.4273 220.112 78.2914 219.697 78.4698 219.44C78.3169 219.44 77.8159 219.017 77.7734 220.179C77.7734 219.896 77.6121 220.179 77.5611 220.311C77.2894 220.311 77.2894 220.245 77.0007 220.461L77.0431 220.635C76.661 222.17 76.7204 221.066 76.4487 221.332L76.4911 221.174C76.3638 220.718 76.2873 220.859 76.1939 220.992C76.1005 221.125 75.9901 221.249 75.9731 220.652L75.6334 221.639C75.2088 222.701 75.1409 222.469 75.1834 221.913C75.2258 221.357 75.5061 220.51 75.2343 220.759L75.0305 221.39C74.8097 221.647 75.0305 220.842 75.4381 219.996C75.8457 219.15 76.2873 218.254 76.2873 218.104C76.3529 217.983 76.439 217.874 76.5421 217.781C77.1026 216.553 75.8542 218.859 75.5655 218.892C75.935 218.387 76.2779 217.864 76.593 217.324C76.661 217.208 76.593 217.241 76.5166 217.324C76.312 217.518 76.0872 217.691 75.8457 217.839C75.6334 217.947 75.5315 217.897 75.8457 217.523C75.5868 217.876 75.2611 218.178 74.8861 218.411C74.7757 218.411 75.056 217.947 75.2258 217.681C75.3957 217.416 75.4551 217.258 74.8267 217.565C74.9143 217.48 75.0112 217.405 75.1154 217.341C74.6422 217.299 74.1653 217.319 73.6973 217.399C74.9456 216.719 74.5465 216.694 74.1304 216.569C73.7142 216.445 73.2132 216.113 74.4531 215.739L74.1134 215.042L74.3681 214.993C74.3681 214.478 73.7567 214.47 73.1028 214.453C73.2387 214.296 73.5019 214.321 73.6293 214.296C73.969 213.466 73.8501 213.466 72.4489 213.109L73.2981 212.868C72.7886 212.794 74.3427 211.582 73.2557 211.06C73.3814 211.031 73.5121 211.031 73.6378 211.06C72.5169 210.421 75.5655 208.77 72.5084 208.969L71.6592 208.554C71.5403 209.292 70.3344 208.662 69.8759 209.027C69.6551 208.778 70.6741 208.197 70.8864 208.479L70.742 208.562C72.3385 208.429 71.1581 207.6 72.2366 207.45C71.9309 206.089 72.6273 204.612 72.5169 203.301L71.3025 203.617V203.152C71.5743 202.994 72.2451 202.862 72.2366 203.152C72.916 202.895 71.5828 202.687 71.311 202.704C71.7271 202.007 72.7801 202.77 72.7886 202.571L72.6612 202.322L72.5254 202.397C71.9904 202.248 71.4554 202.297 71.4639 201.899C71.6762 201.617 72.2112 201.675 72.2451 201.567C72.2791 201.459 72.364 201.567 72.2451 201.418V200.829L71.3025 201.177C70.793 200.978 71.3025 200.621 70.2155 201.028C71.863 200.422 70.5467 198.788 71.0647 198.481C70.3089 198.207 70.275 197.85 70.3005 197.394C70.1136 197.526 69.0267 197.734 69.1116 197.336C71.3789 197.186 69.9608 196.506 71.5743 195.983C70.5382 196.406 71.1497 194.921 69.689 195.568C69.8164 195.228 70.5382 195.435 71.0223 195.12C70.0287 194.473 71.3535 193.344 70.8779 192.423C70.498 192.559 70.0905 192.605 69.689 192.556L71.0732 191.809C70.8949 191.643 69.3748 191.917 70.3005 191.403C70.0627 191.494 69.706 191.627 69.5871 191.519C70.1561 190.465 69.6381 189.536 69.3069 188.607C69.048 188.082 68.9549 187.494 69.0396 186.918C69.1243 186.341 69.3829 185.803 69.7824 185.371C69.2899 185.785 69.205 185.628 69.1116 185.429C69.0182 185.595 68.3982 185.628 68.0161 185.76C68.2963 185.395 68.5681 185.014 68.8653 184.632C67.7444 184.823 68.5086 183.802 67.4641 184.035L67.7274 184.225C66.4196 184.308 65.1798 185.561 63.6427 185.993C64.3815 185.935 63.9484 186.325 63.5833 186.69C63.2181 187.055 62.9464 187.412 64.0079 187.428C63.7191 187.636 63.4729 187.428 63.1587 187.619C63.8635 187.619 64.0079 187.71 63.8295 188.109H63.6512C64.0418 188.938 63.4814 189.478 63.2266 190.598L63.9994 190.366C63.9399 190.606 63.7022 190.698 63.5238 190.839C64.7722 190.839 63.4644 190.216 64.8316 190.175C63.286 190.789 65.1373 191.735 63.3285 192.266C63.3795 192.606 64.2287 192.009 64.2796 192.349L63.7956 192.523H64.4495C64.3815 192.764 63.7786 192.979 63.3625 193.054C63.4049 192.996 63.2181 192.921 63.1757 192.871C62.6407 193.253 63.5153 193.651 63.337 193.776L63.5918 193.403C64.2287 194.232 63.7276 195.51 64.8825 196.282L65.2477 196.157C66.046 196.763 64.9165 196.78 65.3411 197.51H65.2477C65.6468 197.618 65.8676 197.8 65.8506 198.024C65.3836 197.883 65.0439 198.497 64.5174 198.306C65.3666 198.978 65.1628 198.613 66.6234 198.945L66.0205 199.136C66.6064 199.236 66.8697 199.219 67.1159 199.592C66.5385 199.335 66.1988 199.958 65.4175 199.684C64.1607 200.679 66.9546 200.738 65.0099 201.343C66.7848 201.509 65.8591 200.513 66.2752 200.679C66.8102 200.43 67.6085 200.829 67.4641 201.111C67.4641 201.385 65.3072 201.833 65.4345 202.497C65.4345 202.43 65.2987 202.439 65.2987 202.372C64.891 202.679 65.961 202.787 65.2987 203.202C66.3686 203.202 65.2986 203.608 66.6319 203.484L66.2413 202.911C66.6404 203.218 68.2454 203.343 67.5575 204.007C67.2639 203.978 66.9771 203.902 66.7083 203.783C66.3347 203.998 67.0055 204.065 66.6234 204.297C65.2902 204.413 66.2413 203.592 65.1713 203.343C64.6363 203.6 66.2328 203.924 64.7637 203.924C66.6319 203.924 64.6193 204.612 66.0799 204.886L65.2817 204.961C65.4175 205.011 65.8167 205.11 65.8082 205.251L64.7382 205.143C65.6808 205.401 64.0673 205.973 64.6023 206.255C64.4749 205.509 65.5449 205.957 66.0799 205.567C67.2773 206.33 64.0673 206.396 64.5938 207.351C64.4664 207.226 65.0014 206.762 65.4006 206.927C65.2067 207.231 64.9264 207.474 64.5938 207.624C64.8656 208.288 65.4006 207.4 65.9356 207.624C65.0014 207.998 66.3856 207.907 66.7848 208.155L65.9356 208.28C65.5364 209.11 67.634 208.222 67.1414 209.018L65.9695 208.902L66.3177 209.218L65.3836 209.292C66.1309 209.583 65.978 209.732 65.7827 210.122C66.3347 209.939 67.2518 209.931 67.3452 210.271C66.9037 210.587 66.547 210.271 66.7593 210.736C66.2328 210.736 65.5789 210.736 66.2752 210.363C66.012 210.363 65.7572 210.363 65.4855 210.363C64.976 210.711 65.4855 211.035 65.5279 211.192C65.5334 211.147 65.5492 211.103 65.5741 211.064C65.5991 211.026 65.6327 210.993 65.6723 210.968L66.9291 211.483C66.6844 211.611 66.3978 211.641 66.1309 211.566C66.2498 211.69 66.6404 211.723 66.7508 211.923C66.0884 211.989 65.4175 212.13 65.0524 211.923L65.9016 212.478C65.6298 212.578 65.1883 212.985 64.9335 212.943C64.6193 213.4 66.3941 213.632 66.012 214.246C66.1494 214.24 66.2846 214.281 66.3941 214.362C66.3941 214.868 65.6638 215.49 66.6913 215.847L65.6214 216.461C66.012 216.851 66.9461 215.632 67.6 216.287C68.118 216.719 66.6744 216.743 66.4026 217.017C67.065 217.133 68.3643 217.25 67.5745 217.996C67.2348 217.855 67.3707 217.673 67.2433 217.548ZM70.7081 224.385C70.5212 224.385 70.0032 224.526 70.292 224.045C71.0562 223.464 70.7675 223.921 70.7081 224.385ZM80.1767 223.348C80.1767 223.639 79.9729 223.572 79.7436 223.348C79.8455 223.215 79.9729 223.215 80.1767 223.348ZM99.2328 209.823C98.9186 209.657 99.0799 209.74 99.2328 209.823V209.823ZM99.8017 209.973C99.7993 209.86 99.7639 209.751 99.6998 209.657C99.7423 209.856 99.6489 209.906 99.5215 209.898C99.6319 210.081 99.7423 210.197 99.8017 209.939V209.973ZM71.9054 201.559L71.7016 201.675C71.4384 201.501 71.6592 201.526 71.9054 201.559Z" fill="#A0D4FF"/>
<path d="M65.4401 223.16C65.3803 222.994 65.3335 222.823 65.3001 222.65C65.2709 222.739 65.2686 222.835 65.2935 222.926C65.3184 223.017 65.3693 223.098 65.4401 223.16Z" fill="#A9D8FF"/>
<path d="M87 226C86.5852 225.754 86.2411 225.41 86 225C86.1842 225.564 86.5 226 87 226Z" fill="#A0D4FF"/>
<path d="M101 210.527C102.148 211.308 102.443 210.944 103 210.688C101.557 209.565 101.295 210.046 101 210.527Z" fill="#A0D4FF"/>
<path d="M100 215.552C99.6009 215.388 99.264 215.202 99 215L99.9565 216L100 215.552Z" fill="#A0D4FF"/>
<path d="M81.5174 228.979C82.4275 229.151 81.0899 228.222 82 228.48C81.9311 228.172 81.2554 228.271 81.2278 228C81.0485 228.363 80.7038 228.234 81.5174 228.979Z" fill="#A0D4FF"/>
<path d="M25.9296 154.321L26.2196 153.821L25.6396 154.281L25.9296 154.321Z" fill="#A9D8FF"/>
<path d="M24.2803 154.131L25.4803 153.611L24.3003 153.791C24.3803 153.821 24.5403 153.971 24.2803 154.131Z" fill="#A9D8FF"/>
<path d="M26.6299 206.571L26.8399 206.321C26.9026 206.221 26.9297 206.102 26.917 205.984C26.9043 205.866 26.8525 205.756 26.7699 205.671L26.6299 206.571Z" fill="#A9D8FF"/>
<path d="M23.6201 198.991L23.6401 199.131L24.5901 198.341L23.6201 198.991Z" fill="#A9D8FF"/>
</svg>
