<svg width="106" height="94" viewBox="0 0 106 94" fill="none" xmlns="http://www.w3.org/2000/svg">
<path d="M50.4885 4.52184C50.9737 4.51374 50.7748 4.13268 50.8418 4.05706C50.0305 4.21476 50.5182 4.61011 50.4885 4.52184Z" fill="#FFCB40" fill-opacity="0.92"/>
<path d="M42.8358 6.53895L42.9195 6.35302L41.9297 6.98779L42.8358 6.53895Z" fill="#FFCB40" fill-opacity="0.92"/>
<path d="M35.9092 8.54637C36.3892 8.73329 36.9721 8.47661 37.6253 8.19631C38.2344 7.84636 38.9249 7.59888 39.6527 7.46971L39.9163 7.55688L40.2682 6.888C39.8985 7.01198 39.5065 7.16116 39.0969 7.31625C38.6872 7.47134 38.31 7.6623 37.9305 7.82016C37.5734 7.98074 37.2067 8.12684 36.8318 8.25789C36.5375 8.38027 36.2281 8.47701 35.9092 8.54637Z" fill="#FFCB40" fill-opacity="0.92"/>
<path d="M31.5183 8.70619C31.7083 8.76968 31.5313 8.90476 31.5322 8.91895C31.8091 8.73375 32.1027 8.56525 32.4107 8.41494C32.3473 8.42207 32.2835 8.42626 32.2196 8.42748C32.0734 8.48456 31.8691 8.5692 31.5183 8.70619Z" fill="#FFCB40" fill-opacity="0.92"/>
<path d="M32.2421 8.4165C32.9466 8.09485 31.6427 8.42259 32.2421 8.4165V8.4165Z" fill="#FFCB40" fill-opacity="0.92"/>
<path d="M29.106 10.0658C29.3432 9.84131 29.5929 9.62549 29.8549 9.41361C29.5579 9.36662 28.7317 9.75324 28.9553 9.50589C28.1189 10.1021 28.4206 10.1298 29.106 10.0658Z" fill="#FFCB40" fill-opacity="0.92"/>
<path d="M28.6084 10.9197L28.9889 10.5956C28.8683 10.5845 28.7331 10.6266 28.6084 10.9197Z" fill="#FFCB40" fill-opacity="0.92"/>
<path d="M29.8209 9.91435C29.529 10.1282 29.251 10.3696 28.99 10.5957C29.1892 10.6158 29.3509 10.7952 29.3843 10.2991C29.4401 10.5092 29.4881 10.2353 29.8209 9.91435Z" fill="#FFCB40" fill-opacity="0.92"/>
<path d="M30.4519 9.7257C31.044 9.61086 31.7545 9.37905 31.0041 10.0076C32.6541 9.10633 32.1318 8.82247 30.4519 9.7257Z" fill="#FFCB40" fill-opacity="0.92"/>
<path d="M35.8974 9.30662L36.6721 9.23204C36.8369 9.09302 36.9891 8.94532 37.1602 8.81063C36.9394 9.01031 35.7718 9.12967 35.8974 9.30662Z" fill="#FFCB40" fill-opacity="0.92"/>
<path d="M23.5428 12.9476C23.6062 13.0906 24.1493 13.0502 24.3299 13.1523L24.8064 12.6462C24.4063 12.7627 23.7435 13.0816 23.5428 12.9476Z" fill="#FFCB40" fill-opacity="0.92"/>
<path d="M24.3189 13.1529C24.0905 13.4196 23.8483 13.6587 23.6328 13.9387C24.4324 13.4209 24.4989 13.2456 24.3189 13.1529Z" fill="#FFCB40" fill-opacity="0.92"/>
<path d="M28.9736 11.6176C29.3722 11.2021 29.7635 10.7681 30.1925 10.36C29.6654 10.8267 29.1756 11.3147 28.6787 11.7842L28.9736 11.6176Z" fill="#FFCB40" fill-opacity="0.92"/>
<path d="M20.2181 15.3786L20.3999 14.7684L19.999 15.7871L20.2181 15.3786Z" fill="#FFCB40" fill-opacity="0.92"/>
<path d="M18.2291 17.1473C18.3056 16.6675 17.3302 17.2491 17.5245 16.8279C17.0955 17.3181 16.7892 17.8674 16.623 18.4446C16.9833 17.8959 17.5439 17.4431 18.2291 17.1473Z" fill="#FFCB40" fill-opacity="0.92"/>
<path d="M16.2705 19.2749C16.4098 19.0037 16.5278 18.7263 16.6238 18.4445C16.4511 18.7058 16.3318 18.9862 16.2705 19.2749Z" fill="#FFCB40" fill-opacity="0.92"/>
<path d="M22.1146 14.9404C21.9386 14.9145 21.7562 14.9207 21.5811 14.9585C21.406 14.9963 21.2427 15.0647 21.1034 15.1587L21.7772 15.1905C21.8857 15.1074 21.9945 15.029 22.1146 14.9404Z" fill="#FFCB40" fill-opacity="0.92"/>
<path d="M21.8023 15.1889L21.0869 15.7107L21.8023 15.1889Z" fill="#FFCB40" fill-opacity="0.92"/>
<path d="M22.2012 14.8836L22.1149 14.9408C22.1813 14.9458 22.2112 14.9439 22.2012 14.8836Z" fill="#FFCB40" fill-opacity="0.92"/>
<path d="M26.2875 12.7197C25.9184 13.2187 25.06 14.1203 26.3523 13.7078C26.5146 13.2556 25.7498 13.4815 26.2875 12.7197Z" fill="#FFCB40" fill-opacity="0.92"/>
<path d="M23.0752 14.9583L24.0505 14.3767C23.9441 14.3077 23.6565 14.3123 23.8073 14.0507L23.0752 14.9583Z" fill="#FFCB40" fill-opacity="0.92"/>
<path d="M22.7182 15.3568L23.0451 14.946L22.6816 15.1646L22.7182 15.3568Z" fill="#FFCB40" fill-opacity="0.92"/>
<path d="M17.98 18.2081C17.7633 18.6507 17.4536 19.0629 17.0645 19.4268C17.5868 19.0488 18.0752 18.6422 18.5259 18.2102C18.4804 18.066 18.4587 17.735 17.98 18.2081Z" fill="#FFCB40" fill-opacity="0.92"/>
<path d="M19.8212 16.7258L19.7666 16.8091C19.8434 16.79 19.8956 16.7631 19.8212 16.7258Z" fill="#FFCB40" fill-opacity="0.92"/>
<path d="M13.3818 23.605L13.5118 23.573L13.4483 23.5209L13.3818 23.605Z" fill="#FFCB40" fill-opacity="0.92"/>
<path d="M18.6778 18.1864C18.998 17.9987 19.2217 17.7249 19.3051 17.4187C19.0761 17.6759 18.8107 17.926 18.5295 18.2104C18.5574 18.2703 18.5894 18.3014 18.6778 18.1864Z" fill="#FFCB40" fill-opacity="0.92"/>
<path d="M15.364 20.5407C15.6349 20.4016 15.8953 20.2497 16.1438 20.0859C15.8501 20.1811 15.3201 20.4201 15.364 20.5407Z" fill="#FFCB40" fill-opacity="0.92"/>
<path d="M19.5424 16.8429L19.5805 16.7842C19.3854 16.8298 19.4401 16.8402 19.5424 16.8429Z" fill="#FFCB40" fill-opacity="0.92"/>
<path d="M19.5418 16.8428C19.4356 17.0277 19.3558 17.2209 19.3037 17.4187C19.4769 17.2244 19.6319 17.0206 19.7674 16.809C19.6939 16.8271 19.6181 16.8385 19.5418 16.8428Z" fill="#FFCB40" fill-opacity="0.92"/>
<path d="M15.217 26.1673C14.8294 25.9268 15.1311 24.8576 16.168 24.3005C16.4632 23.4074 14.7842 23.2279 13.5115 23.5726C13.6685 23.681 13.8237 23.761 13.4398 24.6742C13.8834 24.4884 15.3293 23.1257 15.194 23.9892C14.5912 25.1304 14.3819 24.7738 13.7801 25.1979C14.5936 24.9831 13.5668 26.8834 14.4954 26.9601L14.8715 25.9288C14.9758 25.9647 14.9309 26.376 15.217 26.1673Z" fill="#FFCB40" fill-opacity="0.92"/>
<path d="M14.8046 22.0631L15.0393 21.7106C14.6006 22.0618 14.0926 22.3536 13.5367 22.5737C13.286 23.2312 13.3462 23.4172 13.4495 23.5291C13.8874 22.9828 14.3624 22.453 14.8439 21.9324L14.8046 22.0631Z" fill="#FFCB40" fill-opacity="0.92"/>
<path d="M16.3412 20.2768C16.5174 20.7686 15.9909 21.6103 16.8711 21.4054C17.6924 20.4873 17.1282 20.5718 17.4706 19.9415C16.1683 21.48 17.6493 19.3742 16.4037 20.3154C16.5917 20.0111 16.8135 19.72 17.0663 19.4457C16.7515 19.6753 16.4547 19.9037 16.144 20.1045L16.1977 20.101C16.3096 20.0699 16.3634 20.0664 16.2634 20.0967C16.2634 20.0967 16.2653 20.1251 16.2659 20.1345C16.3081 20.181 16.3381 20.2339 16.3541 20.2902C15.8635 20.6738 16.1869 20.3012 16.2659 20.1345L16.2201 20.0758C15.8243 20.6241 15.4156 21.159 15.0625 21.7188C15.5223 21.257 15.9492 20.7755 16.3412 20.2768Z" fill="#FFCB40" fill-opacity="0.92"/>
<path d="M26.1059 14.9917C26.0822 14.9959 26.0578 14.995 26.0352 14.9889C26.0126 14.9828 25.9927 14.9719 25.9777 14.9573C25.9069 15.0665 25.8924 15.1196 26.1059 14.9917Z" fill="#FFCB40" fill-opacity="0.92"/>
<path d="M25.2033 15.2936C25.2309 15.1779 25.2896 15.0675 25.3753 14.9701C25.4611 14.8726 25.5718 14.7905 25.7 14.7292C26.1524 14.5855 25.8536 14.8758 25.9795 14.9672C26.1375 14.7242 26.6169 14.1704 25.6738 14.5125L25.598 14.6362C24.7689 14.9802 23.4928 15.2729 23.5561 15.1405C24.0801 15.2887 24.6429 15.3409 25.2033 15.2936Z" fill="#FFCB40" fill-opacity="0.92"/>
<path d="M20.7056 17.6781C20.3435 18.1007 19.9626 18.5103 19.5889 18.9385C19.9045 18.8133 20.2453 18.7055 20.5678 18.5941L20.3325 18.4813C21.1639 17.8997 20.7658 17.8641 20.7056 17.6781Z" fill="#FFCB40" fill-opacity="0.92"/>
<path d="M13.0447 23.6559L12.7248 23.2591L12.7773 24.3335L13.0447 23.6559Z" fill="#FFCB40" fill-opacity="0.92"/>
<path d="M11.8111 25.4315L11.4474 25.1894L11.3652 25.7646L11.8111 25.4315Z" fill="#FFCB40" fill-opacity="0.92"/>
<path d="M78.7441 78.9504L79.0574 78.607C78.9382 78.7126 78.8331 78.8278 78.7441 78.9504Z" fill="#FFCB40" fill-opacity="0.92"/>
<path d="M75.75 80.6902L75.8045 80.8813C75.8779 80.7198 75.8839 80.6292 75.75 80.6902Z" fill="#FFCB40" fill-opacity="0.92"/>
<path d="M12.6566 72.2049C12.7056 72.9519 12.6279 73.8687 13.0219 73.5674L13.3195 73.168C12.9933 72.9017 12.7646 72.5694 12.6566 72.2049Z" fill="#FFCB40" fill-opacity="0.92"/>
<path d="M46.7484 88.1777L46.5525 88.0243L45.9375 88.3401C46.1802 88.2909 46.4762 88.2335 46.7484 88.1777Z" fill="#FFCB40" fill-opacity="0.92"/>
<path d="M47.6498 86.5516L48.5725 86.9041C48.2838 86.7588 47.9743 86.6405 47.6498 86.5516Z" fill="#FFCB40" fill-opacity="0.92"/>
<path d="M90.879 66.2116L90.6778 65.6122C90.2652 66.2708 90.6843 66.0771 90.879 66.2116Z" fill="#FFCB40" fill-opacity="0.92"/>
<path d="M4.75625 45.0546C4.54931 45.5119 4.40733 45.9848 4.33301 46.4641C4.70787 45.7795 5.17092 45.2505 4.75625 45.0546Z" fill="#FFCB40" fill-opacity="0.92"/>
<path d="M80.8393 83.1145C81.0702 82.8857 81.1272 82.749 81.0449 82.6832C80.8081 82.9124 80.7045 83.0712 80.8393 83.1145Z" fill="#FFCB40" fill-opacity="0.92"/>
<path d="M4.30302 48.0997C4.35067 48.0004 4.39209 47.8994 4.42709 47.7971C4.335 47.3582 4.30565 46.911 4.33959 46.4638C4.19013 46.7229 4.10967 47.0023 4.10338 47.284C4.09708 47.5657 4.16508 47.8435 4.30302 48.0997Z" fill="#FFCB40" fill-opacity="0.92"/>
<path d="M76.6188 14.5923C76.582 14.5557 76.5493 14.5165 76.5212 14.4753C76.4699 14.5166 76.5262 14.5509 76.6188 14.5923Z" fill="#FFCB40" fill-opacity="0.92"/>
<path d="M57.8043 4.97722C58.1303 4.96493 58.456 4.97532 58.7779 5.00829C58.4611 4.94731 58.1303 4.93675 57.8043 4.97722Z" fill="#FFCB40" fill-opacity="0.92"/>
<path d="M7.4541 32.8022C7.59851 32.3892 7.44914 32.7266 7.4541 32.8022V32.8022Z" fill="#FFCB40" fill-opacity="0.92"/>
<path d="M10.2589 31.3979C10.2582 31.4433 10.2725 31.4877 10.3003 31.5267C10.3281 31.5657 10.3685 31.5979 10.4174 31.6202C10.3732 31.5939 10.3365 31.5607 10.3092 31.5225C10.282 31.4843 10.2649 31.442 10.2589 31.3979Z" fill="#FFCB40" fill-opacity="0.92"/>
<path d="M7.72115 52.0159L7.72363 52.0537C7.81568 51.9242 7.79925 51.9443 7.72115 52.0159Z" fill="#FFCB40" fill-opacity="0.92"/>
<path d="M7.92949 32.2538C7.79103 32.4119 7.66956 32.5787 7.56641 32.7524C7.70282 32.5933 7.82419 32.4266 7.92949 32.2538Z" fill="#FFCB40" fill-opacity="0.92"/>
<path d="M7.66699 32.2754L7.86621 31.9299C7.8075 31.8578 7.73771 31.8909 7.66699 32.2754Z" fill="#FFCB40" fill-opacity="0.92"/>
<path d="M7.22949 33.3772C7.31678 33.1555 7.42909 32.9399 7.56504 32.7331C7.49176 32.8044 7.45151 32.8308 7.44368 32.8028L7.22949 33.3772Z" fill="#FFCB40" fill-opacity="0.92"/>
<path d="M97.6377 39.804C97.6451 39.7743 97.6552 39.7451 97.668 39.7165C97.3688 39.361 97.439 39.5179 97.6377 39.804Z" fill="#FFCB40" fill-opacity="0.92"/>
<path d="M24.9768 77.5565C24.9768 77.5565 24.9419 77.5588 24.9244 77.5599L24.9626 77.6083L24.9768 77.5565Z" fill="#FFCB40" fill-opacity="0.92"/>
<path d="M26.4852 78.2393C26.1731 78.2692 25.8598 78.223 25.5874 78.1067C25.3151 77.9905 25.0965 77.8099 24.9612 77.589L24.3311 78.77C25.0638 78.6032 25.7767 78.4092 26.4852 78.2393Z" fill="#FFCB40" fill-opacity="0.92"/>
<path d="M84.973 73.9074C84.5944 74.0795 84.2279 74.2507 83.8359 74.3999C84.2213 73.1448 85.0397 72.64 83.8443 72.9749C83.9719 73.0895 84.0467 73.2358 84.0568 73.3906C84.067 73.5455 84.012 73.7002 83.9004 73.8306C83.626 74.1932 83.3045 74.5326 82.9414 74.8432C82.2023 75.5518 81.3812 76.1992 81.8647 76.7136C81.6007 76.8021 81.3363 76.8859 81.0594 76.9611C81.2376 76.8449 81.2035 76.7807 81.3755 76.6602C80.5488 76.8569 80.5347 77.1902 80.5174 77.5665C80.545 77.8278 80.4755 78.0921 80.3172 78.3269C80.1589 78.5618 79.9188 78.7568 79.6266 78.888C79.0035 79.1711 78.4823 79.2717 78.7287 78.9137C78.422 79.2662 78.0839 79.597 77.7398 79.9283C77.3568 80.1244 77.2816 79.8919 77.6646 79.6958C77.0558 80.1061 76.4467 80.5117 75.7993 80.8819L75.7968 80.844C75.5745 81.2619 75.2993 81.6618 74.9756 82.0375C74.3281 82.1323 75.1518 81.7981 74.9133 81.7282L73.9651 82.5407C73.2952 82.4755 74.039 81.7476 74.8448 81.4146C73.9025 81.1298 73.7276 81.298 73.4364 81.6115C73.2649 81.8094 73.0533 81.9838 72.8105 82.1274C72.3637 82.3392 71.8669 82.4723 71.3549 82.5173L72.3409 81.9161C71.2202 81.5623 70.5591 82.1802 69.1031 82.1998C69.3045 82.253 70.0628 82.2935 70.645 82.393C71.2273 82.4925 71.6275 82.6514 71.0907 83.0617C70.514 83.1378 69.987 83.3806 69.6122 83.7428C69.3755 83.3358 68.7631 83.6894 67.9064 83.9782L67.6945 83.3986C66.8544 83.8479 67.065 84.1332 66.6118 84.5381C66.2753 84.6355 65.9111 84.6435 65.5753 84.5609C65.2394 84.4783 64.9504 84.3096 64.7527 84.0808C63.0337 84.3883 66.1913 84.5277 64.2201 85.1034C62.7153 85.2021 61.791 85.6474 60.0984 86.2666C59.0265 86.1992 60.211 85.8793 59.8132 85.7582L58.95 86.4037C58.7231 86.4186 58.7729 86.2634 58.7978 86.1858C58.0549 86.4719 58.8378 86.7957 57.6028 87.0762C57.4693 87.4173 56.7928 87.2528 55.9947 87.063C55.1966 86.8732 54.2678 86.7015 53.4947 87.0751C53.1174 86.9004 53.6861 86.7017 53.5747 86.4668C52.5173 86.7119 52.0685 86.8173 51.6608 86.9106C51.0884 87.056 50.525 87.2245 49.9727 87.4155C49.4895 87.2715 49.0211 87.0791 48.5599 86.9052C49.5613 87.452 48.0965 87.8853 46.7364 88.1787C47.0016 88.3986 47.2896 88.6004 47.5976 88.7822C46.899 88.8281 46.1978 88.8361 45.4913 88.854C45.2727 88.7211 45.5372 88.5471 45.9261 88.3506C45.7768 88.3604 45.6363 88.4123 45.5184 88.4438C44.8619 88.126 45.3344 87.8339 45.9227 87.5673C46.1303 87.7151 46.3388 87.8771 46.553 88.034C47.1337 87.7443 47.661 87.3725 47.6315 87.0136C47.4197 87.084 47.1914 87.1136 46.9655 87.1C47.1161 87.0189 47.2129 86.9413 47.1665 86.8731C47.12 86.805 46.8918 86.8912 46.5403 87.0187L46.2767 86.2905L46.1011 86.5395C45.3062 86.3067 44.5425 86.0007 43.7878 85.7416C42.8043 85.9249 41.8507 86.1062 40.739 86.2551C39.4644 86.3834 38.1782 86.3063 36.9579 86.0284C37.8959 85.7912 37.5116 85.3273 37.8606 84.7963C38.2687 85.6242 40.0516 85.1938 41.3897 85.6616C40.6787 85.4281 40.9684 85.1811 41.1881 85.1477C40.2968 85.0923 39.3836 85.0667 38.466 84.975C38.7555 84.5429 38.127 84.4702 37.6038 84.0819C37.5768 85.1331 35.4659 84.037 34.3346 83.8881C34.476 83.5749 34.9026 83.4045 36.021 83.9056C35.5761 83.3413 35.0009 83.4408 34.4195 83.5359C33.838 83.631 33.2317 83.7136 32.7881 83.1681C33.0778 83.2868 33.1987 83.3928 33.3964 83.2991C32.5375 83.2795 31.1352 82.2889 31.6899 82.243L31.9682 82.372C31.7502 82.2486 31.5017 82.1177 31.2347 81.9785L30.3888 81.5165C30.0967 81.3599 29.7687 81.2058 29.4769 81.054C29.1851 80.9022 28.8565 80.7386 28.5712 80.5958C27.3354 80.0407 26.298 79.5864 25.828 79.8262C26.2138 79.5659 26.636 79.3421 27.0856 79.1596C26.2299 79.1873 25.3559 79.2114 24.497 79.1918C23.6381 79.1722 22.7321 79.1652 21.8585 79.1038C22.7255 78.7905 23.3025 76.8913 24.9072 77.5837C24.5385 77.0715 23.9967 76.6538 23.3407 76.3759C23.4837 76.6372 23.0235 77.5743 22.6309 77.3484C22.4267 76.0655 22.3852 76.5288 21.9463 75.1426C22.1528 75.5469 20.7097 75.9455 20.2063 75.404C20.4452 75.3883 21.2132 74.6637 21.5082 74.7725C20.7403 74.5855 19.9605 74.3993 19.1668 74.1854C19.6896 74.3838 20.1229 73.6763 20.1639 73.2036C20.0791 73.4655 19.1485 72.0783 18.7392 71.7823C18.8031 72.025 18.8957 72.2469 18.9775 72.4884C18.7691 72.1956 18.4821 71.9438 18.1361 71.7501C17.7902 71.5565 17.3934 71.4256 16.9728 71.3664C16.5393 71.3094 16.1307 71.1748 15.7778 70.9726C15.4248 70.7704 15.1367 70.506 14.9351 70.1991C15.3247 70.2875 16.7665 69.9602 16.326 69.0964C15.4661 69.0295 14.6172 68.9041 13.7886 68.7216C12.6479 68.5015 11.6226 68.0211 10.8373 67.3389L11.0186 66.9043L9.95889 65.8343C10.6448 66.0504 11.7364 66.5106 12.8992 66.9566C13.4719 67.1849 14.0389 67.4184 14.557 67.636C15.075 67.8537 15.5614 68.045 15.9207 68.2208C15.8013 67.4974 16.2161 67.8785 15.6003 66.993C15.669 66.7606 15.8656 66.8331 16.0742 66.9952C16.2786 67.1529 16.4592 67.329 16.6124 67.5201C16.2 66.8112 15.9172 66.0653 15.5341 65.3449C14.8336 65.728 13.9139 63.9602 13.3336 64.2548C13.98 64.9673 14.6737 65.6673 15.401 66.3318C15.0655 66.52 14.35 66.4008 13.5785 65.9766C12.7469 65.5073 12.1253 64.8419 11.7982 64.0706C11.9146 63.5596 13.2832 63.9447 13.5149 63.8202C13.1656 63.7055 12.3231 62.4739 12.4414 62.2667L13.1553 62.8182C13.0216 61.8773 11.5253 61.6479 11.7953 60.3718C11.7033 59.9742 12.4134 59.0064 11.9306 59.0524C11.2461 59.8618 8.55845 60.6697 7.74191 60.3814C7.73695 60.3058 7.78269 59.7235 7.86147 59.0963C7.92138 58.5642 8.05785 58.0374 8.26819 57.5263C8.81692 56.7496 10.2126 58.1869 10.6664 57.5161C10.4454 57.5306 10.084 57.2315 9.96057 57.0876C10.0395 56.6456 10.6532 57.1324 10.3506 56.269C9.51596 56.2526 10.0326 54.438 9.58063 55.9587C9.17719 55.1115 9.51857 55.0131 9.33591 53.9662C8.88271 54.3711 7.38775 53.2488 7.06985 52.3343C7.28195 52.3678 7.53073 52.1378 7.6493 52.0256C7.61827 51.5528 7.6271 51.1391 7.63182 50.7541C7.63655 50.3692 7.70284 50.0087 7.73959 49.6549C7.77634 49.3011 7.81341 48.9521 7.83729 48.5849C7.86117 48.2177 7.91335 47.8249 7.92691 47.3919C8.12598 47.2269 8.37839 46.4126 8.72443 46.7508C8.47267 46.4547 8.34095 46.1028 8.34627 45.7404C9.13215 44.7392 8.36382 46.9216 9.27301 46.1544C8.81864 46.0846 8.69623 44.7678 8.5322 44.0046C7.74134 44.1989 8.23405 45.7668 8.46913 46.5159C7.96536 46.5157 7.47569 46.1822 7.06606 45.606C6.84636 45.2756 6.66886 44.9278 6.53613 44.5677C6.38944 44.1368 6.29417 43.6948 6.25157 43.2473C6.20633 41.7355 6.98588 42.6483 6.87832 42.3799C7.16001 41.5102 7.10244 40.6011 6.71331 39.7744C6.53779 39.4209 6.47068 39.037 6.5174 38.6537C6.56412 38.2705 6.72336 37.8985 6.98229 37.5677C7.88869 36.758 8.24048 37.7321 8.78364 37.6015C8.72071 38.0936 8.54936 38.5758 8.27742 39.026C8.01362 39.39 7.81511 39.7804 7.68782 40.1853L8.22508 39.2336C8.3446 39.7719 8.27979 40.3302 8.03736 40.8509C8.28561 40.5295 8.46533 40.1791 8.56902 39.8141C8.74699 39.3275 8.88076 38.7157 9.09626 38.07C9.43753 36.7986 9.9747 35.5608 10.6955 34.3848C10.6688 33.9782 10.6967 33.3068 10.3282 33.5399L10.1378 34.203C9.38948 34.6794 9.98123 32.822 9.40171 33.5865C9.3887 33.0688 9.41674 32.5499 9.48567 32.033C9.59154 31.4386 9.84982 30.864 10.2445 30.345L11.0415 30.3354C10.8168 30.2932 10.2335 31.001 10.2719 31.4021C10.2526 31.109 10.6876 30.7005 11.1106 30.2929C11.5337 29.8853 11.8646 29.4457 11.579 29.0228L10.6463 29.7061C10.7287 29.2258 10.7148 28.6475 10.8391 28.0742C10.939 27.4906 11.2058 26.9289 11.6189 26.4323C10.6687 26.6657 11.5407 26.7034 10.3065 27.1785C10.9861 27.0247 10.5327 27.7002 10.1487 28.338C9.76479 28.9757 9.4563 29.5753 10.2599 29.2091C9.72662 29.3958 9.28439 29.7197 9.00675 30.1271C8.713 30.5763 8.30866 30.9761 7.81846 31.302C8.06011 31.3288 8.40133 31.0453 7.86097 31.9497C7.91248 32.0327 7.9486 32.1215 7.96823 32.2133L7.92418 32.2732L7.97514 32.2271C7.97855 32.2791 7.97886 32.2838 7.97514 32.2271C8.11804 32.0581 8.31711 31.9232 8.54931 31.838C8.85301 32.4449 8.19402 33.9174 8.27903 34.4817C7.9662 35.015 8.10391 34.1892 7.74261 34.4409L7.87609 35.2868C7.33401 35.2512 6.46423 36.6188 6.67219 35.2186C6.51252 35.6185 6.35882 36.0179 6.22963 36.4253C5.67321 37.1167 5.37379 37.9142 5.36693 38.7232C5.11064 39.2955 5.58814 40.2661 5.29979 39.7105C5.24676 40.3645 5.26004 41.0236 5.23686 41.6757L5.09952 41.6847C4.9972 42.1689 4.95301 42.6584 4.96756 43.1464C5.00014 43.6428 4.96735 44.1483 4.98892 44.6597C5.00903 45.1791 4.97908 45.7001 4.8993 46.2183C4.82307 46.7661 4.66739 47.3069 4.43535 47.83C4.62403 48.6143 4.68881 49.417 4.62819 50.22L4.17011 50.459C4.35578 51.2778 3.91719 53.0018 4.43989 53.2903C3.87378 53.8023 3.94142 54.8331 4.22148 55.9021C4.36434 56.434 4.54396 56.9778 4.69721 57.4853C4.85847 57.9198 4.97786 58.3643 5.05436 58.8151L5.64995 58.7523C5.76006 59.2512 5.93673 59.7378 6.17701 60.204C6.4189 60.6914 6.6746 61.2065 7.01731 61.768L7.50176 61.5653C7.90699 62.1309 8.15287 62.7622 8.22303 63.4173C8.36483 64.2285 8.61801 65.0223 8.97811 65.7847C8.72987 65.7487 8.57088 65.3366 8.5677 65.0139C8.51339 65.5506 8.63951 66.0848 8.93314 66.5616C9.2068 67.0471 9.55488 67.5026 9.96972 67.9181C10.3751 68.3379 10.7619 68.7493 11.0953 69.169C11.4507 69.5644 11.6858 70.0215 11.7828 70.5057C12.1268 70.7592 12.3586 71.0944 12.4454 71.4641C12.4176 71.432 12.3834 71.4037 12.3439 71.3806L12.4626 71.5437C12.4766 71.7565 12.5508 71.9748 12.6201 72.2077C12.6192 72.012 12.5883 71.8179 12.5282 71.6296C12.8414 72.0272 13.2073 72.3963 13.62 72.7308L13.283 73.1708L13.3791 73.2642C13.5575 73.7891 13.8975 73.4866 14.0738 73.0667C14.3034 73.2348 14.5608 73.3775 14.8393 73.4913C14.333 74.2748 16.0654 74.446 15.6706 75.3741C15.9098 75.4367 16.1234 75.5468 16.2913 75.6942L17.1701 76.2918C17.7983 76.7254 18.4696 77.085 19.0096 76.9071C18.925 76.9886 19.0245 77.134 18.7648 76.9232C19.0728 77.4272 19.563 77.844 20.1748 78.1222L19.8412 78.7044L21.6637 79.0596C21.9974 79.8497 22.1351 80.211 21.0365 80.0125C21.7007 80.2206 22.3393 80.4742 22.9454 80.7704C23.4746 81.0371 24.0614 81.2268 24.6794 81.3309L24.2992 81.5695C24.647 81.7485 25.0186 81.8976 25.4079 82.0143C25.8066 82.1496 26.1515 82.2884 26.1963 82.5134C26.5216 83.1758 28.0532 84.1247 29.9619 85.063C30.8993 85.5476 31.9602 85.9955 32.9695 86.4801C33.9788 86.9647 34.9744 87.4217 35.8429 87.8632C35.7658 87.2368 36.1361 87.4879 36.6013 87.8135C36.8204 87.9797 37.0655 88.1231 37.331 88.2404C37.5701 88.3197 37.7857 88.315 37.9232 88.1256C38.0272 88.4321 38.5019 88.7191 37.7671 88.7626C38.6079 88.9164 39.4255 89.1347 40.2087 89.4143C40.8582 89.6654 41.6115 89.7077 42.3154 89.5325C42.461 89.8316 41.7347 89.8223 41.8986 90.0347C42.0897 90.0221 42.6297 89.9345 42.7983 90.1276C42.9669 90.3207 42.4248 90.2851 42.0561 90.333C43.1292 90.5095 43.7823 90.4096 44.1983 90.1687C44.5836 89.9034 44.8618 89.5539 44.9961 89.1666C45.9514 89.65 46.501 89.7089 47.3659 89.2722C47.6781 89.5509 48.2564 89.8643 46.923 89.8331C47.2919 89.8802 48.3973 90.0925 49.4519 90.1705C50.5065 90.2485 51.4811 90.2035 51.5392 89.9005C51.7596 90.0618 52.574 89.9513 52.7673 89.8817C53.9004 89.9395 55.0411 89.9139 56.1747 89.8052L55.7197 89.7259C56.3187 88.9838 57.0467 89.4774 58.341 89.2784L58.3158 89.3513C59.8409 89.4697 60.1553 89.3256 60.4618 89.2437C60.7682 89.1619 61.0511 89.0863 62.5935 89.1038L62.3265 88.6892C62.341 88.1802 63.0097 88.2265 63.8761 88.2694C64.7425 88.3123 65.8386 88.3828 66.5851 87.9681L65.9076 87.8797C66.2912 87.6028 67.0205 87.7496 67.8069 87.9449C68.4632 88.1753 69.1781 88.2902 69.9041 88.2821C70.1388 88.2952 69.649 88.5078 69.395 88.6574C72.0536 88.4117 69.4549 88.0172 71.1346 87.2944C71.6081 87.4723 71.11 88.1983 72.3259 87.8098C72.6801 87.8151 73.4175 87.2633 74.2363 86.673C74.651 86.3701 75.0916 86.0904 75.5548 85.8362C75.9654 85.5893 76.442 85.4228 76.9442 85.3509C76.4553 85.3023 75.9776 85.2434 76.6094 84.7271C77.3442 84.4086 78.1115 84.1421 78.902 83.9309C79.7599 83.6609 80.4953 83.2612 80.6963 82.6687C80.8874 82.6562 80.9829 82.6499 81.0347 82.7083C81.7053 82.0517 83.3723 80.7695 83.4495 80.1186C83.7096 80.182 83.9894 80.184 84.2557 80.1244C84.5219 80.0648 84.7632 79.9462 84.9508 79.7827C85.4572 79.3772 85.9103 78.9321 86.3029 78.4546C87.1186 77.4514 87.7901 76.5336 88.4685 77.0019C89.1023 76.3335 89.786 75.6951 90.3765 75.0058L90.4757 75.1465C91.7988 73.9248 91.8261 73.244 91.8559 72.601C92.2172 72.3494 92.1704 72.6421 92.2288 72.7095C94.1386 70.9222 94.2224 70.646 94.5999 68.6317L95.2438 68.6654C95.2243 68.3675 95.9247 67.709 96.6696 66.8149C97.0594 66.3332 97.4132 65.8343 97.729 65.3209C98.0346 64.778 98.2453 64.2065 98.3552 63.6226C98.4068 63.6605 98.4459 63.7079 98.4692 63.7609C98.4925 63.8138 98.4994 63.8709 98.4892 63.9272C98.7526 62.6421 99.7434 61.2902 100.423 60.0443C100.76 59.4997 100.981 58.917 101.078 58.3204C101.132 58.0901 101.11 57.8546 101.016 57.6363C100.922 57.418 100.758 57.2242 100.54 57.0736L100.428 55.3715C99.7429 57.4441 99.5853 54.952 99.0205 55.7583C99.123 54.9443 100.086 53.7225 100.027 54.7425L99.8871 54.8895C100.927 55.3863 100.791 52.3134 101.523 52.4079C102.093 48.2061 102.556 44.0256 101.911 40.0366L101.115 40.6064C101.084 40.1336 100.971 39.6994 100.9 39.2483C101.03 38.8598 101.461 38.6606 101.645 39.6409C102.026 39.0509 100.894 38.071 100.697 38.0839C100.54 36.1427 101.897 38.6415 101.758 38.0666C101.674 37.8014 101.573 37.5421 101.484 37.282L101.431 37.4802C100.902 36.9072 100.537 36.9216 100.239 35.7683C100.189 35.0071 100.638 35.2673 100.572 34.9867C100.638 34.9824 100.63 34.8737 100.453 34.5434C100.301 33.9693 100.103 33.4125 99.904 32.851L99.5032 33.6893C98.8909 33.041 98.9275 32.1364 98.4804 33.0917C98.6542 32.5682 98.6391 32.021 98.4368 31.5133C98.2212 30.7848 97.9237 30.075 97.548 29.3921L96.9876 28.3463L96.4299 27.4332C96.1822 27.0616 95.9875 26.6684 95.8492 26.2605C95.3257 25.8907 94.8718 25.4634 94.5004 24.9909C94.1111 24.5417 93.741 24.0199 93.3496 23.4473C93.4323 23.7932 92.9061 24.2741 92.2486 23.3011C93.8859 22.9372 91.4505 21.2832 91.6671 20.0154C91.6535 20.5386 91.0588 19.8844 90.3766 19.3593C89.6945 18.8343 89.1113 18.355 89.1622 19.1304C88.5104 18.3375 89.5946 18.7744 89.3058 18.0288C88.7096 17.6721 88.1643 17.2655 87.6789 16.8156C87.1463 16.3757 86.6341 15.8822 86.1088 15.3706C85.5834 14.859 85.0056 14.3699 84.4092 13.8725C83.7868 13.3842 83.1199 12.9329 82.4135 12.5219C82.2346 12.6287 82.4941 13.1102 81.7038 12.9484L80.8755 11.3836C80.2293 11.1316 79.6315 11.8926 79.0048 10.8415C79.054 11.0425 79.1213 11.3372 78.6969 11.1752C76.1409 9.32958 72.844 8.16417 69.488 7.28755C66.1321 6.41092 62.7118 5.7427 59.2718 4.68166C60.1806 5.09684 59.5308 5.06352 58.7954 5.00732C59.2592 5.12883 58.7143 5.41626 58.7716 5.64992C57.8347 5.35527 56.8723 5.12878 55.8895 4.86565C55.5923 5.17956 54.8013 5.18874 54.0341 5.19635C53.267 5.20396 52.5265 5.25256 52.3842 5.55155L53.3159 5.40019C52.6936 5.78766 53.1367 6.1432 53.6801 6.56338C54.2234 6.98357 54.8647 7.43531 54.75 7.8797C54.9138 7.78819 55.1002 7.72636 55.2956 7.69875C55.4909 7.67113 55.6903 7.67843 55.879 7.72012C56.3263 7.82278 56.7619 7.95294 57.1819 8.10945C57.4107 8.18723 57.6453 8.25428 57.8847 8.31025C58.1204 8.38101 58.3649 8.43334 58.6147 8.46652C59.166 8.53165 59.7347 8.4544 60.2374 8.24606C60.6492 8.48969 59.7796 8.48978 59.9818 8.73767C60.5609 8.42426 61.2508 8.42647 62.3825 8.7653L62.2253 8.83735C63.0429 8.95938 63.7354 9.09437 64.3682 9.23327C65.001 9.37218 65.5486 9.58316 66.1189 9.77366C67.2427 10.1747 68.3783 10.6653 69.9887 11.3526L69.9561 10.8561C70.3767 11.023 70.7366 11.2699 71.0048 11.5755C71.5945 11.4229 71.1076 11.2221 70.6021 11.0132C70.0966 10.8042 69.5559 10.607 70.1419 10.3976C70.3741 10.7379 70.7251 11.0161 71.1541 11.2001C71.6454 11.467 72.2889 11.6764 72.871 11.9564C73.4332 12.1882 73.9668 12.4598 74.4655 12.7682C74.6521 12.8633 74.808 12.9912 74.9217 13.1424C75.0354 13.2935 75.1041 13.4641 75.1225 13.6415C76.1513 14.1485 75.1856 13.0485 76.2153 13.5698L76.2825 13.9547L76.7993 13.7879C77.4275 14.2215 77.4884 14.6923 77.3324 14.8735C77.1192 14.7658 76.8901 14.6789 76.6497 14.6144C76.8218 14.808 77.0356 14.9755 77.2819 15.1095C77.5407 15.264 77.8124 15.4048 78.0952 15.5309C78.509 15.6877 78.8947 15.8857 79.2433 16.1204C78.994 15.8851 78.7286 15.6793 78.4661 15.4259C79.9518 16.1968 81.3338 17.0843 82.5921 18.0753C83.8942 19.0915 85.1721 20.1045 86.4671 20.9217L86.5201 20.6333C87.1533 20.9814 87.6559 21.4575 87.9781 22.0144C88.3089 22.6149 88.7495 23.1714 89.286 23.6665L89.1817 23.6306C89.7739 23.9228 90.2603 24.3299 90.5968 24.815C89.9751 24.4807 90.7378 25.9596 89.9755 25.4921C90.3704 25.909 90.8475 26.2719 91.3894 26.5674C91.8732 26.682 92.3296 26.8554 92.7426 27.0816L92.5448 27.541C93.1986 27.8162 93.3884 27.7848 94.0928 28.7404C93.2625 28.0589 93.8561 29.6107 92.8608 28.883C93.0032 29.7886 93.4505 30.6398 94.156 31.3479C94.6382 31.9336 94.9936 32.4136 94.5527 33.0978C96.1663 33.7421 94.3398 31.0414 94.8388 31.5168C94.998 30.927 96.0743 32.0672 96.2783 32.7993C96.4157 33.1559 96.1548 33.5672 95.9557 34.0978C95.6999 34.7733 95.6824 35.486 95.905 36.1572C95.8573 35.9799 95.7621 35.9909 95.7085 35.814C95.63 36.5361 96.5614 37.0211 96.2683 37.9473C97.1232 38.271 96.5245 39.0178 97.4705 38.9937C97.2786 38.446 97.0336 37.9113 96.8182 37.3698C97.1497 37.8361 97.5116 38.2878 97.9025 38.7232C98.3321 39.304 98.5152 39.9833 98.4257 40.6642C98.1097 40.4262 97.8515 40.1441 97.6634 39.831C97.4794 40.3179 98.0435 40.6893 97.8196 41.2073C97.3394 41.2008 97.2164 40.6961 97.0506 40.0897C96.8849 39.4833 96.7589 38.7508 96.2567 38.3184C96.0224 38.8608 97.3573 40.1028 96.2483 39.7435C96.9608 40.0006 97.0327 40.4565 97.0427 40.9734C96.9505 41.5732 97.1484 42.1713 97.5962 42.6465L96.9951 42.6242C97.2246 42.9006 97.376 43.2144 97.4393 43.5447L96.6453 42.9606C97.3611 43.906 96.2999 44.9158 96.6486 45.8426C96.5834 44.8497 96.7671 44.7237 96.9961 44.7419C97.2252 44.7601 97.5173 44.9166 97.6862 44.4735C98.5505 46.9524 96.3163 45.9879 96.5377 48.7227C96.4655 48.3523 96.9072 47.3166 97.1553 47.8987C97.0887 48.1862 97.0012 48.471 96.8935 48.7516C96.7937 48.9974 96.645 49.2301 96.4529 49.4405C96.435 51.2698 97.0352 49.1744 97.3507 49.9609C97.205 50.0559 97.1083 50.19 97.0801 50.3363C97.0519 50.4826 97.0942 50.6303 97.1985 50.7496C97.4276 51.043 97.5853 51.3691 97.6635 51.7115L97.0918 51.6826C96.7701 52.7198 97.0386 52.8826 97.3053 53.0171C97.572 53.1515 97.8315 53.2675 97.425 54.2011L96.768 53.3278L96.7797 54.3289L96.1624 54.0608C96.4393 55.1727 96.1839 55.4839 95.7644 56.4943C96.2265 56.3168 96.7491 56.7858 96.4743 57.7156C95.9122 58.289 96.0551 57.2682 95.7218 58.5864C95.4823 58.227 95.1266 57.8325 95.8152 57.3599C95.6534 57.2708 95.5528 57.0163 95.3901 56.913C94.8296 57.5101 94.7963 58.5569 94.6105 59.0155C94.6749 58.8377 94.7797 58.6698 94.9198 58.5203C94.9633 59.1823 95.0077 59.8584 94.986 60.5341C94.6599 60.7739 94.5942 60.5028 94.523 60.2416C94.5131 60.6608 94.4644 61.0798 94.3774 61.4952C93.9952 61.2449 93.5276 61.1569 93.6427 60.3516C93.5504 60.9559 93.5015 61.5812 93.3734 62.1879C93.1257 62.2516 92.425 62.9054 92.3715 62.6383C92.1921 62.8756 92.0708 63.1366 92.0141 63.4072C91.9193 63.6983 91.8624 64.0202 91.7896 64.3716C91.718 65.0511 91.4149 65.708 90.9127 66.2716C90.9583 66.4463 90.9369 66.6296 90.8513 66.7979C90.4307 67.3336 89.9102 67.8094 89.4695 68.3131C88.941 68.8541 88.5605 69.4748 88.3536 70.1338L87.0623 70.4702C86.3992 71.5156 88.7512 69.9795 87.619 71.7347C86.7827 72.9719 86.6517 71.7982 86.1077 72.0998C86.0186 72.5839 85.848 73.0583 85.6006 73.5101C85.3062 74.0818 84.7513 74.5496 84.0492 74.818C84.3357 74.5014 84.6441 74.1974 84.973 73.9074ZM71.129 83.0972C71.3907 82.8806 71.8361 82.3575 72.2172 82.4987C72.1674 83.1098 71.7397 82.9907 71.129 83.0972ZM44.284 86.9056C44.5889 86.8001 44.9596 86.9658 45.3702 87.1905C44.9781 87.1804 44.6013 87.0816 44.284 86.9056ZM6.25113 37.3926L6.25362 37.4304C5.85145 38.0646 6.01663 37.84 6.26308 37.3918L6.25113 37.3926ZM6.92417 36.0426C6.91393 35.8865 6.81179 35.8838 6.71276 35.9282C6.82266 36.0492 6.74131 36.3632 6.58451 36.7154C6.77754 36.641 6.92883 36.4791 6.93611 36.0418L6.92417 36.0426ZM100.283 34.8822L100.225 35.1804C99.8755 34.6098 100.077 34.7533 100.295 34.8814L100.283 34.8822Z" fill="#FFCB40" fill-opacity="0.92"/>
<path d="M47.536 86.7395C47.6027 86.8165 47.6361 86.9091 47.6313 87.0039C47.7888 86.9366 47.8071 86.8499 47.536 86.7395Z" fill="#FFCB40" fill-opacity="0.92"/>
<path d="M90.9152 66.3233C90.9152 66.3233 90.9152 66.3233 90.9483 66.2878C90.9354 66.2571 90.9109 66.2306 90.8783 66.2117L90.9152 66.3233Z" fill="#FFCB40" fill-opacity="0.92"/>
<path d="M10.8983 56.931C10.9038 57.1237 10.8506 57.3162 10.7432 57.4919C10.8742 57.4786 10.9671 57.3396 10.8983 56.931Z" fill="#FFCB40" fill-opacity="0.92"/>
<path d="M9.27236 28.59L8.92969 29.491C9.05802 29.2194 9.2662 28.9744 9.53651 28.7769C9.40328 28.7571 9.13417 28.8603 9.27236 28.59Z" fill="#FFCB40" fill-opacity="0.92"/>
<path d="M17.2434 23.0475C17.2762 22.9077 17.4321 22.8167 17.4593 22.682L17.2196 22.5932C16.842 23.0549 16.7477 23.4457 17.2434 23.0475Z" fill="#FFCB40" fill-opacity="0.92"/>
<path d="M11.4569 28.4183C11.9307 28.5106 12.098 27.9536 12.3767 27.356L12.3172 27.4548C11.8172 27.0556 11.6344 27.7418 11.4569 28.4183Z" fill="#FFCB40" fill-opacity="0.92"/>
<path d="M12.4443 27.2183C12.5258 27.0342 12.6351 26.8579 12.7697 26.6936C12.5731 26.5308 12.5722 26.8822 12.4443 27.2183Z" fill="#FFCB40" fill-opacity="0.92"/>
<path d="M7.26701 34.2297C7.4954 33.9631 6.74214 33.9081 6.99713 33.7726C6.52421 33.3288 6.98151 35.9104 7.26701 34.2297Z" fill="#FFCB40" fill-opacity="0.92"/>
<path d="M13.175 28.4855L12.5094 28.4865L12.75 28.955L13.175 28.4855Z" fill="#FFCB40" fill-opacity="0.92"/>
<path d="M10.3728 32.8528C10.5509 32.5515 10.7658 32.262 10.9684 31.9685C10.8669 31.9752 10.8689 31.8231 10.9008 31.6691C10.5898 32.2308 10.1852 32.8272 10.3728 32.8528Z" fill="#FFCB40" fill-opacity="0.92"/>
<path d="M10.9004 31.6692C11.0502 31.4256 11.1428 31.1636 11.1735 30.8963C11.0549 31.1479 10.9635 31.4065 10.9004 31.6692Z" fill="#FFCB40" fill-opacity="0.92"/>
<path d="M12.6171 29.7615L12.3561 29.9876L11.959 30.6072L12.6171 29.7615Z" fill="#FFCB40" fill-opacity="0.92"/>
<path d="M7.25442 43.1669L7.28306 44.2429C7.47058 44.3588 7.638 44.0772 7.61163 43.6753C7.49871 43.4168 7.47233 43.0149 7.25442 43.1669Z" fill="#FFCB40" fill-opacity="0.92"/>
<path d="M9.45918 40.1399C9.2726 40.4038 9.12867 40.4037 8.88593 40.5431L9.61305 40.6568C9.55977 40.4846 9.51843 40.3117 9.45918 40.1399Z" fill="#FFCB40" fill-opacity="0.92"/>
<path d="M9.07089 43.1713C9.26469 43.2915 9.45898 44.6986 9.58924 43.3937C9.40172 43.2778 9.36897 42.2305 9.07089 43.1713Z" fill="#FFCB40" fill-opacity="0.92"/>
<path d="M9.33516 58.8856C9.30191 58.8017 9.27429 58.7163 9.25241 58.6298L8.07178 58.9163L9.33516 58.8856Z" fill="#FFCB40" fill-opacity="0.92"/>
<path d="M18.5901 70.3341C18.0555 69.2248 17.7566 70.4268 17.3806 69.3593C16.9533 69.2449 17.6841 70.2368 17.2851 70.0968C18 70.5722 18.1442 70.9426 18.5901 70.3341Z" fill="#FFCB40" fill-opacity="0.92"/>
<path d="M17.2834 70.0827C17.1597 69.9969 17.0283 69.9183 16.8902 69.8474C17.0047 69.9417 17.1373 70.0211 17.2834 70.0827Z" fill="#FFCB40" fill-opacity="0.92"/>
<path d="M53.8769 4.36581C53.5124 4.29476 53.1492 4.24263 52.7859 4.19049C53.0203 4.28907 53.2544 4.38293 53.4893 4.49097L53.8769 4.36581Z" fill="#FFCB40" fill-opacity="0.92"/>
<path d="M51.8186 5.15166L51.5391 4.54796L50.9176 5.13007C51.1552 5.09548 51.6235 5.01252 51.8186 5.15166Z" fill="#FFCB40" fill-opacity="0.92"/>
<path d="M68.1146 82.8576L68.1248 83.0136C68.3297 83.1189 68.5425 83.0717 68.9549 82.9591C68.6705 82.9208 68.393 82.8963 68.1146 82.8576Z" fill="#FFCB40" fill-opacity="0.92"/>
<path d="M79.2065 77.8801L79.0213 77.9825L79.7965 78.188L79.2065 77.8801Z" fill="#FFCB40" fill-opacity="0.92"/>
<path d="M85.8505 71.1097C85.5621 71.3756 85.3782 71.7722 85.0898 72.0381C85.5502 71.3763 86.6211 71.4295 85.8505 71.1097Z" fill="#FFCB40" fill-opacity="0.92"/>
</svg>
