<svg width="33" height="25" viewBox="0 0 33 25" fill="none" xmlns="http://www.w3.org/2000/svg">
<path d="M30.9375 0H2.0625C1.51549 0 0.990886 0.219493 0.604092 0.610194C0.217298 1.00089 0 1.5308 0 2.08333V22.9167C0 23.4692 0.217298 23.9991 0.604092 24.3898C0.990886 24.7805 1.51549 25 2.0625 25H30.9375C31.4845 25 32.0091 24.7805 32.3959 24.3898C32.7827 23.9991 33 23.4692 33 22.9167V2.08333C33 1.5308 32.7827 1.00089 32.3959 0.610194C32.0091 0.219493 31.4845 0 30.9375 0ZM29.3494 22.9167H3.77437L10.9931 15.375L9.50813 13.9271L2.0625 21.7083V3.66667L14.8809 16.5521C15.2674 16.9401 15.7901 17.1579 16.335 17.1579C16.8799 17.1579 17.4026 16.9401 17.7891 16.5521L30.9375 3.34375V21.5729L23.3475 13.9062L21.8934 15.375L29.3494 22.9167ZM3.41344 2.08333H29.2669L16.335 15.0729L3.41344 2.08333Z" fill="black"/>
</svg>
