<svg width="87" height="78" viewBox="0 0 87 78" fill="none" xmlns="http://www.w3.org/2000/svg">
<path d="M6.62386 38.0624L6.99107 37.9704C6.45904 37.7821 5.93989 37.5532 5.4375 37.2856C5.81578 37.5743 6.21221 37.8339 6.62386 38.0624Z" fill="#FF9696"/>
<path d="M3.2152 33.4019C2.9464 33.8398 3.2152 34.331 3.61541 34.7868C4.05326 35.2068 4.40427 35.7073 4.6488 36.2604L4.58907 36.509H5.43729C4.99526 36.0533 4.52337 35.497 4.08731 34.9525C3.87384 34.7011 3.67443 34.4383 3.48997 34.1653C3.35986 33.9261 3.26721 33.6687 3.2152 33.4019Z" fill="#FF9696"/>
<path d="M3.88379 30.622C5.12082 32.0837 4.6967 29.4039 3.88379 30.622V30.622Z" fill="#FF9696"/>
<path d="M3.10693 28.2749L3.6204 28.7411C3.79156 28.5996 3.6599 28.1417 3.88372 28.2874C3.50191 27.7962 3.33075 27.9253 3.10693 28.2749Z" fill="#FF9696"/>
<path d="M3.63776 29.5181C3.55234 29.8121 3.63775 30.1723 3.10693 29.7496C3.36929 30.1943 3.71707 30.3413 3.80859 30.2825C3.90011 30.2237 3.89401 30.1649 3.8635 30.0399C3.84396 29.9637 3.81334 29.8887 3.77199 29.8158C3.73689 29.715 3.69207 29.6156 3.63776 29.5181Z" fill="#FF9696"/>
<path d="M3.10735 24.0847C2.90818 24.0446 2.5895 24.3055 2.33057 24.3557L2.59614 24.8574C2.72228 24.5814 2.81523 24.1349 3.10735 24.0847Z" fill="#FF9696"/>
<path d="M1.63547 28.2468C2.08065 28.6882 2.62577 29.106 3.10728 29.5179C2.54133 29.0209 2.02252 28.5021 1.55371 27.9644L1.63547 28.2468Z" fill="#FF9696"/>
<path d="M3.34453 21.3133L3.88372 21.7499L3.10693 20.9731L3.34453 21.3133Z" fill="#FF9696"/>
<path d="M3.88379 19.2949C4.13094 19.6877 4.53903 18.9933 4.65973 19.3746C4.66931 18.8639 4.59754 18.3548 4.44707 17.8662C4.42035 18.3903 4.22269 18.8916 3.88379 19.2949Z" fill="#FF9696"/>
<path d="M2.33057 22.5268C2.50488 22.4549 2.66326 22.3493 2.79657 22.216C2.92989 22.0827 3.03551 21.9243 3.10735 21.75L2.37717 22.1151C2.3461 22.2161 2.3461 22.3714 2.33057 22.5268Z" fill="#FF9696"/>
<path d="M2.33043 25.6337C1.87767 25.2433 1.34502 24.348 0.776855 25.2385C1.31839 25.529 1.64686 25.029 2.33043 25.6337Z" fill="#FF9696"/>
<path d="M1.81919 22.5269L1.55371 23.9623C1.77986 23.9623 2.11418 23.6898 2.3305 24.0804L1.81919 22.5269Z" fill="#FF9696"/>
<path d="M3.69729 18.4911C3.58738 18.2807 3.65221 18.0634 3.88372 17.8662C3.51707 18.0793 3.25437 18.3132 3.10693 18.558C3.25452 18.6138 3.5497 18.7477 3.69729 18.4911Z" fill="#FF9696"/>
<path d="M4.64202 16.3125C4.3518 16.5289 4.09597 16.791 3.88379 17.0893C4.18011 16.9086 4.77275 16.5112 4.64202 16.3125Z" fill="#FF9696"/>
<path d="M3.90033 10.8665C4.05193 11.034 4.04671 11.3979 3.90033 11.7965C3.77314 12.2717 3.49701 12.6813 3.1214 12.9519C2.94365 13.9513 4.44402 14.1073 5.43729 13.9051C5.29614 13.778 5.14454 13.6856 5.3641 12.7497C5.02953 12.871 3.96829 14.217 4.00489 13.3274C4.41265 12.12 4.58517 12.5013 5.09226 12.172C4.38128 12.2818 5.34319 10.3985 4.60085 10.0981L4.19309 11.2073C4.08853 11.138 4.16172 10.6758 3.90033 10.8665Z" fill="#FF9696"/>
<path d="M4.73002 15.2217L4.66064 15.5355C4.8513 15.2012 5.1113 14.949 5.40839 14.8102C5.47777 14.2597 5.4084 14.0848 5.35058 13.9819C5.12371 14.4186 4.91773 14.8739 4.73388 15.3452L4.73002 15.2217Z" fill="#FF9696"/>
<path d="M4.06217 16.9914C3.71659 16.5541 3.91775 15.6906 3.25237 15.9674C3.17664 16.0994 3.12905 16.2478 3.113 16.4018C3.09695 16.5559 3.11284 16.7119 3.15952 16.8586C3.26652 17.0468 3.32194 17.2636 3.31942 17.4841C3.73722 15.8235 3.40711 18.0376 4.0106 16.9804C3.98363 17.2804 3.93009 17.5769 3.8507 17.866C3.98462 17.6135 4.13455 17.3713 4.29944 17.1409H4.26334C4.19112 17.1907 4.15502 17.1962 4.2066 17.1409C4.25818 17.0855 4.2066 17.1132 4.2066 17.1021C4.15674 17.0662 4.1131 17.0213 4.07765 16.9693C4.3046 16.5541 4.2066 16.9416 4.2066 17.1021C4.2066 17.1021 4.2427 17.1409 4.26334 17.1464C4.34586 16.5929 4.53155 16.0836 4.66051 15.5356C4.39473 15.9863 4.19307 16.4769 4.06217 16.9914Z" fill="#FF9696"/>
<path d="M0.197379 23.9687C0.373802 24.1132 0.460413 24.2976 0.439327 24.4836C0.292884 24.773 0.178279 24.4836 0 24.4836C0.159178 24.6879 0.439331 25.173 0.636711 24.5517L0.553935 24.4538C0.713113 23.8878 1.50263 23.2154 1.55357 23.3133C1.02765 23.4537 0.561785 23.6789 0.197379 23.9687Z" fill="#FF9696"/>
<path d="M1.39052 20.1966L1.55364 18.6431L0.776855 19.3122H1.12641C0.675877 20.1734 1.15748 20.0512 1.39052 20.1966Z" fill="#FF9696"/>
<path d="M5.4375 13.6733L6.21429 13.9824C6.04874 13.7302 5.8832 13.4699 5.73039 13.2056L5.4375 13.6733Z" fill="#FF9696"/>
<path d="M6.21436 11.9708L6.86548 12.4286L6.99114 11.6519L6.21436 11.9708Z" fill="#FF9696"/>
<path d="M45.0537 11.6518L45.8063 11.3811L46.1798 11.2399C46.2952 11.1967 46.4325 11.1261 46.4435 11.1614C46.5534 11.2202 46.7127 11.1614 46.5094 11.0555C46.3604 11.0008 46.2155 10.9406 46.0755 10.875V10.9182L45.9986 10.9927C45.8887 11.0868 45.7843 11.1732 45.6799 11.2516C45.4898 11.3992 45.2801 11.5332 45.0537 11.6518Z" fill="#FF9696"/>
<path d="M73.7949 6.21429L73.7147 5.4375C73.4796 5.54055 73.2469 5.68881 73.0181 5.88138C73.279 5.94429 73.5385 6.05547 73.7949 6.21429Z" fill="#FF9696"/>
<path d="M74.5713 4.66064L75.3481 5.43743C75.1382 5.15704 74.8772 4.89602 74.5713 4.66064Z" fill="#FF9696"/>
<path d="M21.75 4.17009C22.0037 4.38249 22.2634 4.54645 22.5268 4.66057C22.3438 4.41533 22.1815 4.11754 22.0365 3.96865C21.8915 3.81975 21.7949 3.85478 21.75 4.17009Z" fill="#FF9696"/>
<path d="M14.7588 45.8306C15.0307 46.0747 15.29 46.334 15.5356 46.6074C15.3221 46.3024 15.0591 46.0394 14.7588 45.8306Z" fill="#FF9696"/>
<path d="M52.8212 0.776855C52.7529 0.988714 52.6434 1.16803 52.5056 1.29338C52.3679 1.41874 52.2078 1.48484 52.0444 1.48379C52.2253 1.76742 52.4002 2.05527 52.5722 2.33043C52.6433 1.82668 52.7263 1.306 52.8212 0.776855Z" fill="#FF9696"/>
<path d="M79.7644 40.3944C80.1214 40.1909 80.4837 39.9875 80.83 39.752C80.473 41.3097 79.5406 41.9521 80.7448 41.481C80.4997 41.208 80.5636 40.8387 80.7714 40.4104C81.0335 39.9384 81.3235 39.4825 81.6399 39.0454C82.2953 38.0765 82.8494 37.0487 82.2633 36.6151L82.9027 36.0798C82.7855 36.2671 82.8388 36.3367 82.7215 36.5241C82.8376 36.4679 82.9411 36.3887 83.0259 36.2913C83.1106 36.1939 83.1748 36.0802 83.2147 35.9571C83.2545 35.8341 83.2691 35.7042 83.2576 35.5753C83.2461 35.4464 83.2088 35.3212 83.1478 35.2072C83.0259 34.9246 82.9747 34.6163 82.9989 34.3093C83.023 34.0023 83.1217 33.7059 83.2863 33.4461C83.6274 32.8786 83.9843 32.5146 83.9843 33.0018C84.0589 32.4932 84.0962 31.99 84.1282 31.4868C84.2881 31.0854 84.4959 31.2566 84.336 31.6581C84.5303 30.9302 84.685 30.1921 84.7996 29.4473H84.8422C84.6983 29.0833 84.4745 28.3125 84.3786 27.9484C84.677 27.4131 84.4852 28.2482 84.6877 28.1412C84.645 27.7183 84.5704 27.2954 84.5012 26.8832C84.9274 26.4228 85.2045 27.4827 84.9914 28.3285C85.8119 27.8735 85.748 27.5791 85.6308 27.1294C85.5543 26.8501 85.5113 26.5625 85.5029 26.2729C85.5245 25.7747 85.6252 25.2832 85.8013 24.8169C85.8599 25.2184 85.9078 25.6199 85.9345 26.0267C86.8136 25.2933 86.5419 24.3137 87.0001 22.8844C86.8882 23.0611 86.5739 23.7837 86.2542 24.2548C85.9345 24.7259 85.5615 24.9614 85.391 24.2869C85.5401 23.7477 85.4732 23.1713 85.2045 22.681C85.7373 22.6435 85.5508 21.9262 85.4017 21.0376L86.0837 21.0108C85.748 20.0473 85.4017 20.1865 85.018 19.6779C84.9432 19.3498 84.9653 19.0068 85.0817 18.6911C85.1982 18.3754 85.4038 18.1007 85.6734 17.9007C85.4922 17.0121 85.3697 17.3654 85.2045 17.6973C85.0393 18.0292 84.8369 18.2915 84.5012 17.3226C84.3307 15.8665 83.6913 14.9726 82.5883 13.6343C82.3592 12.6333 83.0359 13.6022 83.0519 13.1953C82.7642 13.0026 82.4551 12.8313 82.1568 12.66C82.0608 12.4673 82.242 12.4406 82.3326 12.4352C81.7998 11.8999 81.7198 12.7029 80.9632 11.8303C80.5743 11.8999 80.489 11.295 80.2812 10.5295C80.0734 9.76402 79.7058 8.92359 78.9119 8.6827C78.8266 8.28657 79.3381 8.53281 79.4447 8.27586C79.0184 7.9868 78.6881 7.81014 78.4483 7.65491C78.2559 7.52813 78.0526 7.41885 77.8409 7.32837C77.3406 7.11426 76.826 6.93539 76.301 6.79306L75.9547 6.28452C75.8321 6.0811 75.6883 5.8991 75.5551 5.70103C76.0346 6.69135 74.6279 6.40764 73.5197 6.23634C73.6476 6.63782 73.7435 6.98042 73.8287 7.17313L73.0721 6.84124L72.6991 6.68064L72.3048 6.55217C72.2036 6.35946 72.4647 6.24169 72.8377 6.13999H72.4913C72.1237 5.63144 72.5819 5.43873 73.1627 5.34237C73.2742 5.56248 73.3669 5.7917 73.4397 6.02757C73.9992 5.92586 74.596 5.79204 74.7558 5.41197C74.5549 5.38983 74.3608 5.32603 74.1857 5.22461C74.3402 5.22461 74.4574 5.15502 74.4521 5.06937C74.4468 4.98372 74.2123 4.98907 73.882 4.96766C73.914 4.67859 73.9353 4.40023 73.9513 4.11652L73.7062 4.31994L72.8217 3.51697C72.5289 3.23756 72.2193 2.97654 71.8946 2.73543C70.003 2.6926 68.33 3.13155 65.8736 2.8746C66.6036 2.47847 66.2253 2.01811 66.4065 1.38109C66.6675 1.82004 67.1791 1.83075 67.7758 1.88428C68.4377 1.89191 69.0928 2.01883 69.71 2.259C69.0599 1.94852 69.3157 1.72369 69.5288 1.66481L68.266 1.46674L67.6373 1.41857C67.4242 1.41857 67.211 1.41857 67.0032 1.41857C67.195 0.883259 66.5983 0.883256 66.0175 0.5246C66.1347 1.11344 65.6552 1.15091 65.0211 1.1295C64.3749 1.06469 63.7245 1.05216 63.0763 1.09203C63.0497 0.722667 63.3267 0.390776 64.5256 0.653077C63.9182 0.15524 63.428 0.406835 62.9804 0.653077C62.5328 0.899319 62.0906 1.27938 61.4619 0.904668C61.7549 0.904668 61.9094 0.97426 62.032 0.797608C61.5834 0.93065 61.1086 0.947224 60.652 0.845784C60.2044 0.797606 59.8794 0.674487 60.0712 0.508541H60.3642C59.874 0.508541 59.256 0.508542 58.6006 0.551367C57.9386 0.618678 57.2829 0.738605 56.6398 0.910022C56.0773 1.02981 55.5377 1.23946 55.0413 1.53098C54.647 1.77187 54.4019 2.01276 54.3966 2.25365C54.3442 1.81186 54.355 1.36481 54.4286 0.926081C54.2048 1.24191 53.9917 1.55775 53.7839 1.87358C53.576 2.18941 53.3896 2.54807 53.2084 2.87996C52.8571 3.53255 52.5388 4.20254 52.2546 4.88736C52.2546 4.46982 51.8017 3.93987 51.514 3.39385C51.2263 2.84784 51.0771 2.23759 51.7858 1.78793C51.0811 1.84822 50.4187 2.15071 49.9102 2.64442C50.2566 2.60695 51.0931 3.34032 50.7414 3.58121C50.3453 3.47505 49.9365 3.42461 49.5266 3.43132C49.2548 3.43132 48.9938 3.51697 48.1626 3.5705C48.6634 3.4688 48.8073 4.80707 48.1626 5.13896C48.1626 4.92484 47.4699 4.14328 47.6297 3.89169C47.4699 4.23429 47.294 4.54477 47.1555 4.89807L46.7559 5.93657C46.9957 5.49226 46.2231 5.05331 45.6902 5.03725C45.8394 5.07472 45.5038 5.31561 45.0882 5.57256C44.7154 5.82758 44.3754 6.12784 44.0758 6.46652L44.859 6.13463C44.5442 6.36061 44.2863 6.65738 44.1059 7.00127C43.9255 7.34515 43.8276 7.72663 43.82 8.11527C43.7867 8.29171 43.7707 8.471 43.7721 8.65058C43.7929 8.80691 43.7929 8.96532 43.7721 9.12165C43.6925 9.50561 43.508 9.85967 43.2393 10.1441C43.2155 9.79679 43.1036 9.46139 42.9142 9.16983C42.7064 8.84329 42.4454 8.6024 42.2429 8.72552C42.2429 8.78441 42.2429 8.85935 42.2429 8.95035C42.345 9.92922 42.2874 10.9183 42.0724 11.8785C41.9971 12.1815 41.9046 12.48 41.7953 12.7725C41.7041 13.0617 41.5615 13.3319 41.3744 13.5701C41.2165 13.7624 41.0075 13.9058 40.7717 13.9835C40.5359 14.0612 40.2829 14.07 40.0423 14.009C39.9986 13.9153 39.9612 13.8187 39.9304 13.7199L39.8452 13.3774L38.7422 12.462H39.6374C39.7972 12.462 39.9571 12.462 40.1062 12.462C40.1918 12.4657 40.2767 12.4453 40.3513 12.4031C40.4577 12.3358 40.5575 12.2587 40.6497 12.1729C41.1307 11.7014 41.4498 11.0883 41.5609 10.4225C41.7047 9.78008 41.7846 9.27689 41.8326 8.92894C41.5289 8.854 41.6674 8.48463 41.3744 8.87541C41.3211 8.68096 41.3211 8.47566 41.3744 8.28122C41.3982 8.15717 41.4376 8.03665 41.4916 7.92256C41.401 7.96538 41.3371 8.02427 41.2412 8.01892C41.1791 8.00846 41.1214 7.98014 41.0751 7.93738C41.0287 7.89462 40.9957 7.83926 40.9801 7.77803C40.9002 8.31334 40.751 8.40434 40.5645 8.4204C40.378 8.43646 40.1595 8.38293 40.0317 8.72017C40.2153 8.80679 40.4084 8.87147 40.6071 8.91288C40.686 8.93118 40.768 8.93118 40.8469 8.91288C40.9537 8.88091 41.0496 8.81975 41.1239 8.73623C41.1199 9.05194 41.0641 9.36483 40.9588 9.66231C40.8783 9.93315 40.7094 10.1689 40.4792 10.3314C40.1276 10.5349 39.5574 10.219 39.1578 9.50172C39.1312 9.20195 39.3656 8.96641 39.5947 8.75764C39.8013 8.59821 39.9812 8.40666 40.1276 8.19021C40.0317 8.26516 39.8345 8.19022 39.6534 8.02962C39.4722 7.86903 39.323 7.67097 39.3603 7.57461C39.5265 7.61278 39.6961 7.6343 39.8665 7.63885C39.8132 7.31766 39.5681 7.37655 39.2324 7.2106C38.7689 6.71812 38.1028 6.41299 37.9004 5.74385C37.5966 5.41196 37.4741 4.08975 37.1171 4.38953C37.213 5.51903 35.6039 7.52643 34.9059 7.70844C34.9059 7.62279 34.5862 7.17313 34.2718 6.63782C33.9914 6.1798 33.737 5.70619 33.5099 5.21926C33.3873 4.7696 33.8029 4.57688 34.2505 4.41094C34.6981 4.24499 35.1403 4.14328 35.0391 3.72039C34.9165 3.85422 34.4263 3.85422 34.2399 3.8328C33.9255 3.44738 34.7354 3.41527 33.7923 2.96025C33.5365 3.22791 33.0943 2.96025 32.8439 2.77825C32.716 2.69795 32.6361 2.64978 32.6574 2.69795C32.6787 2.74613 32.8119 2.89067 33.0676 3.23326C32.7352 3.12546 32.4221 2.9646 32.1405 2.75684C31.8314 2.50521 31.4888 2.29802 31.1228 2.14123C31.1974 2.44101 30.7978 2.67654 30.281 2.8639C29.7603 3.07493 29.2008 3.17166 28.6399 3.14761C28.7518 2.98702 28.6399 2.68724 28.5653 2.54806C28.1177 2.35535 27.6968 2.26435 27.3238 2.11982L26.2581 1.71834C25.5005 1.48397 24.7228 1.32089 23.935 1.23121C23.7858 1.04385 22.8694 0.786902 23.2956 0.492483C22.9648 0.70739 22.5812 0.825978 22.1874 0.83508C21.6545 0.54066 21.9476 0.487131 22.3099 0.460365C22.6722 0.4336 23.0665 0.401481 22.6403 0C22.5976 0.219476 22.214 0.315832 21.7451 0.476424C21.2762 0.637016 20.7221 0.760136 20.3225 0.910022C20.6209 1.56845 22.182 0.910024 23.0346 0.72802C22.9815 0.999566 22.8682 1.2556 22.7031 1.4771C22.5379 1.6986 22.3252 1.87986 22.0808 2.00741C21.4116 2.47147 20.677 2.83234 19.9015 3.07802C18.5482 3.50627 19.2142 2.59089 18.9904 2.75148C18.6984 2.77227 18.4092 2.82248 18.1272 2.90137C17.9175 2.98009 17.7173 3.08246 17.5305 3.2065C17.2518 3.39531 17.0007 3.62233 16.7845 3.88098C16.6905 3.98793 16.5909 4.08978 16.4861 4.18611C16.385 4.2965 16.2705 4.39362 16.1451 4.47518C15.7895 4.70312 15.3786 4.829 14.9569 4.83919C13.9446 4.61436 14.4881 3.76857 14.163 3.46344C14.5932 3.22006 15.0761 3.08591 15.5697 3.07267L16.1771 3.04055C16.3745 3.04652 16.5717 3.0249 16.7632 2.97631C16.4208 2.95222 16.0772 2.95222 15.7349 2.97631C15.8251 2.88725 15.9232 2.80662 16.0279 2.73543C16.1578 2.66237 16.2932 2.59972 16.4329 2.54806C16.6911 2.43432 16.9717 2.38123 17.2534 2.39283C16.8808 2.32152 16.4972 2.33248 16.1291 2.42495C15.5337 2.57066 14.9467 2.74937 14.3708 2.96025C13.0814 3.43668 11.7067 4.11652 10.6411 4.50729C10.5238 4.6893 10.348 4.90878 10.2521 5.08543C10.1562 5.26208 10.1562 5.41197 10.3427 5.41197L10.8755 4.99442C11.6428 5.08007 10.1402 6.17745 10.9767 5.93121C10.689 6.28987 10.4439 6.76629 10.1349 7.16242C9.97525 7.36784 9.79687 7.5578 9.60205 7.72985C9.39283 7.93494 9.16035 8.11461 8.90938 8.26516L8.30728 7.92791C8.4618 8.05639 9.15448 7.67097 9.29834 7.3016C9.18644 7.56926 8.7069 7.72985 8.23269 7.93862C7.75848 8.14739 7.35353 8.42575 7.46009 8.96106C7.75848 8.84864 8.09415 8.78441 8.40319 8.69876C8.29663 8.90753 8.20072 9.13236 8.09416 9.3786C7.98759 9.62484 7.93431 9.91391 7.8384 10.1334C7.67908 10.6243 7.3855 11.0602 6.99121 11.3914C7.78512 11.4556 7.09778 11.1612 8.13145 11.1344C7.59863 11.0488 8.01423 10.5991 8.40852 10.1387C8.80281 9.67837 9.27703 9.33578 8.54706 9.30901C8.96511 9.37051 9.39117 9.27729 9.74591 9.04671C9.91596 8.94152 10.0941 8.85023 10.2787 8.7737C10.516 8.69721 10.7654 8.66634 11.014 8.6827C10.8595 8.52746 10.4812 8.55423 11.2325 8.14739C11.2291 8.05666 11.2418 7.96605 11.2698 7.87974H11.3231H11.2272C11.2272 7.83156 11.2272 7.82085 11.2272 7.87974C11.0524 7.92507 10.8691 7.92507 10.6943 7.87974C10.7952 7.46503 11.0202 7.09137 11.3391 6.80912C11.6552 6.562 11.9445 6.28209 12.2022 5.97404C12.7031 5.79203 12.1383 6.30058 12.4953 6.35411L12.9162 5.65821C13.2199 6.04898 14.5147 5.80809 13.5556 6.55217L14.52 6.12928C15.1952 6.13646 15.8586 5.95082 16.4329 5.59397C16.5646 5.56704 16.6885 5.51029 16.7952 5.42803C16.8995 5.34645 16.9975 5.25697 17.0882 5.16037C17.2534 5.02119 17.3173 4.93554 17.1522 5.16037C17.685 4.94625 18.1699 4.6786 18.708 4.49659L18.7453 4.609C19.1613 4.56165 19.5717 4.4738 19.9708 4.3467C20.1779 4.27875 20.3899 4.22685 20.6049 4.19146L21.2549 4.0737C22.1807 3.88293 23.1438 4.02304 23.9777 4.46982C24.2752 4.4421 24.5741 4.43138 24.8728 4.43771C25.0514 4.44358 25.2294 4.46146 25.4056 4.49124C25.6174 4.51657 25.824 4.57434 26.0184 4.66253L26.1036 5.11219C26.5481 5.18706 26.979 5.32777 27.3824 5.52973C27.8087 5.75456 28.187 5.92051 28.4054 5.76527C28.5071 6.09123 28.7254 6.36777 29.0182 6.54147C29.3472 6.77648 29.7055 6.96724 30.0838 7.10889C30.4949 7.26452 30.8969 7.44324 31.288 7.6442C31.6309 7.78216 31.948 7.97765 32.2258 8.22233L32.5668 7.80479C32.9008 8.06959 33.2574 8.30425 33.6324 8.50605C33.841 8.6097 34.0422 8.72775 34.2345 8.85935L34.9006 9.26083L35.1723 8.85935C35.2968 8.90684 35.415 8.96978 35.524 9.04671C35.6098 9.10091 35.6885 9.16565 35.7584 9.23942C35.8118 9.31456 35.8532 9.39765 35.881 9.48566C35.8991 9.52488 35.9205 9.56249 35.9449 9.59808L36.0408 9.75332L36.2379 10.0691C36.7996 11.0352 37.4337 11.9568 38.1348 12.826C37.959 12.8635 37.602 12.3549 37.3942 11.9534C37.6899 12.6684 38.1023 13.3287 38.6143 13.9073C38.844 14.1803 39.0877 14.4412 39.3443 14.6889C39.4547 14.8124 39.578 14.9236 39.712 15.0207C39.8586 15.0624 40.0083 15.0928 40.1595 15.1117C40.5078 15.1483 40.8597 15.1118 41.1932 15.0047C41.3466 14.9599 41.4935 14.8951 41.6301 14.812C41.7609 14.7165 41.8854 14.6128 42.0031 14.5015C42.4251 14.0856 42.9377 13.774 43.5003 13.5915C43.6226 13.4289 43.76 13.2783 43.9106 13.1418C44.1094 12.8834 44.3488 12.6592 44.6193 12.478C44.5799 12.5278 44.546 12.5816 44.518 12.6386L44.7099 12.4245C44.9549 12.2586 45.2427 12.0926 45.4984 11.8892C45.2564 12.0108 45.0247 12.1523 44.8058 12.3121C45.2739 11.7599 45.7046 11.1769 46.0952 10.567C46.2466 10.6503 46.3925 10.7433 46.5321 10.8453C46.5321 10.8453 46.5588 10.8132 46.5747 10.7865C46.9957 10.6633 46.66 10.385 46.2071 10.2512C46.3192 10.05 46.4017 9.83365 46.4522 9.60878C46.8731 9.79079 47.049 9.53384 47.2514 9.26618C47.3382 9.12639 47.4547 9.00758 47.5924 8.91823C47.6814 8.8787 47.7776 8.85828 47.8748 8.85828C47.9721 8.85828 48.0683 8.8787 48.1572 8.91823C48.1572 8.65593 48.5728 8.2491 48.9618 7.78338C49.3508 7.31766 49.7664 6.88942 49.6438 6.41834C49.7184 6.5147 49.8676 6.48794 49.6438 6.63247C49.8981 6.54576 50.1457 6.44019 50.3844 6.31663C50.4976 6.25167 50.6046 6.17641 50.7041 6.09181C50.8093 6.01488 50.9026 5.9229 50.9812 5.8188L51.4767 6.31128C51.6898 5.88839 51.9243 5.45479 52.1694 5.01584C52.4643 5.00373 52.7554 5.08623 53.0006 5.25137C53.1285 5.3852 53.0965 5.59397 52.8674 5.94192C53.228 5.56036 53.6363 5.22747 54.0822 4.9516C54.2323 4.8571 54.3764 4.75341 54.5138 4.64112C54.679 4.51265 54.8975 4.35206 55.2065 4.0737L55.2438 4.50194C55.7287 4.37882 56.4213 3.58121 56.8103 3.9024C57.279 4.07264 57.7814 4.12771 58.2756 4.06299C58.5846 4.03087 58.9363 4.06299 59.3092 4.06299L60.4868 4.02552C60.8917 4.02552 61.3127 4.0737 61.7389 4.09511C62.1668 4.11005 62.5927 4.16018 63.0124 4.24499C63.8111 4.37282 64.5845 4.6276 65.3035 4.99978C65.1703 4.32529 65.4687 4.53941 65.8363 4.81242C66.0061 4.95072 66.1945 5.06425 66.3958 5.14966C66.4337 5.17171 66.4761 5.18477 66.5198 5.18784C66.5635 5.19091 66.6074 5.18392 66.648 5.1674C66.6886 5.15088 66.7249 5.12526 66.7541 5.0925C66.7834 5.05974 66.8048 5.0207 66.8167 4.97836C66.8967 5.31561 67.211 5.60468 66.7048 5.69568C67.2838 5.79576 67.8387 6.00461 68.3406 6.31128C68.5466 6.46047 68.783 6.56185 69.0327 6.60814C69.2824 6.65443 69.5392 6.64445 69.7846 6.57894C69.7846 6.91083 69.3104 6.83589 69.369 7.05536C69.4968 7.05536 69.9018 7.01254 69.9497 7.23737C69.9977 7.46219 69.6514 7.36049 69.4169 7.38725C69.6858 7.50441 69.9688 7.58541 70.2588 7.62814C70.4764 7.65001 70.6958 7.61111 70.8928 7.51573C71.2623 7.30682 71.5808 7.0179 71.8253 6.66994C72.3048 7.39796 72.6085 7.59602 73.4238 7.48361C73.4877 7.87973 73.6689 8.37222 72.843 7.89044L73.3758 8.38293L73.7808 8.73088L74.1857 9.127C74.7185 9.66231 75.3046 10.0531 75.571 9.82826C75.571 10.0584 76.0559 10.4117 76.2158 10.4546C77.0043 11.3914 77.0203 11.5252 77.8142 12.4299C77.7823 12.3174 77.745 12.205 77.7077 12.098C78.6454 11.9963 78.459 12.8046 79.0451 13.5808H78.9598C79.2688 14.6942 79.4287 14.8655 79.5885 15.0529C79.7484 15.2402 79.9189 15.4276 80.0308 16.5678L80.457 16.2573C80.9899 16.1342 81.0432 16.6748 81.0325 17.3279C81.0048 17.6841 80.9959 18.0414 81.0059 18.3985C80.9979 18.7444 81.0865 19.0856 81.2616 19.3835L81.4215 18.8482C81.7039 19.1426 81.4481 19.7261 81.1231 20.2828C80.7885 20.7136 80.5225 21.194 80.3345 21.7067C80.2599 21.862 80.164 21.5033 80.0521 21.3213C79.6258 23.0878 80.7661 21.4391 81.0485 22.7292C80.7075 22.9968 80.1107 22.5044 80.1054 23.3555C79.9615 23.5696 80.2972 24.1638 80.505 24.8918C80.7128 25.6199 80.8407 26.4978 80.4197 27.0331C80.7288 26.8189 81.0378 26.5781 81.171 27.2258C81.038 27.7995 80.8015 28.3438 80.473 28.8317C80.1693 29.3938 79.9402 29.9451 80.2226 30.4804C80.116 30.5715 80.0308 30.5929 79.9668 30.5714C79.9668 31.3262 79.4873 32.884 79.6791 33.4889C78.752 33.4086 78.4217 34.4578 78.0434 35.4695C77.665 36.4813 77.2175 37.3913 76.5994 36.8613C76.3703 37.145 76.1518 37.4448 75.912 37.7232C75.6723 38.0015 75.4485 38.2585 75.1608 38.5636L75.0915 38.403C73.9193 39.4254 73.8127 40.0892 73.7008 40.753C73.3705 40.9297 73.4504 40.6353 73.4078 40.555C71.5802 41.9253 71.4736 42.1341 70.7064 44.0559L70.1735 43.815C70.0243 44.3985 67.2803 45.5494 66.1507 47.5621C66.1252 47.5087 66.1119 47.4501 66.1119 47.3908C66.1119 47.3315 66.1252 47.273 66.1507 47.2195C64.8293 49.4304 60.9024 50.4314 61.6164 52.4334L60.7798 54.0019C62.3783 52.5994 61.1422 54.8209 61.9894 54.4248C61.4565 55.0993 60.0499 55.5489 60.7052 54.746L60.8864 54.7031C60.4442 53.7235 58.7551 56.3091 58.3235 55.8005C55.4036 58.809 52.1268 61.3142 49.3241 64.0657L50.1926 64.3012L49.1962 65.238C48.8126 65.3665 48.4236 65.147 49.1376 64.4779C48.4609 64.5314 48.2425 65.9072 48.3384 66.0463C46.7666 67.1758 48.2265 64.8687 47.8056 65.2701L47.2727 65.8804L47.4646 65.8162C47.2301 66.5013 47.4326 66.7797 46.5747 67.588C45.9407 68.0002 45.962 67.5131 45.7382 67.7004C45.7009 67.6576 45.6103 67.7004 45.4025 68.0002L44.1397 69.1779L45.0615 69.1297C44.7365 69.8845 43.8946 70.2538 44.9496 70.2003C44.5481 70.2573 44.1682 70.4178 43.8467 70.666C43.6442 70.7999 43.4311 70.9658 43.2126 71.1425L42.9622 71.3512L42.7597 71.5172C42.2269 71.9775 41.6941 72.5878 41.3371 72.9518C41.1704 72.8025 41.0362 72.6203 40.9428 72.4165C40.7937 72.4322 40.643 72.4149 40.5013 72.3659C40.3595 72.3168 40.2302 72.2373 40.1222 72.1328C39.9699 72.0162 39.8273 71.8873 39.696 71.7474C39.5415 71.5921 39.4562 71.4904 39.2004 71.2121C39.339 71.5332 38.9873 72.1649 38.252 71.3031C39.5521 70.5804 37.229 69.392 37.3089 68.0163C37.4048 69.0869 34.9219 65.875 35.1457 67.481C34.5595 66.7315 35.4813 67.0581 35.2149 66.314C33.2381 65.1149 31.9807 62.5668 29.8867 60.7147C29.7268 60.8217 29.8494 61.3517 29.2313 61.1268L28.8637 59.4246C28.4108 59.1034 27.7394 59.8368 27.4943 58.6644C27.4943 58.8786 27.4623 59.1997 27.1639 58.9749C23.967 54.473 18.7986 51.6358 16.1132 46.5022C16.3849 47.2891 16.0066 46.9626 15.5803 46.5665C15.7828 46.893 15.2447 46.8876 15.1168 47.1018L13.9872 44.9605C13.1933 45.164 12.2022 43.2368 11.5575 43.5473L12.1596 43.9809C10.9128 43.8524 11.8719 46.2024 11.046 46.8234C12.458 46.9572 12.1117 49.8158 14.3069 50.1637C14.4348 50.592 13.838 50.1637 13.8167 50.4742C14.4454 50.4742 14.8823 50.8061 15.4738 51.6679H15.3139C17.4026 53.6111 17.978 54.7834 20.0134 57.2566L20.2053 56.7213C20.4662 57.0344 20.6586 57.3992 20.7701 57.7919C21.8677 57.7919 19.438 56.3947 20.5409 56.3037C20.461 57.6795 23.9563 59.7565 23.562 61.0198C24.308 61.7746 23.7592 60.3828 24.4998 61.1376V61.5658L24.9794 61.4641C25.4216 61.9994 25.3896 62.5347 25.2191 62.7381C25.0557 62.5879 24.8771 62.4551 24.6863 62.342C25.0593 63.2467 26.5672 64.0496 26.7004 64.3548L26.1196 63.4983C28.3681 65.3344 30.5634 68.1287 32.9824 69.6489V69.3331C34.7993 70.5269 34.0001 70.7249 35.7957 72.2399H35.6945C36.2546 72.4472 36.7559 72.789 37.1544 73.2355C36.8454 73.1285 36.9466 73.4175 37.0265 73.7012C37.0265 73.819 37.1651 74.0385 37.1491 74.1241C37.1331 74.2098 37.0532 74.2365 36.7868 74.0813C38.2147 75.1787 38.5238 75.3553 38.7848 75.4142C39.208 75.421 39.6293 75.4712 40.0423 75.5641C40.1169 75.8211 40.1915 76.0994 40.2821 76.3671C40.7083 76.4045 40.8149 76.2707 41.3477 76.6187C41.4809 76.4367 41.6568 76.2225 41.8806 75.9656C41.4916 76.5973 41.6408 76.6561 41.8219 76.7097C42.0031 76.7632 42.1896 76.8274 41.6568 77.6786C42.3095 77.3114 42.898 76.8394 43.3991 76.2814C43.842 75.8003 44.2531 75.2907 44.6299 74.7558C44.9022 74.3552 45.2127 73.9823 45.557 73.6424C45.8252 73.425 46.1681 73.3231 46.5108 73.3586C46.5108 72.5717 46.0419 72.8233 45.589 73.2302C45.4718 73.3319 45.3812 73.4175 45.2533 73.5406L44.9017 73.8886C44.7045 74.0813 44.6193 74.1455 44.7312 73.9528C44.3742 74.0545 44.4807 73.6584 44.7312 73.2141C44.8416 72.9967 44.9699 72.789 45.1148 72.5931C45.2454 72.4126 45.3995 72.2506 45.573 72.1114C46.1432 71.5761 47.5019 72.1649 48.8765 70.7517C48.7327 70.8855 48.786 70.9551 48.6421 71.0889C49.3614 70.7624 49.3934 69.7988 50.3525 69.483C50.2406 68.6533 51.2103 68.68 50.7148 67.9734L49.5799 69.3974C50.1447 68.5141 50.1127 67.1276 51.6526 66.2712C51.6153 66.6453 51.5067 67.0088 51.3329 67.3418C51.8657 67.1651 51.8657 66.5495 52.4252 66.3675C52.9207 67.0741 51.0078 68.0537 50.6881 69.2903C51.3115 69.1672 51.7218 67.3846 51.9776 68.4231C51.7165 67.0367 53.4535 67.1544 53.7625 65.5753L54.0609 65.9982C54.1731 65.6478 54.3543 65.3238 54.5937 65.0453L54.5565 66.0089C54.9241 64.8472 56.3734 64.8847 56.8902 63.9319C55.3717 65.4789 56.1176 63.8462 55.2065 64.2316C56.6185 61.8549 57.2259 64.0817 59.1707 61.7853C58.9363 62.1225 57.8813 62.6471 58.1637 62.0315C58.6422 61.6713 59.1847 61.4061 59.7621 61.25C61.0889 59.7672 59.1814 61.0947 59.5543 60.2757C60.4708 60.2329 60.0872 59.4032 60.5401 58.6698L60.9077 59.0284C62.7406 57.6634 60.5774 57.8454 62.2931 56.6838L62.1918 57.8026L62.8099 56.9193L63.0657 57.4867C63.5985 56.3626 63.9075 56.186 64.824 55.5008C64.3817 55.4312 64.2912 54.7353 64.9625 54.0126C65.6605 53.7449 65.0371 54.6282 65.9909 53.5683C65.9909 54.0287 66.0282 54.564 65.2556 54.6657C65.3302 54.8263 65.2556 55.1153 65.3355 55.2813C66.1028 55.0083 66.6942 54.0287 67.0565 53.6754C66.9165 53.8069 66.7541 53.9121 66.577 53.9858L67.5254 52.0213C67.893 51.9249 67.8185 52.2193 67.7492 52.5084C67.9504 52.1006 68.1819 51.7088 68.4419 51.3361C68.623 51.7429 68.9747 52.0213 68.4791 52.776L69.5448 51.0577C69.7633 51.0952 70.6104 50.699 70.5359 50.9881C71.4736 50.3939 71.8413 48.5203 73.0881 47.7281C73.1096 47.5317 73.1874 47.3457 73.3119 47.1928C74.3349 46.2988 75.5444 45.8117 76.2691 44.27L77.4413 44.1522C78.2085 43.1405 75.9067 44.3556 77.1855 42.6748C78.0593 41.4543 78.0274 42.7337 78.5389 42.5142C78.6081 42.3108 78.6668 42.0859 78.768 41.8129C78.8823 41.5137 79.0158 41.2222 79.1676 40.9404C79.4965 40.2794 80.002 39.7233 80.6275 39.3344C80.3869 39.7239 80.0967 40.0802 79.7644 40.3944ZM85.375 24.3833C85.4709 24.7152 85.796 25.4004 85.4763 25.6306C84.9061 25.2237 85.1885 24.9561 85.375 24.3833ZM72.0544 4.10581C72.3368 4.07905 72.5872 4.33599 72.8643 4.71071C72.5466 4.58055 72.2663 4.37261 72.0491 4.10581H72.0544ZM15.1381 5.49761C15.1396 5.48696 15.1396 5.47615 15.1381 5.4655C15.7881 5.46014 15.559 5.45479 15.1381 5.49761ZM13.9233 5.79739C13.8433 5.91515 13.8806 5.97404 13.9606 6.01686C13.9606 5.86698 14.2323 5.7385 14.5307 5.6368C14.4241 5.55115 14.211 5.53508 13.9233 5.79739ZM45.7595 67.9467L46.0472 67.8503C45.7222 68.3803 45.7489 68.1715 45.7595 67.9467Z" fill="#FF9696"/>
<path d="M34.1787 3.10693C34.5151 3.30834 34.7655 3.57825 34.8992 3.88372C35.0453 3.75167 34.9409 3.50309 34.1787 3.10693Z" fill="#FF9696"/>
<path d="M8.71776 10.0981L9.32122 9.32129C9.11195 9.54638 8.84073 9.69937 8.54443 9.75947C8.67925 9.8657 8.92961 9.8657 8.71776 10.0981Z" fill="#FF9696"/>
<path d="M6.99114 9.38005C6.69818 9.16427 6.48956 9.58235 6.21436 9.99145C6.23122 9.96837 6.25058 9.94726 6.27206 9.92851C6.56058 10.3646 6.7692 9.87906 6.99114 9.38005Z" fill="#FF9696"/>
<path d="M6.21429 10.0981C5.95536 10.3275 5.70876 10.5568 5.4375 10.7776C5.79507 11.1088 5.79507 10.5228 6.21429 10.0981Z" fill="#FF9696"/>
<path d="M12.5643 6.45332C12.1814 6.48681 12.7631 6.9318 12.4612 6.88395C12.4612 7.16147 12.8735 6.84567 13.0797 6.5538C13.2859 6.26192 13.3153 6.01311 12.5643 6.45332Z" fill="#FF9696"/>
<path d="M5.4375 9.04487L6.21429 9.32122L6.09892 8.54443L5.4375 9.04487Z" fill="#FF9696"/>
<path d="M8.54485 6.21436C8.21495 6.40499 7.94673 6.67321 7.76807 6.99114C7.96226 6.84148 8.29628 6.46378 8.54485 6.21436Z" fill="#FF9696"/>
<path d="M6.21436 7.768L6.76152 7.60524L7.76793 6.99121L6.21436 7.768Z" fill="#FF9696"/>
<path d="M19.4517 2.3305C19.6911 2.15119 19.9359 2.01618 20.184 1.92665C20.2499 1.61937 20.0412 1.46134 19.7702 1.61059C19.5908 1.86519 19.3272 2.08467 19.4517 2.3305Z" fill="#FF9696"/>
<path d="M15.5356 1.22255C15.8274 1.25451 16.0999 1.37065 16.3124 1.55364L16.1147 0.776855L15.5356 1.22255Z" fill="#FF9696"/>
<path d="M19.2174 0.776786C19.3184 0.480059 21.2375 -0.193005 19.4127 0.0530611C19.2848 0.320839 17.8775 0.776786 19.2174 0.776786Z" fill="#FF9696"/>
<path d="M34.9555 5.57539L34.7427 5.4375L34.1787 6.21429L34.9555 5.57539Z" fill="#FF9696"/>
<path d="M42.2161 6.99121C42.1351 7.05393 42.0478 7.11195 41.9549 7.16475C41.9492 7.17454 41.9463 7.18508 41.9463 7.19574C41.9463 7.20639 41.9492 7.21694 41.9549 7.22673C41.9765 7.28225 42.0124 7.33415 42.0605 7.3796C42.1605 7.4829 42.2383 7.59446 41.9771 7.62751C42.0327 7.88782 42.4273 7.55314 42.4829 7.768C42.4829 7.66883 42.5329 7.59859 42.5496 7.54074C42.5662 7.4829 42.5496 7.4953 42.5885 7.44571C42.6274 7.39613 42.6663 7.33415 42.6941 7.2887C42.7774 7.11103 42.6996 7.01187 42.2161 6.99121Z" fill="#FF9696"/>
<path d="M13.2055 43.4999L12.4287 42.7231L12.652 43.389L13.2055 43.4999Z" fill="#FF9696"/>
<path d="M11.2634 42.624L11.6518 41.9463L10.9339 42.0267V45.0534V44.8984L10.875 44.9788V42.1071C11.028 42.2277 11.2752 42.4058 11.2634 42.624Z" fill="#FF9696"/>
<path d="M86.9999 21.8041L86.5733 21.75C86.1854 21.9073 86.2242 22.1138 86.2242 22.5268C86.4828 22.2908 86.7672 22.045 86.9999 21.8041Z" fill="#FF9696"/>
<path d="M78.6149 43.4999C78.8398 43.2889 79.0238 42.9342 79.2324 42.7231C78.8521 43.2889 78.1365 43.1003 78.6149 43.4999Z" fill="#FF9696"/>
</svg>
