<svg width="31" height="31" viewBox="0 0 31 31" fill="none" xmlns="http://www.w3.org/2000/svg">
<path d="M15.4958 7.547C11.0948 7.547 7.54298 11.0989 7.54298 15.5C7.54298 19.9011 11.0948 23.453 15.4958 23.453C19.8969 23.453 23.4487 19.9011 23.4487 15.5C23.4487 11.0989 19.8969 7.547 15.4958 7.547ZM15.4958 20.6689C12.6497 20.6689 10.3271 18.3462 10.3271 15.5C10.3271 12.6538 12.6497 10.3311 15.4958 10.3311C18.342 10.3311 20.6646 12.6538 20.6646 15.5C20.6646 18.3462 18.342 20.6689 15.4958 20.6689ZM23.7744 5.36778C22.7468 5.36778 21.9171 6.19759 21.9171 7.22516C21.9171 8.25273 22.7468 9.08254 23.7744 9.08254C24.8019 9.08254 25.6317 8.25661 25.6317 7.22516C25.6321 6.98116 25.5842 6.73949 25.491 6.51401C25.3978 6.28852 25.261 6.08364 25.0884 5.91111C24.9159 5.73858 24.711 5.60177 24.4855 5.50854C24.2601 5.41531 24.0184 5.36747 23.7744 5.36778ZM30.9983 15.5C30.9983 13.3596 31.0177 11.2385 30.8975 9.10193C30.7773 6.62025 30.2111 4.41776 28.3964 2.60304C26.5779 0.784432 24.3793 0.222178 21.8977 0.101971C19.7573 -0.0182348 17.6362 0.00115338 15.4997 0.00115338C13.3593 0.00115338 11.2383 -0.0182348 9.10176 0.101971C6.62013 0.222178 4.41768 0.78831 2.60299 2.60304C0.784418 4.42164 0.222174 6.62025 0.10197 9.10193C-0.0182344 11.2424 0.00115335 13.3634 0.00115335 15.5C0.00115335 17.6366 -0.0182344 19.7615 0.10197 21.8981C0.222174 24.3797 0.788296 26.5822 2.60299 28.397C4.42156 30.2156 6.62013 30.7778 9.10176 30.898C11.2422 31.0182 13.3632 30.9988 15.4997 30.9988C17.6401 30.9988 19.7611 31.0182 21.8977 30.898C24.3793 30.7778 26.5817 30.2117 28.3964 28.397C30.215 26.5784 30.7773 24.3797 30.8975 21.8981C31.0215 19.7615 30.9983 17.6404 30.9983 15.5ZM27.586 24.6434C27.303 25.3492 26.9617 25.8765 26.415 26.4194C25.8683 26.9661 25.3448 27.3074 24.6391 27.5904C22.5995 28.4008 17.7564 28.2186 15.4958 28.2186C13.2352 28.2186 8.38829 28.4008 6.3487 27.5943C5.64299 27.3112 5.11564 26.97 4.57278 26.4233C4.02605 25.8765 3.68482 25.353 3.40176 24.6473C2.59523 22.6038 2.77748 17.7607 2.77748 15.5C2.77748 13.2393 2.59523 8.39232 3.40176 6.35269C3.68482 5.64697 4.02605 5.11961 4.57278 4.57675C5.11952 4.03388 5.64299 3.68877 6.3487 3.4057C8.38829 2.59916 13.2352 2.78141 15.4958 2.78141C17.7564 2.78141 22.6034 2.59916 24.643 3.4057C25.3487 3.68877 25.876 4.03 26.4189 4.57675C26.9656 5.12349 27.3068 5.64697 27.5899 6.35269C28.3964 8.39232 28.2142 13.2393 28.2142 15.5C28.2142 17.7607 28.3964 22.6038 27.586 24.6434Z" fill="black"/>
</svg>
