<svg width="184" height="54" viewBox="0 0 184 54" fill="none" xmlns="http://www.w3.org/2000/svg">
<path d="M108.62 13.4093C108.51 12.7431 108.422 12.0694 108.268 11.388C108.971 12.0226 109.599 12.737 110.14 13.5171C110.465 13.9144 110.569 13.8472 110.564 12.8145C109.592 13.1044 108.765 11.3741 107.655 9.68056C107.154 8.85685 106.549 8.10119 105.858 7.43191C105.214 6.8993 104.65 6.68117 104.242 6.95727C104.013 6.53025 103.784 6.09574 103.503 5.66113C103.784 5.96103 103.91 5.92387 104.192 6.21628C104.05 5.77542 103.766 5.39553 103.384 5.1381C103.002 4.88066 102.546 4.76073 102.088 4.79773C101.669 4.81521 101.248 4.78679 100.835 4.71296C100.578 4.65226 100.33 4.56135 100.094 4.44209L99.6642 4.20177C99.5012 4.11913 99.3308 4.0215 99.1456 3.90888C98.7403 3.65576 98.3673 3.35343 98.035 3.00866C97.8129 2.81364 97.8725 2.66409 98.3174 2.72483C97.8504 2.61166 97.3388 2.55078 96.8346 2.47496C96.5899 2.47448 96.3601 2.40667 96.0932 2.3837L95.3516 2.38224C94.5139 2.20099 94.7593 1.87967 95.6266 2.06847L94.4774 1.92402C93.303 1.87532 92.1276 1.98884 90.9837 2.26143L90.9839 2.19407C90.6794 2.38805 90.2411 2.76138 89.8103 3.11227C89.6023 3.27651 89.3869 3.44821 89.1938 3.61248L88.7479 4.06062C87.6796 4.28304 89.1196 3.6273 88.749 3.5218L87.8279 4.26836C87.5308 4.52223 87.2929 4.81363 87.0328 5.08254C86.5136 5.12642 86.5439 4.78223 86.9082 4.33392C87.4213 3.73506 88.0713 3.2714 88.802 2.98307C87.364 2.57613 86.8293 2.9792 86.3088 3.64424C86.0412 3.98796 85.677 4.39137 85.2238 4.83203C84.9432 5.10337 84.6427 5.35295 84.325 5.57864C83.9759 5.83988 83.5823 6.13098 83.0922 6.43685C83.5132 5.84369 83.9701 5.27724 84.4601 4.74072C83.5796 4.8172 82.7517 5.19594 82.1145 5.81378C81.7357 6.10491 81.4236 6.44106 81.0224 6.79201C80.8292 6.97124 80.6212 7.15044 80.391 7.33709C80.1607 7.52373 79.9675 7.71044 79.7224 7.89706C79.8783 7.83749 80.2124 7.63608 80.6281 7.4049C81.0711 7.16781 81.5272 6.95632 81.994 6.77146C82.3101 6.61052 82.6714 6.56369 83.0176 6.63876C83.2251 6.73646 83.1949 6.99085 82.9343 7.52168C82.1967 8.07331 81.6711 8.86557 81.4467 9.76388C81.1579 9.56126 80.8534 9.76272 80.5561 10.1064C80.2076 10.6216 79.8872 11.1556 79.5963 11.706L78.8558 11.1208C78.3115 12.6165 78.7784 12.7746 78.732 13.7773C78.5237 14.2429 78.1865 14.6378 77.7609 14.9145C77.3354 15.1912 76.8397 15.3378 76.3335 15.3367C75.0384 17.729 78.1824 14.1654 77.0048 17.1267C75.7627 18.9877 75.5149 20.5513 75.0723 23.1099C74.2022 24.3654 74.6357 22.645 74.1825 23.0333L74.3799 24.5304C74.2384 24.822 74.0682 24.6346 73.9794 24.5296C73.8288 25.6743 74.8165 24.9803 74.3979 26.6932C75.1378 27.5404 71.6337 29.4044 71.8663 31.8146C71.4132 32.1805 71.4371 31.3423 71.0367 31.3415C70.676 33.0189 70.4814 34.7282 70.4556 36.4443C69.9602 36.9423 69.4648 37.4402 68.9695 37.9381C70.2766 36.9603 70.191 39.0406 69.9204 40.8662C70.3811 40.6465 70.8275 40.3974 71.2568 40.1204C70.951 41.0029 70.6526 41.8929 70.2949 42.7752C69.983 42.9767 69.8578 42.5574 69.7551 41.9659C69.7547 42.168 69.7024 42.3625 69.6873 42.5196C68.8776 43.1616 68.6937 42.4204 68.599 41.5521L69.6012 41.0376C69.4397 40.1617 69.1818 39.3156 68.6333 39.1573C68.6198 39.4591 68.5513 39.7558 68.4314 40.0325C68.3799 39.8079 68.3135 39.6431 68.1874 39.6653C68.0613 39.6876 68.1125 40.0394 68.0967 40.5258L66.888 40.4561L67.1691 40.8009C66.4224 41.6101 65.6258 42.3709 64.7841 43.0788C64.6494 43.6922 64.5073 44.2906 64.3726 44.904C64.2132 45.5376 63.9985 46.1557 63.7312 46.7512C63.4156 47.5049 62.9441 48.182 62.3483 48.7371C61.7525 49.2922 61.0461 49.7125 60.2764 49.9699C60.4278 49.8346 60.5295 49.6515 60.5649 49.4506C60.6003 49.2496 60.5673 49.0424 60.4714 48.8627C60.2717 48.5264 60.1201 48.1633 60.0211 47.7842C60.5173 48.1444 61.1186 47.8686 61.6387 47.3383C62.1663 46.7172 62.7428 46.1402 63.3627 45.613C62.6201 46.1129 62.495 45.6113 62.5622 45.3794C62.0517 46.21 61.4029 46.9454 60.6445 47.5534C60.4384 46.8046 59.9036 47.2301 59.3107 46.9895C59.3872 47.1102 59.4277 47.2506 59.4274 47.3938C59.4271 47.5371 59.3861 47.6773 59.3092 47.7977C59.0852 48.0014 58.8007 48.1246 58.5001 48.1479C58.1001 48.1769 57.6986 48.1761 57.2987 48.1455C56.9174 48.0546 56.5264 48.0111 56.1346 48.016C56.158 47.8878 56.2142 47.7679 56.2977 47.6683C56.3811 47.5687 56.4889 47.4928 56.6104 47.4482C56.7822 47.3902 56.9649 47.3726 57.1444 47.3969L57.5003 47.4724C57.6428 47.4827 57.7842 47.5055 57.9229 47.5406C57.8037 47.4076 57.6571 47.3026 57.4933 47.2329C57.3674 47.1599 57.2231 47.1258 57.0782 47.1348C56.7688 47.202 56.4659 47.2966 56.1729 47.4174C55.8508 47.5415 55.5087 47.6043 55.1639 47.6025C54.9669 47.5805 54.7786 47.5083 54.6167 47.3928C54.4547 47.2773 54.3245 47.1223 54.2382 46.9421C54.5864 47.1374 54.7344 47.3173 54.9794 47.1681C54.3449 47.0674 53.76 46.7616 53.3125 46.2967C52.8535 45.8468 52.6245 45.4273 52.973 45.4205L53.2989 45.6456C52.7805 45.2479 52.1662 44.6331 51.4777 44.0405C51.1371 43.7405 50.8485 43.4106 50.5154 43.1032L50.0269 42.6457C49.864 42.4882 49.7309 42.3084 49.5754 42.1509C49.2794 41.8285 48.9834 41.5211 48.6873 41.2511C48.3912 40.9811 48.1618 40.6813 47.9471 40.5013C47.4511 40.0588 47.0067 39.8034 46.6802 39.8627C47.2666 39.6539 47.8736 39.5096 48.4906 39.4322C47.4522 39.0821 46.4352 38.6703 45.445 38.1989C44.4522 37.703 43.4447 37.1547 42.4818 36.5616C43.0676 36.5627 43.8031 35.9281 44.5751 35.5404C44.7538 35.4156 44.9551 35.3277 45.1676 35.2818C45.3801 35.2359 45.5995 35.2329 45.8132 35.273C46.0268 35.313 46.2305 35.3954 46.4124 35.5153C46.5944 35.6352 46.751 35.7902 46.8733 35.9715C46.7298 34.9912 46.3524 34.0607 45.7736 33.2602C45.7726 33.7392 44.7024 34.8971 44.3847 34.3202C44.9227 32.2408 44.5876 32.9286 44.889 30.5269C44.8875 31.2753 43.0266 31.0322 42.7469 29.9091C43.036 30.0069 44.3203 29.3284 44.6088 29.6732C43.802 28.9233 43.0099 28.1734 42.2104 27.4234C42.6987 28.0306 43.6052 27.1493 43.8811 26.4089C43.6504 26.7901 43.2406 23.9979 42.8563 23.2862L42.8538 24.5809C42.1705 21.3391 39.7216 22.1201 38.771 19.0349C39.2229 19.2828 41.1066 19.279 40.7391 17.5869C40.2204 17.3614 38.9383 16.9024 37.5972 16.2711C36.9378 15.9555 36.234 15.6024 35.5895 15.212C34.9778 14.8337 34.4113 14.3857 33.9013 13.8765L34.0806 13.1884C33.5948 12.6771 33.0807 12.1938 32.5409 11.741C33.1224 11.8567 33.6947 12.0154 34.2531 12.2158C34.9126 12.4716 35.6684 12.8024 36.476 13.1931C37.8709 13.9356 39.1736 14.8426 40.3568 15.8948C40.3143 15.5576 40.3325 15.2153 40.4107 14.8846C40.411 14.6901 40.4115 14.4356 39.9312 13.5441C40.0441 12.6987 41.0497 14.2498 41.2637 14.789C41.0427 14.0402 40.7327 13.2912 40.4449 12.5423C40.2899 12.1753 40.1571 11.7934 39.9947 11.4338L39.4629 10.3327C39.0692 10.6761 38.4402 9.97893 37.7443 9.33396C37.4398 9.03259 37.1158 8.75195 36.7744 8.49388C36.4708 8.30619 36.2187 8.23086 36.0775 8.38774C37.3445 9.57311 38.515 10.8593 39.5778 12.2338C39.4305 12.3085 39.2678 12.3472 39.103 12.3469C38.9381 12.3466 38.7756 12.3072 38.6286 12.2319C38.1022 12.0527 37.6034 11.7998 37.1468 11.4806C35.9571 10.6541 34.92 9.62378 34.0825 8.43622C33.9869 8.00946 34.4248 7.83819 34.9219 7.75685C35.4189 7.6755 35.9676 7.70651 36.0791 7.57951C35.5347 7.27457 35.0361 6.89311 34.5981 6.44656C34.0207 5.9066 33.4581 5.38163 33.4437 5.17954C33.8956 5.39746 34.3698 5.6229 34.8291 5.87076C34.3096 5.14056 33.5729 4.59648 32.726 4.3175C32.32 4.13001 31.9287 3.91159 31.5555 3.66413C31.1223 3.33352 30.7406 2.93924 30.4232 2.49444C30.2237 2.32266 30.0493 2.12328 29.9052 1.90221C29.7128 1.66235 29.5057 1.40002 29.2985 1.15265C29.1319 0.940345 28.9405 0.749018 28.7286 0.58277C28.5509 0.470165 28.3951 0.454893 28.2985 0.581927C29.2741 2.27516 27.5474 5.4374 26.6639 5.9296C26.5315 5.7789 26.3879 5.63852 26.2346 5.50966C25.9482 5.23604 25.6412 4.98523 25.3164 4.75949L24.7536 4.35426L24.1758 4.03133C23.798 3.79859 23.4349 3.66317 23.272 3.52815C22.7018 3.10046 23.0366 2.54732 23.5642 2.03197C24.0917 1.51663 24.7229 1.08381 24.1231 0.626128C24.0485 0.872945 23.2542 1.23809 22.9499 1.3722C22.4977 1.28151 22.5649 1.06461 22.5133 0.899866C22.4617 0.735123 22.2617 0.614991 21.26 0.897409C21.1246 1.86255 17.4828 2.10986 20.583 1.97374C20.2572 2.14834 19.9199 2.3002 19.5735 2.42827C19.3328 2.54173 19.0849 2.63875 18.8313 2.71868C18.5519 2.79635 18.279 2.8959 18.015 3.01643C17.6441 3.2089 17.289 3.43093 16.9532 3.6804C17.4202 3.76364 17.3225 4.4295 17.1354 5.31221C16.9206 6.16908 16.5843 6.99015 16.1368 7.74996C16.0112 7.50275 15.544 7.52428 15.314 7.5388C14.1994 8.67414 13.3596 9.593 12.5939 10.527C11.7548 11.5294 11.0357 12.6283 10.4516 13.8006C10.1102 13.9347 9.21793 15.1378 9.0859 14.3892C9.15625 15.0159 9.08398 15.6505 8.87461 16.2447C8.13168 16.9168 8.2958 16.4232 8.46006 15.8622C8.62431 15.3013 8.82575 14.688 8.06105 15.1131C8.52759 15.4583 7.87059 17.6946 7.77892 19.0639C8.75799 18.991 8.98578 16.2824 9.27031 14.8984C10.4039 15.4395 10.6733 18.0069 10.2446 21.0445C9.78011 23.4384 9.14555 21.7907 9.18175 22.2398C7.58624 26.5548 10.1299 26.6122 8.1282 30.0433C6.91696 31.2757 6.59386 29.6361 5.94835 29.792C6.24894 27.7795 7.32585 26.9809 7.68438 25.6719L6.84343 27.167C6.77597 26.2435 6.97072 25.3197 7.40486 24.5039C6.32756 25.5046 5.07636 31.9831 3.194 35.0851C3.19265 35.7736 3.07181 36.8885 3.56198 36.5302C3.66652 36.1637 3.77851 35.7823 3.8682 35.4307C4.84859 34.6842 3.93037 37.7657 4.72634 36.5175C4.59713 38.1188 4.5562 40.0794 3.15835 41.9252L2.15732 41.8484C2.4241 41.9537 3.32366 40.8254 3.34726 40.1369C3.34627 40.6383 2.67758 41.2732 2.06078 41.9156C1.44398 42.5579 0.908715 43.2229 1.13712 43.9867C1.59015 43.6583 2.05802 43.3225 2.5111 42.9716C2.31036 43.9067 2.06101 44.8305 1.76406 45.7392C1.40556 46.7501 0.802121 47.6545 0.00869388 48.37C0.668844 48.3114 0.750655 48.1918 0.854774 48.0424C0.958893 47.8929 1.15949 47.7062 2.05741 47.4161C1.11533 47.534 2.05929 46.4582 2.73622 45.4043C3.41316 44.3504 4.02323 43.3563 2.8949 43.9079C4.72802 43.2229 4.65647 41.8907 6.41673 40.5471C6.10538 40.4791 5.62243 40.9422 6.41894 39.417C6.36645 39.2725 6.3343 39.1213 6.32342 38.9678L6.39035 38.8707L6.31604 38.9454C6.31622 38.8556 6.31623 38.8481 6.31604 38.9454C6.12234 39.2082 5.86713 39.4185 5.57323 39.5576C5.3009 38.5018 6.2772 36.0641 6.22723 35.0686C6.6739 34.2014 6.41907 35.5704 6.89446 35.1822L6.81567 33.7601C7.49035 33.8587 8.67382 31.6608 8.2985 33.9651L8.96236 32.0131C9.71166 30.9479 10.1787 29.7072 10.3192 28.4086C10.7287 27.5413 10.324 25.924 10.5595 26.8525L11.0698 23.7852L11.2404 23.7855C11.7327 22.3645 11.9879 20.7935 12.3839 19.2975C12.7451 17.7261 13.5519 16.2949 14.7058 15.1785C14.9829 14.0716 15.5161 13.0468 16.2616 12.1881L16.9066 12.2941C17.2742 11.6874 17.7535 11.1574 18.3187 10.7328C18.8685 10.2474 19.3513 9.8517 19.315 9.47744C19.8109 9.54639 20.3154 9.44455 20.7468 9.18838C20.9631 9.09115 21.1738 8.98163 21.3778 8.86034C21.5645 8.73081 21.7579 8.61128 21.957 8.50225C22.2311 8.27273 22.5492 8.10276 22.8914 8.00299C23.2336 7.90321 23.5925 7.87579 23.9457 7.92242L24.0584 7.17427C25.1467 7.28344 26.2159 7.53717 27.2384 7.92888L27.5288 7.32326C28.3762 7.62887 29.0894 8.2266 29.5427 9.01105C30.1565 9.90282 30.7255 10.9292 31.443 11.8885C31.1315 11.8879 30.8433 11.3859 30.7032 10.9591C30.982 12.5237 31.9662 13.5884 32.9206 14.7502C33.4188 15.3272 33.8667 15.9465 34.2593 16.6013C34.6257 17.2421 34.8258 17.9658 34.8411 18.7054C35.2256 19.1442 35.4288 19.7151 35.409 20.3005C35.3848 20.2459 35.3524 20.1953 35.3129 20.1507C35.3127 20.218 35.3644 20.3229 35.4013 20.4203C35.4007 20.7496 35.4 21.0938 35.3993 21.4605C35.4629 21.1683 35.486 20.8687 35.4678 20.5701C35.7366 21.2555 36.0474 21.9235 36.3983 22.5701L35.8188 23.1152C35.8186 23.1751 35.863 23.2276 35.8926 23.2875C35.8909 24.1406 36.4033 23.8198 36.7975 23.2369C37.0055 23.5783 37.2539 23.8929 37.5372 24.1738C36.6232 25.1299 38.5271 26.1739 37.5902 27.4069C38.3311 27.775 39.2139 31.4214 40.5487 31.4913C40.4002 31.5659 40.3997 31.8353 40.2522 31.3934C40.3031 32.3419 40.6202 33.2562 41.1666 34.0295L40.4237 34.724C41.0456 35.2641 41.6823 35.7892 42.3043 36.3068C42.2496 37.7062 42.2112 38.3646 41.034 37.4044C41.687 38.1355 42.2948 38.9065 42.8538 39.713C43.3562 40.4171 43.9628 41.0391 44.6523 41.5575L44.0735 41.7435C44.4321 42.2057 44.8308 42.6347 45.265 43.0255C45.6869 43.4454 46.1014 43.813 46.0784 44.2021C46.1596 44.5905 46.2989 44.9643 46.4916 45.3105C46.7812 45.7873 47.1102 46.2386 47.4753 46.6595L48.119 47.4091L48.8591 48.1589L49.6809 48.9089C49.977 49.1639 50.3103 49.3966 50.6361 49.6592C52.0405 50.7503 53.5985 51.6235 55.2586 52.2501C55.7182 52.3932 56.1479 52.5737 56.6149 52.6868L58.0308 52.9815C58.9623 53.1055 59.9029 53.145 60.8413 53.0992C60.4193 52.7317 60.4419 52.5521 60.6645 52.4852C60.8872 52.4183 61.3542 52.4866 61.8513 52.3977C62.8821 52.3998 64.0768 52.0504 63.8779 51.3989C64.4188 51.6095 65.3613 51.2821 64.5735 52.1486C65.9846 51.0887 67.0094 50.4172 67.8488 49.7154C68.7046 49.0887 69.3007 48.165 69.5225 47.1218C70.0639 47.1228 69.5727 48.0049 69.9511 47.9234C70.0702 47.6766 70.2719 46.9361 70.6948 46.8397C71.1177 46.7432 70.6937 47.401 70.537 47.9021C70.9238 47.4044 71.2325 46.8497 71.4524 46.2574C71.5834 45.878 71.6173 45.4714 71.5511 45.0752C71.3932 44.4773 71.0418 43.9499 70.5529 43.5765C71.7932 42.6584 72.0986 41.9705 71.9231 40.6905C72.4946 40.4521 73.2595 39.9447 72.5222 41.5223C73.1607 40.5817 73.7469 39.6059 74.2781 38.5996C74.9257 37.3586 75.3434 36.1471 74.9434 35.8993C75.2923 35.7279 75.5613 34.6956 75.5693 34.4038C76.2584 33.0761 76.8678 31.7078 77.3943 30.3063L77.0226 30.7845C76.2833 29.5632 77.4635 29.0641 77.9858 27.4337L78.0746 27.5237C80.3059 24.2427 78.345 25.8029 80.6798 22.6494L79.9384 22.5581C78.6647 21.6202 82.0722 19.8008 82.477 17.6313L81.7788 18.1613C81.7801 17.5027 82.6266 16.9805 83.547 16.5483C84.4674 16.116 85.4618 15.8036 85.7742 15.3552C86.0043 15.2135 85.7733 15.7968 85.6837 16.1034C86.0272 15.8264 86.3192 15.49 86.5459 15.1098C86.6056 14.9153 86.4946 14.8103 86.3391 14.7127C86.028 14.5101 85.5315 14.307 86.0377 13.3277C86.6755 13.3289 86.8142 14.4517 87.684 13.3982C87.8621 13.3163 88.011 13.0097 88.1823 12.6508C88.3536 12.292 88.5327 11.7161 88.7858 11.2376C89.0158 10.7291 89.3303 10.2641 89.7155 9.86242C89.8883 9.68826 90.0925 9.54896 90.317 9.45199C90.51 9.33956 90.7337 9.29277 90.955 9.31853C90.7415 9.24526 90.5394 9.14154 90.3549 9.01052C90.2366 8.87559 90.2296 8.62861 90.5343 8.32985C90.8415 8.13035 91.2004 8.02692 91.5657 8.03253C91.7659 8.03292 91.9587 8.0333 92.159 8.03369C92.3592 8.03409 92.5445 8.10928 92.7224 8.13208L92.9894 8.13261L93.2488 8.20047C93.4109 8.22657 93.5761 8.22689 93.7383 8.20143C94.0866 8.22519 94.4302 8.11035 94.6956 7.88151C94.7425 7.92635 94.7788 7.98127 94.8018 8.04221C94.8248 8.10315 94.8339 8.16853 94.8284 8.2335C95.0657 8.23396 95.3698 8.23456 95.7256 8.29513C96.0815 8.3557 96.4668 8.49864 96.8597 8.58922C97.2526 8.67979 97.6008 8.87505 98.0011 8.95068C98.2947 9.0367 98.6 9.07519 98.9056 9.06471C98.5768 10.3662 99.9102 11.1247 101.124 12.2945C102.338 13.4644 103.344 14.7461 102.327 15.2305C102.905 16.3105 103.421 17.4235 103.871 18.5638L103.619 18.5633C104.274 20.8696 105.007 21.5595 105.784 22.2496C105.783 22.8483 105.472 22.5034 105.346 22.4882C105.88 26.1263 106.035 26.4709 107.914 29.2286L107.282 29.7362C107.601 30.0961 107.65 31.4807 107.899 33.2249C108.094 35.1747 108.703 37.0593 109.682 38.7514C109.591 38.7415 109.502 38.7108 109.424 38.6613C109.346 38.6119 109.279 38.5451 109.231 38.4661C110.376 40.3617 110.95 42.9597 112.013 45.2069C113.077 47.4541 114.527 49.1932 116.1 48.8146C116.536 49.1005 116.986 49.3637 117.448 49.603C117.902 49.853 118.369 50.0763 118.848 50.2718C118.108 49.6642 117.819 49.282 117.783 49.0873C117.746 48.8927 117.961 48.8706 118.221 48.8786C118.732 48.8796 119.474 49.0083 119.023 48.3938C119.618 48.8056 120.143 49.3121 120.577 49.8936C120.917 50.3732 120.917 50.695 120.087 50.2892L119.917 50.027C119.249 50.4223 120.189 51.2324 121.434 51.826C122.678 52.4197 124.198 52.5798 124.094 53.0735C126.288 53.2899 128.497 52.8574 130.452 51.8287C132.203 50.9126 133.801 49.7265 135.19 48.3132C137.699 45.7555 139.785 42.8084 141.37 39.5843L140.049 39.7987C140.422 39.111 140.794 38.4082 141.121 37.7054C141.597 37.2498 142.249 37.3035 141.49 38.8287C142.448 38.2768 142.178 36.0161 141.97 35.8885C143.608 33.0105 142.657 37.5737 143.052 36.639C143.208 36.1978 143.35 35.7565 143.499 35.3227L143.261 35.5618C143.264 34.3494 142.871 34.0642 143.587 32.2247C144.205 31.0883 144.433 31.8147 144.627 31.3586C144.701 31.3587 144.79 31.2317 144.895 30.6107L145.842 27.896L144.684 28.7319C144.687 27.3923 145.52 26.1816 144.205 27.1444C145.208 26.4504 146.102 23.9526 146.908 21.5818C147.714 19.211 148.467 16.9375 148.905 16.5043C149.092 14.74 149.729 13.0547 150.754 11.6135C150.36 11.9645 149.337 11.7604 150.364 10.2582C151.045 11.0678 151.639 10.4852 152.337 9.76066C153.036 9.03611 153.905 8.16222 154.81 8.32115C154.113 8.31978 154.811 7.53536 155.502 6.9455C155.681 6.81114 155.851 6.64684 156 6.52739C156.132 6.43245 156.247 6.31639 156.342 6.18381C156.476 5.95956 156.439 5.74994 155.92 5.62918C156.01 5.58723 156.107 5.5656 156.206 5.56579C156.304 5.56599 156.402 5.588 156.491 5.6303C156.536 5.65861 156.574 5.69696 156.603 5.74241C156.631 5.78786 156.648 5.83922 156.654 5.89255C156.671 6.03561 156.734 6.16923 156.832 6.27332C156.931 6.37742 157.061 6.44638 157.201 6.46987C157.749 6.1148 158.402 5.96266 159.049 6.03944C159.818 6.13839 160.56 6.39448 161.228 6.79208C162.796 7.74996 164.258 8.87428 165.589 10.1459C165.82 10.0041 165.591 9.23285 166.503 9.56392C166.621 9.96079 166.694 10.4025 166.782 10.8068C166.87 11.2111 166.936 11.6303 166.987 12.0495C167.587 12.567 168.649 11.686 168.816 13.4525C168.876 13.1458 168.951 12.7044 169.351 13.1018C171.212 16.8923 173.267 20.713 174.868 24.8621C176.469 29.0112 177.536 33.4512 177.067 37.9555C177.373 36.7063 177.55 37.47 177.711 38.3609C177.712 37.7622 178.349 38.2798 178.676 38.1083C178.555 39.3803 178.374 40.6447 178.179 41.8941C178.698 42.172 178.814 43.1526 178.916 44.0958C179.018 45.0389 179.024 45.9519 179.498 46.125L179.285 44.9721C179.87 45.7216 180.472 45.154 181.074 44.3844C181.676 43.6147 182.301 42.6431 183.02 42.6969C182.317 41.8349 182.661 40.5932 182.871 39.1867C183.082 37.7802 183.166 36.1938 182.012 34.8744C182.169 34.1263 182.567 35.3544 182.82 34.9358C182.08 34.2908 181.785 33.4371 181.67 31.6782L181.855 31.8357C181.244 29.4921 180.884 27.8 180.539 26.0108C180.138 23.8727 179.605 21.762 178.942 19.6914L178.451 20.3415C178.241 19.6833 178.133 18.9966 178.129 18.3053C177.388 17.9072 177.691 18.6711 178.001 19.4575C178.31 20.2439 178.576 21.0602 177.798 20.7144C178.178 19.7273 177.373 17.7874 176.487 15.9596C175.601 14.1319 174.61 12.4012 175.013 11.4665C173.992 9.87047 174.647 12.3638 173.612 10.8052L173.695 10.1318L172.954 10.078C172.303 9.03646 172.334 8.19086 172.587 7.92194C172.854 8.22834 173.138 8.51876 173.438 8.79172C173.265 8.33252 173.015 7.90675 172.699 7.53301C172.362 7.10788 171.991 6.71166 171.589 6.3484C170.849 5.59858 170.042 5.0881 169.894 4.84833C170.293 5.3655 170.707 5.86772 171.055 6.39974C168.932 4.27337 166.449 2.54756 163.723 1.30391C162.173 0.617852 160.493 0.280043 158.801 0.313891C157.135 0.358339 155.515 0.873754 154.126 1.80147L154.667 1.90731C152.788 3.13096 152.209 3.6462 151.429 4.14608C151.002 4.41244 150.601 4.71993 150.233 5.06424C149.963 5.28965 149.714 5.53968 149.49 5.81115C149.187 6.16956 148.914 6.55192 148.672 6.95456L148.672 6.77495C148.369 7.78604 147.927 8.74978 147.361 9.63866C147.459 9.09253 147.043 9.41352 146.62 9.71204C146.196 10.0106 145.877 10.2868 146.004 9.56864C145.303 11.5579 145.258 12.0593 145.257 12.4409C145.422 13.1226 145.513 13.8204 145.528 14.5219L144.785 14.8573C145.039 15.8724 144.961 16.9429 144.564 17.9102C144.679 16.234 143.339 18.7909 143.387 16.8676C140.799 20.3874 142.552 23.0625 140.31 24.293C141.195 26.5398 142.17 21.1834 142.175 22.2835C142.918 21.6114 142.78 24.1107 142.266 25.2772C141.752 26.4436 139.763 26.8214 138.823 29.8504C138.92 29.5513 138.824 29.4912 138.921 29.1996C138.177 30.2009 138.708 31.5415 137.601 32.6545C138.178 33.7407 136.856 34.3368 137.856 35.0123C138.155 34.0999 138.416 33.1649 138.67 32.2375C138.392 33.8534 139.086 35.8679 137.294 38.0422C137.199 37.4698 137.2 36.8853 137.297 36.3134C136.659 36.8734 136.857 37.8093 136.174 38.3468C135.707 37.9642 136.035 37.179 136.452 36.2219C136.955 35.2753 137.229 34.2218 137.252 33.1477C136.509 33.73 136.756 36.4695 135.943 35.1657C136.438 36.0573 136.066 36.7376 135.597 37.4551C134.973 38.2148 134.614 39.161 134.576 40.1472L134.035 39.6672C133.992 40.2168 133.837 40.7514 133.58 41.2379C133.521 40.7738 133.441 40.3022 133.36 39.853C133.303 40.2488 133.162 40.6274 132.946 40.9629C132.73 41.2983 132.445 41.5827 132.11 41.7963C131.486 42.1888 130.963 42.7267 130.587 43.3649C131.524 42.2068 131.776 42.1474 131.983 42.3648C132.19 42.5823 132.286 43.0165 132.895 42.6061C132.097 44.5353 131.304 44.6236 130.532 44.6969C129.454 44.6917 128.417 45.1143 127.645 45.8737C127.935 45.5899 129.323 45.1286 128.921 45.8762C128.582 46.0528 128.223 46.1853 127.852 46.2707C127.55 46.3414 127.234 46.3253 126.94 46.224C126.138 46.649 126.257 46.7615 126.508 46.9117C126.76 47.0618 127.25 47.1601 126.885 47.5111C126.404 47.2408 126.241 47.3527 126.018 47.6516C125.795 48.0259 125.455 48.3148 125.052 48.4729L125.053 47.7246C124.842 47.668 124.626 47.6275 124.408 47.6036C124.272 47.5688 124.129 47.5685 123.993 47.6027C123.808 47.6775 123.648 47.8045 123.532 47.9685C123.302 48.245 123.042 48.6336 121.976 47.7559C122.442 47.658 122.895 47.5057 123.326 47.3021C122.913 47.2361 122.509 47.1275 122.118 46.9779C122.333 46.7912 122.541 46.5971 122.742 46.4029C121.311 46.2579 120.926 45.7408 120.068 44.5567C119.963 45.1551 118.977 45.3777 118.022 44.2533C117.78 43.1901 118.875 44.255 117.617 42.6884C117.933 42.7333 118.24 42.8247 118.529 42.9596C118.682 43.0679 118.804 43.2149 118.883 43.3858C118.962 43.5566 118.995 43.7455 118.979 43.9334C119.21 43.844 119.595 43.9346 119.818 43.8751C119.545 42.8793 118.442 41.8668 118.058 41.2599C118.19 41.4916 118.28 41.7452 118.323 42.0088C117.931 41.7086 117.531 41.386 117.153 41.0336C116.776 40.6811 116.413 40.2838 116.021 39.9163C116.022 39.37 116.415 39.6252 116.763 39.8579C116.296 39.372 115.88 38.8396 115.52 38.2689C116.15 38.2701 116.677 37.9868 117.439 39.021C117.143 38.6463 116.862 38.2715 116.566 37.8593L115.85 36.5408C116.021 36.2567 115.994 34.8722 116.327 35.1647C116.115 33.5328 114.013 31.5829 113.862 29.1729C113.626 28.9753 113.45 28.716 113.351 28.4235C112.918 26.2524 113.145 24.1349 111.644 21.6848C111.838 21.094 112.039 20.4957 112.219 19.8823C111.362 17.8601 111.576 22.3058 110.151 18.9578C109.036 16.6207 110.688 17.754 110.675 16.7885C110.049 16.1123 109.461 15.4016 108.914 14.6597C108.212 13.6858 107.731 12.5685 107.504 11.3865C107.951 12.0159 108.325 12.6946 108.62 13.4093ZM83.0753 7.48454C83.3062 6.95365 83.8203 5.77223 84.421 5.7734C84.5375 6.85129 83.8922 6.90241 83.0753 7.48454ZM66.8899 43.2849C66.8907 42.8584 67.2919 42.485 67.8637 42.1269C67.6302 42.5824 67.2973 42.9784 66.8899 43.2849ZM9.00251 30.4491C9.00587 30.4293 9.00591 30.4091 9.00262 30.3892C9.55334 29.41 9.33018 29.7538 8.97283 30.4565L9.00251 30.4491ZM8.01197 32.5875C8.01147 32.842 8.13009 32.8646 8.25629 32.7975C8.13806 32.5803 8.25776 32.0492 8.51094 31.5183C8.25116 31.6301 8.03561 31.8766 7.98229 32.5949L8.01197 32.5875ZM144.471 31.2011L144.152 31.5822C144.28 30.5422 144.368 30.8716 144.471 31.2086L144.471 31.2011Z" fill="#F6BBFF"/>
</svg>
