<svg width="50" height="38" viewBox="0 0 50 38" fill="none" xmlns="http://www.w3.org/2000/svg">
<path d="M46.778 0.333008H3.22244C2.39732 0.333008 1.606 0.660784 1.02255 1.24423C0.439105 1.82768 0.111328 2.619 0.111328 3.44412V34.5552C0.111328 35.3803 0.439105 36.1717 1.02255 36.7551C1.606 37.3386 2.39732 37.6663 3.22244 37.6663H46.778C47.6031 37.6663 48.3944 37.3386 48.9779 36.7551C49.5613 36.1717 49.8891 35.3803 49.8891 34.5552V3.44412C49.8891 2.619 49.5613 1.82768 48.9779 1.24423C48.3944 0.660784 47.6031 0.333008 46.778 0.333008ZM44.3824 34.5552H5.80466L16.6935 23.293L14.4536 21.1308L3.22244 32.7508V5.80856L22.558 25.0508C23.1409 25.6302 23.9294 25.9555 24.7513 25.9555C25.5732 25.9555 26.3618 25.6302 26.9447 25.0508L46.778 5.32634V32.5486L35.3291 21.0997L33.1358 23.293L44.3824 34.5552ZM5.26022 3.44412H44.258L24.7513 22.8419L5.26022 3.44412Z" fill="white"/>
</svg>
