<?xml version="1.0" encoding="utf-8"?>
<!-- Generator: Adobe Illustrator 26.0.2, SVG Export Plug-In . SVG Version: 6.00 Build 0)  -->
<svg version="1.1" id="Layer_1" xmlns="http://www.w3.org/2000/svg" xmlns:xlink="http://www.w3.org/1999/xlink" x="0px" y="0px"
	 viewBox="0 0 369 228" style="enable-background:new 0 0 369 228;" xml:space="preserve">
<style type="text/css">
	.st0{fill:#FFFFFF;}
</style>
<g id="Layer_1_00000135652474833587670470000010755722659711592081_">
	
		<image style="overflow:visible;enable-background:new    ;" width="1464" height="908" xlink:href="C4B534948D9CEDCB.png"  transform="matrix(0.254 0 0 0.254 0 -1.4237)">
	</image>
</g>
<g id="Layer_2_00000075859833922252154570000005732250654847279500_">
	<path class="st0" d="M-17.1-36v304.3h429.9V-36H-17.1z M369,225.4c0,1.4-1.2,2.6-2.6,2.6l0,0H2.6c-1.4,0-2.6-1.2-2.6-2.6
		c0,0,0,0,0,0V27.6C0,12.3,12.3,0,27.6,0c0,0,0,0,0,0H344c13.8,0,25,11.2,25,25V225.4z"/>
</g>
</svg>
